<?xml version="1.0" encoding="utf-8"?>
<!-- Generator: Adobe Illustrator 27.3.1, SVG Export Plug-In . SVG Version: 6.00 Build 0)  -->
<svg version="1.1" id="Layer_1" xmlns="http://www.w3.org/2000/svg" xmlns:xlink="http://www.w3.org/1999/xlink" x="0px" y="0px"
	 viewBox="0 0 95 95" style="enable-background:new 0 0 95 95;" xml:space="preserve">
<style type="text/css">
	.st0{fill:#FF0000;}
</style>
<g>
	<g>
		<path d="M74.7,33.9c0-3.8-2.46-7.03-5.88-8.17c-0.58-3.67-3.49-6.57-7.17-7.15c0,0,0,0-0.01,0c-0.01-0.01-0.02-0.03-0.04-0.04
			c-2.31-1.25-2.1-6.15-1.94-10.08c0.04-0.96,0.08-1.88,0.08-2.68C59.74,1.06,49.91,0,46.47,0h-3.69C39.34,0,29.5,1.06,29.5,5.78
			c0,0.79,0.04,1.71,0.09,2.68c0.16,3.93,0.37,8.82-1.94,10.08c-0.02,0.01-0.03,0.03-0.04,0.04c-0.01,0-0.01,0-0.01,0
			c-4.13,0.65-7.29,4.22-7.29,8.53v40.79c0,3.8,2.46,7.02,5.88,8.17c0.37,2.3,1.65,4.29,3.45,5.61c0.09,1.58,0.02,3.3-0.04,4.87
			c-0.04,0.96-0.09,1.87-0.09,2.68c0,4.71,9.84,5.78,13.28,5.78h3.69c3.44,0,13.27-1.06,13.27-5.78c0-0.81-0.03-1.71-0.08-2.68
			c-0.04-1.03-0.09-2.15-0.09-3.22h6.49c4.76,0,8.63-3.87,8.63-8.63V44.92l-5.77,1.75v-8.02l3.16-0.24l-1.65-2.32l4.25-1.82V33.9z
			 M30.69,8.39c-0.03-0.94-0.08-1.84-0.08-2.62c0-3.29,7.93-4.66,12.16-4.66h3.69c4.23,0,12.15,1.37,12.15,4.66
			c0,0.78-0.03,1.68-0.08,2.62c-0.15,3.56-0.32,7.84,1.34,10.07H29.36C31.02,16.22,30.85,11.95,30.69,8.39z M26.07,74.84
			c-2.72-1.13-4.65-3.82-4.65-6.94V27.11c0-4.14,3.38-7.52,7.52-7.52H60.3c3.56,0,6.55,2.5,7.31,5.83
			c-0.43-0.09-0.87-0.13-1.32-0.15c-0.97-2.47-3.39-4.23-6.21-4.23H29.16c-3.68,0-6.67,3-6.67,6.68v39.56c0,2.56,1.46,4.8,3.58,5.91
			V74.84z M26.07,66.96v5.32c-1.69-1.03-2.81-2.89-2.81-5.02V27.71c0-3.26,2.64-5.91,5.9-5.91h30.91c2.38,0,4.44,1.42,5.37,3.46
			H34.71c-4.77,0-8.64,3.87-8.64,8.63V57.3l4.37,2.32l4.99-8.21l4.38,1.53l7.88-4.75l0.75-3.89l11.92,1.27l2.26-6.48l3.36-0.25v9.93
			l-3.26,7.31l-10.4-3.94l-4.56,4.56l-5.81-0.49l-7.84,11.12l-4.56-3.89L26.07,66.96z M46.47,93.88h-3.69
			c-4.23,0-12.16-1.37-12.16-4.66c0-0.78,0.04-1.68,0.08-2.63c0.06-1.35,0.12-2.81,0.08-4.22c1.19,0.62,2.52,0.95,3.94,0.95h23.74
			c0,1.11,0.04,2.23,0.09,3.27c0.04,0.95,0.08,1.85,0.08,2.63C58.62,92.5,50.7,93.88,46.47,93.88z M73.58,46.44v28.25
			c0,4.14-3.37,7.51-7.51,7.51H34.71c-1.48,0-2.86-0.43-4.02-1.18c-0.44-0.27-0.84-0.58-1.2-0.94c-1.03-0.99-1.78-2.26-2.1-3.71
			c-0.1-0.38-0.16-0.78-0.18-1.19c-0.02-0.17-0.02-0.34-0.02-0.5v-7.24l2.43-2.46l4.71,4.01L42.5,57.4l5.7,0.47l4.41-4.41
			l10.71,4.06l2.66-5.98l0.77-1.72l0.67-1.51l0.38-0.11l1.12-0.35L73.58,46.44z M66.76,47.34v-8.53l1.05-0.08v8.3L66.76,47.34z
			 M68.93,35.53l-0.21,0.09l0.21,0.3l1.09,1.51l-1.09,0.08l-1.12,0.09l-1.05,0.07l-0.77,0.07l-4.18,0.3l-2.21,6.33l-12.07-1.29
			l-0.85,4.41l-7,4.23l-4.74-1.67l-4.93,8.09l-2.83-1.51V33.9c0-4.14,3.37-7.51,7.52-7.51h31.35c0.19,0,0.38,0.01,0.57,0.02
			c0.39,0.03,0.78,0.09,1.15,0.19c0.39,0.08,0.77,0.2,1.14,0.36c2.62,1.07,4.49,3.61,4.64,6.57L68.93,35.53z"/>
	</g>
	<g>
		<path class="st0" d="M68.93,35.93l1.09,1.51l-1.09,0.08l-1.12,0.09l-1.05,0.07l-0.77,0.07l-4.18,0.3l-2.21,6.33l-12.07-1.29
			l-0.85,4.41l-7,4.23l-4.74-1.67l-4.93,8.09l-2.83-1.51V33.9c0-4.14,3.37-7.51,7.52-7.51h31.35c0.19,0,0.38,0.01,0.57,0.02
			c0.39,0.03,0.78,0.09,1.15,0.19c0.39,0.08,0.77,0.2,1.14,0.36c2.62,1.07,4.49,3.61,4.64,6.57l-4.64,2l-0.21,0.09L68.93,35.93z"/>
	</g>
	<g>
		<path class="st0" d="M73.58,46.44v28.25c0,4.14-3.37,7.51-7.51,7.51H34.71c-1.48,0-2.86-0.43-4.02-1.18
			c-0.44-0.27-0.84-0.58-1.2-0.94c-1.03-0.99-1.78-2.26-2.1-3.71c-0.1-0.38-0.16-0.78-0.18-1.19c-0.02-0.17-0.02-0.34-0.02-0.5
			v-7.24l2.43-2.46l4.71,4.01L42.5,57.4l5.7,0.47l4.41-4.41l10.71,4.06l2.66-5.98l0.77-1.72l0.67-1.51l0.38-0.11l1.12-0.35
			L73.58,46.44z"/>
	</g>
</g>
</svg>
