<?xml version="1.0" encoding="utf-8"?>
<!-- Generator: Adobe Illustrator 27.3.1, SVG Export Plug-In . SVG Version: 6.00 Build 0)  -->
<svg version="1.1" id="Layer_1" xmlns="http://www.w3.org/2000/svg" xmlns:xlink="http://www.w3.org/1999/xlink" x="0px" y="0px"
	 viewBox="0 0 95 95" style="enable-background:new 0 0 95 95;" xml:space="preserve">
<style type="text/css">
	.st0{fill:#FF0000;}
	.st1{fill:none;stroke:#000000;stroke-width:1.1539;stroke-linecap:round;stroke-miterlimit:10;}
	.st2{fill:none;stroke:#000000;stroke-width:1.0546;stroke-linecap:round;stroke-miterlimit:10;}
	.st3{fill:none;stroke:#000000;stroke-width:0.9853;stroke-linecap:round;stroke-miterlimit:10;}
	.st4{fill:none;stroke:#000000;stroke-width:1.0412;stroke-linecap:round;stroke-miterlimit:10;}
</style>
<g>
	<g>
		<g>
			<g>
				<path d="M69.12,95H25.88c-2.21,0-4.02-1.8-4.02-4.02V4.02c0-2.21,1.8-4.02,4.02-4.02h43.25c2.21,0,4.02,1.8,4.02,4.02v86.97
					C73.14,93.2,71.34,95,69.12,95z M25.88,1.31c-1.49,0-2.7,1.21-2.7,2.7v86.97c0,1.49,1.21,2.7,2.7,2.7h43.25
					c1.49,0,2.71-1.21,2.71-2.7V4.02c0-1.49-1.21-2.7-2.71-2.7H25.88z"/>
			</g>
		</g>
		<g>
			<g>
				<path d="M54.68,5.93H40.93c-0.36,0-0.66-0.29-0.66-0.66c0-0.36,0.29-0.66,0.66-0.66h13.75c0.36,0,0.66,0.29,0.66,0.66
					C55.33,5.64,55.04,5.93,54.68,5.93z"/>
			</g>
		</g>
		<g>
			<g>
				<circle cx="58.43" cy="5.28" r="0.67"/>
			</g>
		</g>
	</g>
	<g>
		<g>
			<circle class="st0" cx="47.5" cy="84.02" r="4.42"/>
		</g>
		<g>
			<path d="M47.5,89.11c-2.8,0-5.08-2.28-5.08-5.08c0-2.8,2.28-5.08,5.08-5.08c2.8,0,5.08,2.28,5.08,5.08
				C52.58,86.83,50.3,89.11,47.5,89.11z M47.5,80.26c-2.08,0-3.77,1.69-3.77,3.77c0,2.08,1.69,3.77,3.77,3.77
				c2.08,0,3.77-1.69,3.77-3.77C51.27,81.95,49.58,80.26,47.5,80.26z"/>
		</g>
	</g>
</g>
</svg>
