<?xml version="1.0" encoding="utf-8"?>
<!-- Generator: Adobe Illustrator 27.3.1, SVG Export Plug-In . SVG Version: 6.00 Build 0)  -->
<svg version="1.1" id="Layer_1" xmlns="http://www.w3.org/2000/svg" xmlns:xlink="http://www.w3.org/1999/xlink" x="0px" y="0px"
	 viewBox="0 0 95 95" style="enable-background:new 0 0 95 95;" xml:space="preserve">
<style type="text/css">
	.st0{fill:#FF0000;}
	.st1{fill:none;stroke:#000000;stroke-width:1.1539;stroke-linecap:round;stroke-miterlimit:10;}
	.st2{fill:none;stroke:#000000;stroke-width:1.0546;stroke-linecap:round;stroke-miterlimit:10;}
	.st3{fill:none;stroke:#000000;stroke-width:0.9853;stroke-linecap:round;stroke-miterlimit:10;}
	.st4{fill:none;stroke:#000000;stroke-width:1.0412;stroke-linecap:round;stroke-miterlimit:10;}
</style>
<g>
	<g>
		<g>
			<g>
				<path d="M71.97,9.91h-6.59V3.6c0-1.99-1.62-3.6-3.59-3.6H23.05c-1.99,0-3.6,1.62-3.6,3.6v77.9c0,1.98,1.62,3.59,3.6,3.59h6.58
					v6.3c0,1.99,1.62,3.6,3.6,3.6h38.74c1.98,0,3.59-1.62,3.59-3.6V13.5C75.56,11.53,73.94,9.91,71.97,9.91z M29.62,13.5v70.41
					h-6.58c-1.33,0-2.42-1.08-2.42-2.41V3.6c0-1.34,1.09-2.42,2.42-2.42h38.74c1.33,0,2.41,1.08,2.41,2.42v6.3H33.23
					C31.24,9.91,29.62,11.53,29.62,13.5z M74.38,91.4c0,1.34-1.08,2.42-2.41,2.42H33.23c-1.33,0-2.42-1.08-2.42-2.42V13.5
					c0-1.33,1.09-2.42,2.42-2.42h38.74c1.33,0,2.41,1.09,2.41,2.42V91.4z"/>
			</g>
			<g>
				<path class="st0" d="M64.2,3.6v6.3H33.23c-1.99,0-3.6,1.62-3.6,3.59v70.41h-6.58c-1.33,0-2.42-1.08-2.42-2.41V3.6
					c0-1.34,1.09-2.42,2.42-2.42h38.74C63.12,1.18,64.2,2.26,64.2,3.6z"/>
			</g>
		</g>
	</g>
	<g>
		<g>
			<g>
				<path d="M52.59,19.92c-2.15,0-3.89,1.74-3.89,3.89v18.01c0,2.15,1.74,3.89,3.89,3.89c2.14,0,3.88-1.74,3.88-3.89V23.81
					C56.47,21.67,54.73,19.92,52.59,19.92z M55.3,41.82c0,1.5-1.21,2.72-2.71,2.72c-1.5,0-2.72-1.22-2.72-2.72V23.81
					c0-1.5,1.22-2.72,2.72-2.72c1.5,0,2.71,1.22,2.71,2.72V41.82z"/>
			</g>
			<g>
				<path class="st0" d="M52.59,21.1c-1.5,0-2.72,1.22-2.72,2.72v18.01c0,1.5,1.22,2.72,2.72,2.72c1.5,0,2.71-1.22,2.71-2.72V23.81
					C55.3,22.32,54.09,21.1,52.59,21.1z M51.52,26.97c0-0.58,0.48-1.06,1.07-1.06c0.58,0,1.06,0.48,1.06,1.06v7.74
					c0,0.59-0.48,1.06-1.06,1.06c-0.59,0-1.07-0.47-1.07-1.06V26.97z M52.59,42.62c-0.98,0-1.77-0.79-1.77-1.77s0.79-1.77,1.77-1.77
					c0.98,0,1.77,0.79,1.77,1.77S53.57,42.62,52.59,42.62z"/>
			</g>
		</g>
		<g>
			<g>
				<path d="M53.65,26.97v7.74c0,0.59-0.48,1.06-1.06,1.06c-0.59,0-1.07-0.47-1.07-1.06v-7.74c0-0.58,0.48-1.06,1.07-1.06
					C53.17,25.91,53.65,26.39,53.65,26.97z"/>
			</g>
		</g>
		<g>
			<g>
				<circle cx="52.59" cy="40.85" r="1.77"/>
			</g>
		</g>
	</g>
</g>
</svg>
