<?xml version="1.0" encoding="utf-8"?>
<!-- Generator: Adobe Illustrator 27.3.1, SVG Export Plug-In . SVG Version: 6.00 Build 0)  -->
<svg version="1.1" id="Layer_1" xmlns="http://www.w3.org/2000/svg" xmlns:xlink="http://www.w3.org/1999/xlink" x="0px" y="0px"
	 viewBox="0 0 95 95" style="enable-background:new 0 0 95 95;" xml:space="preserve">
<style type="text/css">
	.st0{fill:#FF0000;}
	.st1{fill:none;stroke:#000000;stroke-width:1.1539;stroke-linecap:round;stroke-miterlimit:10;}
	.st2{fill:none;stroke:#000000;stroke-width:1.0546;stroke-linecap:round;stroke-miterlimit:10;}
	.st3{fill:none;stroke:#000000;stroke-width:0.9853;stroke-linecap:round;stroke-miterlimit:10;}
	.st4{fill:none;stroke:#000000;stroke-width:1.0412;stroke-linecap:round;stroke-miterlimit:10;}
</style>
<g>
	<g>
		<g>
			<path d="M69.13,0H25.87c-2.22,0-4.01,1.8-4.01,4.01v86.97c0,2.22,1.8,4.01,4.01,4.01h43.25c2.22,0,4.01-1.8,4.01-4.01V4.01
				C73.14,1.8,71.34,0,69.13,0z M71.83,90.99c0,1.49-1.22,2.71-2.71,2.71H25.87c-1.49,0-2.71-1.22-2.71-2.71V4.01
				c0-1.49,1.22-2.71,2.71-2.71h43.25c1.49,0,2.71,1.22,2.71,2.71V90.99z"/>
		</g>
	</g>
	<g>
		<g>
			<path d="M54.38,5.93H40.62c-0.36,0-0.66-0.29-0.66-0.66c0-0.36,0.29-0.66,0.66-0.66h13.75c0.36,0,0.66,0.29,0.66,0.66
				C55.03,5.63,54.74,5.93,54.38,5.93z"/>
		</g>
	</g>
	<g>
		<g>
			<g>
				<path d="M55.64,29.24H39.36c-2.22,0-4.02,1.8-4.02,4.01v32.42c0,2.21,1.81,4.01,4.02,4.01h16.29c2.22,0,4.02-1.81,4.02-4.01
					V33.25C59.67,31.03,57.86,29.24,55.64,29.24z M58.35,65.67c0,1.49-1.22,2.69-2.71,2.69H39.36c-1.49,0-2.71-1.2-2.71-2.69V33.25
					c0-1.49,1.22-2.71,2.71-2.71h16.29c1.49,0,2.71,1.22,2.71,2.71V65.67z"/>
			</g>
			<g>
				<path class="st0" d="M55.64,30.55H39.36c-1.49,0-2.71,1.22-2.71,2.71v32.42c0,1.49,1.22,2.69,2.71,2.69h16.29
					c1.49,0,2.71-1.2,2.71-2.69V33.25C58.35,31.76,57.13,30.55,55.64,30.55z M55.83,64.74H39.17v-5.8h16.65V64.74z M55.83,56.74
					H39.17v-5.8h16.65V56.74z M55.83,48.72H39.17v-5.8h16.65V48.72z"/>
			</g>
		</g>
		<g>
			<g>
				<path d="M39.17,58.94v5.8h16.65v-5.8H39.17z M54.66,63.56H40.34v-3.44h14.31V63.56z"/>
			</g>
		</g>
		<g>
			<g>
				<path d="M39.17,50.94v5.8h16.65v-5.8H39.17z M54.66,55.55H40.34v-3.44h14.31V55.55z"/>
			</g>
		</g>
		<g>
			<g>
				<path d="M39.17,42.92v5.8h16.65v-5.8H39.17z M54.66,47.55H40.34v-3.44h14.31V47.55z"/>
			</g>
		</g>
		<g>
			<g>
				<path d="M52.1,28.31H42.9c-0.36,0-0.66-0.29-0.66-0.66s0.29-0.66,0.66-0.66h9.21c0.36,0,0.66,0.29,0.66,0.66
					S52.47,28.31,52.1,28.31z"/>
			</g>
		</g>
	</g>
	<g>
		<g>
			<circle cx="58.13" cy="5.27" r="0.67"/>
		</g>
	</g>
</g>
</svg>
