<?xml version="1.0" encoding="utf-8"?>
<!-- Generator: Adobe Illustrator 27.3.1, SVG Export Plug-In . SVG Version: 6.00 Build 0)  -->
<svg version="1.1" id="Layer_1" xmlns="http://www.w3.org/2000/svg" xmlns:xlink="http://www.w3.org/1999/xlink" x="0px" y="0px"
	 viewBox="0 0 95 95" style="enable-background:new 0 0 95 95;" xml:space="preserve">
<style type="text/css">
	.st0{fill:#FF0000;}
	.st1{fill:none;stroke:#000000;stroke-width:1.1539;stroke-linecap:round;stroke-miterlimit:10;}
	.st2{fill:none;stroke:#000000;stroke-width:1.0546;stroke-linecap:round;stroke-miterlimit:10;}
	.st3{fill:none;stroke:#000000;stroke-width:0.9853;stroke-linecap:round;stroke-miterlimit:10;}
	.st4{fill:none;stroke:#000000;stroke-width:1.0412;stroke-linecap:round;stroke-miterlimit:10;}
</style>
<g>
	<g>
		<g>
			<path d="M69.12,0H25.87c-2.21,0-4.01,1.81-4.01,4.01v86.96c0,2.22,1.81,4.02,4.01,4.02h43.25c2.22,0,4.02-1.81,4.02-4.02V4.01
				C73.14,1.81,71.34,0,69.12,0z M71.82,90.98c0,1.5-1.22,2.71-2.71,2.71H25.87c-1.49,0-2.69-1.2-2.69-2.71V4.01
				c0-1.49,1.2-2.69,2.69-2.69h43.25c1.49,0,2.71,1.2,2.71,2.69V90.98z"/>
		</g>
	</g>
	<g>
		<path d="M54.37,5.93H40.62c-0.36,0-0.66-0.29-0.66-0.66c0-0.36,0.29-0.66,0.66-0.66h13.75c0.36,0,0.66,0.29,0.66,0.66
			C55.03,5.64,54.74,5.93,54.37,5.93z"/>
	</g>
	<g>
		<g>
			<circle cx="58.13" cy="5.28" r="0.67"/>
		</g>
	</g>
	<g>
		<g>
			<g>
				<path d="M52.95,33.14h-10.9c-0.36,0-0.66-0.29-0.66-0.66c0-0.36,0.29-0.66,0.66-0.66h10.9c0.36,0,0.66,0.29,0.66,0.66
					C53.6,32.84,53.31,33.14,52.95,33.14z"/>
			</g>
		</g>
		<g>
			<g>
				<path d="M58.54,34.78H36.46c-3,0-5.44,2.44-5.44,5.44v16.29c0,3,2.44,5.44,5.44,5.44h22.07c3,0,5.44-2.44,5.44-5.44V40.23
					C63.98,37.22,61.54,34.78,58.54,34.78z M62.66,56.51c0,2.27-1.85,4.14-4.13,4.14H36.46c-2.28,0-4.14-1.86-4.14-4.14V40.23
					c0-2.27,1.85-4.13,4.14-4.13h22.07c2.27,0,4.13,1.85,4.13,4.13V56.51z"/>
			</g>
			<g>
				<path class="st0" d="M58.54,36.1H36.46c-2.28,0-4.14,1.85-4.14,4.13v16.29c0,2.27,1.85,4.14,4.14,4.14h22.07
					c2.27,0,4.13-1.86,4.13-4.14V40.23C62.66,37.95,60.81,36.1,58.54,36.1z M47.5,55.66c-4.02,0-7.3-3.27-7.3-7.29
					c0-4.02,3.27-7.3,7.3-7.3c4.01,0,7.29,3.27,7.29,7.3C54.79,52.39,51.51,55.66,47.5,55.66z"/>
			</g>
		</g>
		<g>
			<g>
				<path d="M47.5,41.08c-4.02,0-7.3,3.27-7.3,7.3c0,4.01,3.27,7.29,7.3,7.29c4.01,0,7.29-3.27,7.29-7.29
					C54.79,44.35,51.51,41.08,47.5,41.08z M47.5,54.35c-3.3,0-5.98-2.68-5.98-5.98c0-3.3,2.68-5.98,5.98-5.98
					c3.3,0,5.98,2.68,5.98,5.98C53.48,51.67,50.8,54.35,47.5,54.35z"/>
			</g>
		</g>
	</g>
</g>
</svg>
