<?xml version="1.0" encoding="utf-8"?>
<!-- Generator: Adobe Illustrator 27.3.1, SVG Export Plug-In . SVG Version: 6.00 Build 0)  -->
<svg version="1.1" id="Layer_1" xmlns="http://www.w3.org/2000/svg" xmlns:xlink="http://www.w3.org/1999/xlink" x="0px" y="0px"
	 viewBox="0 0 95 95" style="enable-background:new 0 0 95 95;" xml:space="preserve">
<style type="text/css">
	.st0{fill:#FF0000;}
	.st1{fill:none;stroke:#000000;stroke-width:1.1539;stroke-linecap:round;stroke-miterlimit:10;}
	.st2{fill:none;stroke:#000000;stroke-width:1.0546;stroke-linecap:round;stroke-miterlimit:10;}
	.st3{fill:none;stroke:#000000;stroke-width:0.9853;stroke-linecap:round;stroke-miterlimit:10;}
	.st4{fill:none;stroke:#000000;stroke-width:1.0412;stroke-linecap:round;stroke-miterlimit:10;}
</style>
<g>
	<g>
		<g>
			<path d="M58.34,43.16l-8.49,0.27l3.72-18.62L36.88,50.85h7.12l-8.22,19.89L58.34,43.16z M39.28,49.55l11.64-18.16l-2.68,13.41
				l7.27-0.23L40.37,63.06l5.58-13.51H39.28z"/>
		</g>
	</g>
	<g>
		<g>
			<g>
				<path d="M69.12,0H25.88c-2.22,0-4.01,1.81-4.01,4.01v86.96c0,2.22,1.8,4.02,4.01,4.02h43.25c2.22,0,4.01-1.81,4.01-4.02V4.01
					C73.14,1.81,71.34,0,69.12,0z M71.83,90.98c0,1.5-1.22,2.71-2.71,2.71H25.88c-1.49,0-2.71-1.2-2.71-2.71V4.01
					c0-1.49,1.22-2.71,2.71-2.71h43.25c1.49,0,2.71,1.22,2.71,2.71V90.98z"/>
			</g>
			<g>
				<polygon class="st0" points="40.37,63.06 45.95,49.55 39.28,49.55 50.92,31.38 48.23,44.79 55.51,44.57 				"/>
			</g>
		</g>
		<g>
			<g>
				<path d="M54.37,5.93H40.62c-0.36,0-0.66-0.29-0.66-0.66s0.29-0.66,0.66-0.66h13.75c0.36,0,0.66,0.29,0.66,0.66
					S54.74,5.93,54.37,5.93z"/>
			</g>
		</g>
		<g>
			<g>
				<circle cx="58.13" cy="5.28" r="0.67"/>
			</g>
		</g>
	</g>
</g>
</svg>
