<?xml version="1.0" encoding="UTF-8"?>
<svg id="Layer_1" data-name="Layer 1" xmlns="http://www.w3.org/2000/svg" viewBox="0 0 95 95">
  <defs>
    <style>
      .cls-1 {
        fill: red;
      }
    </style>
  </defs>
  <g>
    <path d="m77.7,0H17.29C15.12,0,13.36,1.77,13.36,3.94v87.13c0,2.16,1.77,3.93,3.93,3.93h60.41c2.18,0,3.94-1.77,3.94-3.93V3.94C81.64,1.77,79.88,0,77.7,0Zm2.8,91.07c0,1.54-1.25,2.79-2.8,2.79H17.29c-1.54,0-2.79-1.25-2.79-2.79V3.94c0-1.55,1.25-2.8,2.79-2.8h60.41c1.55,0,2.8,1.25,2.8,2.8v87.13Z"/>
    <path d="m52.53,5.2c0,.23-.19.42-.42.42h-9.22c-.24,0-.43-.19-.43-.42,0-.24.19-.43.43-.43h9.22c.23,0,.42.19.42.43Z"/>
    <path d="m17.17,8.68v77.97h60.64V8.68H17.17Zm59.79,77.12H18.03V9.53h58.93v76.27Z"/>
    <path d="m47.5,88.03c-1.24,0-2.25,1-2.25,2.24s1.01,2.24,2.25,2.24,2.24-1,2.24-2.24-1-2.24-2.24-2.24Zm0,3.92c-.92,0-1.69-.75-1.69-1.67s.76-1.67,1.69-1.67,1.67.75,1.67,1.67-.75,1.67-1.67,1.67Z"/>
  </g>
  <g>
    <path d="m55.05,44.44l-5.75.18,2.5-12.5-11.19,17.46h4.85l-5.5,13.31,15.1-18.45Zm-13.02,4.36l8.2-12.79-1.88,9.42,5.03-.16-10.69,13.06,3.93-9.53h-4.59Z"/>
    <polygon class="cls-1" points="42.68 58.33 46.61 48.8 42.03 48.8 50.22 36.01 48.34 45.42 53.37 45.27 42.68 58.33"/>
  </g>
</svg>