<?xml version="1.0" encoding="utf-8"?>
<!-- Generator: Adobe Illustrator 27.3.1, SVG Export Plug-In . SVG Version: 6.00 Build 0)  -->
<svg version="1.1" id="Layer_1" xmlns="http://www.w3.org/2000/svg" xmlns:xlink="http://www.w3.org/1999/xlink" x="0px" y="0px"
	 viewBox="0 0 95 95" style="enable-background:new 0 0 95 95;" xml:space="preserve">
<style type="text/css">
	.st0{fill:#FF0000;}
</style>
<g>
	<g>
		<g>
			<path d="M83.69,18.59H11.31c-2.08,0-3.77,1.7-3.77,3.78v47.44h79.91V22.37C87.45,20.29,85.77,18.59,83.69,18.59z M8.77,22.37
				c0-1.41,1.14-2.54,2.54-2.54h72.37c1.4,0,2.54,1.13,2.54,2.54v46.21H8.77V22.37z"/>
			<path class="st0" d="M83.69,19.83H11.31c-1.4,0-2.54,1.13-2.54,2.54v46.21h77.45V22.37C86.23,20.96,85.08,19.83,83.69,19.83z
				 M84.83,66.6H10.17V24.51c0-2.05,1.67-3.71,3.71-3.71h67.23c2.05,0,3.71,1.67,3.71,3.71V66.6z"/>
		</g>
		<g>
			<path d="M81.11,20.79H13.89c-2.05,0-3.71,1.67-3.71,3.71V66.6h74.66V24.51C84.83,22.46,83.16,20.79,81.11,20.79z M83.71,65.48
				H11.29V24.51c0-1.43,1.16-2.59,2.59-2.59h67.23c1.43,0,2.59,1.16,2.59,2.59V65.48z"/>
		</g>
		<g>
			<path d="M91.31,76.41H3.69c-2.03,0-3.68-1.65-3.68-3.68v-4.05H95v4.05C94.99,74.75,93.35,76.41,91.31,76.41z M1.06,69.72v2.99
				c0,1.45,1.17,2.63,2.63,2.63h87.62c1.45,0,2.63-1.17,2.63-2.63v-2.99H1.06z"/>
		</g>
		<g>
			<g>
				<path d="M55.08,73.1H42.16c-0.31,0-0.56-0.25-0.56-0.56c0-0.31,0.25-0.56,0.56-0.56h12.92c0.31,0,0.56,0.25,0.56,0.56
					C55.63,72.85,55.39,73.1,55.08,73.1z"/>
			</g>
			<g>
				<ellipse cx="58.6" cy="72.54" rx="0.63" ry="0.51"/>
			</g>
		</g>
	</g>
	<g>
		<path d="M53.51,43.31c-1.36-2.78-3.34-5.05-5.5-7.18c-0.36-0.36-0.76-0.28-1.1,0.06c-1.92,1.92-3.71,3.95-5.03,6.35
			c-0.73,1.32-1.13,2.7-0.9,4.25c0.59,3.87,3.91,6.13,6.51,5.89c0.47-0.01,0.94,0,1.41-0.11C52.99,51.63,55.2,46.77,53.51,43.31z
			 M48.01,51.31c-2.46,0.29-4.84-1.47-5.51-4.06c-0.31-1.21-0.23-2.36,0.31-3.48c1.12-2.28,2.76-4.16,4.47-5.99
			c0.16-0.17,0.26-0.16,0.41,0c1.78,1.9,3.51,3.84,4.59,6.26c0.25,0.56,0.41,1.14,0.42,1.59C52.66,48.64,50.65,51,48.01,51.31z"/>
		<path d="M44.79,45.4c-0.03-0.37-0.33-0.57-0.68-0.57c-0.38,0.01-0.67,0.26-0.67,0.64c0.01,1.4,0.49,2.63,1.49,3.63
			c0.22,0.22,0.52,0.2,0.8,0.09c0.26-0.11,0.35-0.33,0.36-0.64c-0.03-0.09-0.04-0.25-0.13-0.33C45.25,47.41,44.87,46.48,44.79,45.4z
			"/>
	</g>
</g>
</svg>
