<?xml version="1.0" encoding="utf-8"?>
<!-- Generator: Adobe Illustrator 27.3.1, SVG Export Plug-In . SVG Version: 6.00 Build 0)  -->
<svg version="1.1" id="Layer_1" xmlns="http://www.w3.org/2000/svg" xmlns:xlink="http://www.w3.org/1999/xlink" x="0px" y="0px"
	 viewBox="0 0 95 95" style="enable-background:new 0 0 95 95;" xml:space="preserve">
<style type="text/css">
	.st0{fill:#FF0000;}
</style>
<g>
	<g>
		<g>
			<g>
				<path d="M52.72,32.62H42.28c-1.39,0-2.52,1.13-2.52,2.52V55.9c0,1.39,1.13,2.51,2.52,2.51h10.44c1.39,0,2.51-1.13,2.51-2.51
					V35.14C55.24,33.74,54.11,32.62,52.72,32.62z M54.5,55.89c0,0.98-0.8,1.78-1.78,1.78H42.28c-0.98,0-1.79-0.8-1.79-1.78V35.14
					c0-0.98,0.81-1.79,1.79-1.79h10.44c0.98,0,1.78,0.81,1.78,1.79V55.89z"/>
			</g>
		</g>
		<g>
			<g>
				<path class="st0" d="M52.72,33.35H42.28c-0.98,0-1.79,0.81-1.79,1.79V55.9c0,0.98,0.81,1.78,1.79,1.78h10.44
					c0.98,0,1.78-0.8,1.78-1.78V35.14C54.5,34.15,53.7,33.35,52.72,33.35z M52.83,55.28H42.18V51.6h10.64V55.28z M52.83,50.16H42.18
					v-3.69h10.64V50.16z M52.83,45.03H42.18v-3.68h10.64V45.03z"/>
			</g>
		</g>
	</g>
	<g>
		<g>
			<g>
				<path d="M42.18,51.6v3.68h10.64V51.6H42.18z M52.1,54.56h-9.19v-2.23h9.19V54.56z"/>
			</g>
		</g>
	</g>
	<g>
		<g>
			<g>
				<path d="M42.18,46.47v3.69h10.64v-3.69H42.18z M52.1,49.43h-9.19V47.2h9.19V49.43z"/>
			</g>
		</g>
	</g>
	<g>
		<g>
			<g>
				<path d="M42.18,41.34v3.68h10.64v-3.68H42.18z M52.1,44.3h-9.19v-2.23h9.19V44.3z"/>
			</g>
		</g>
	</g>
	<g>
		<g>
			<g>
				<path d="M50.45,31.92h-5.89c-0.2,0-0.36-0.16-0.36-0.36s0.16-0.36,0.36-0.36h5.89c0.2,0,0.36,0.16,0.36,0.36
					S50.65,31.92,50.45,31.92z"/>
			</g>
		</g>
	</g>
</g>
<g>
	<g>
		<path d="M87.45,69.78H7.54V22.33c0-2.08,1.69-3.78,3.78-3.78h72.36c2.08,0,3.78,1.69,3.78,3.78V69.78z M8.77,68.54h77.44V22.33
			c0-1.4-1.14-2.54-2.54-2.54H11.32c-1.4,0-2.54,1.14-2.54,2.54V68.54z"/>
	</g>
	<g>
		<path d="M84.82,66.55H10.17V24.47c0-2.05,1.67-3.72,3.72-3.72H81.1c2.05,0,3.72,1.67,3.72,3.72V66.55z M11.29,65.43H83.7V24.47
			c0-1.43-1.16-2.6-2.6-2.6H13.89c-1.43,0-2.6,1.16-2.6,2.6V65.43z"/>
	</g>
	<g>
		<path d="M91.32,76.36H3.69c-2.03,0-3.69-1.65-3.69-3.68v-4.04H95v4.04C95,74.7,93.35,76.36,91.32,76.36z M1.06,69.69v2.99
			c0,1.45,1.18,2.63,2.63,2.63h87.62c1.45,0,2.63-1.18,2.63-2.63v-2.99H1.06z"/>
	</g>
	<g>
		<g>
			<path d="M55.08,73.05H42.16c-0.31,0-0.56-0.25-0.56-0.56c0-0.31,0.25-0.56,0.56-0.56h12.91c0.31,0,0.56,0.25,0.56,0.56
				C55.63,72.8,55.38,73.05,55.08,73.05z"/>
		</g>
		<g>
			<ellipse cx="58.6" cy="72.49" rx="0.63" ry="0.51"/>
		</g>
	</g>
</g>
</svg>
