<?xml version="1.0" encoding="utf-8"?>
<!-- Generator: Adobe Illustrator 27.3.1, SVG Export Plug-In . SVG Version: 6.00 Build 0)  -->
<svg version="1.1" id="Layer_1" xmlns="http://www.w3.org/2000/svg" xmlns:xlink="http://www.w3.org/1999/xlink" x="0px" y="0px"
	 viewBox="0 0 95 95" style="enable-background:new 0 0 95 95;" xml:space="preserve">
<style type="text/css">
	.st0{fill:#FF0000;}
</style>
<g>
	<g>
		<path d="M86.38,23.94c-0.23-0.26-0.52-0.48-0.81-0.66l-0.63,0.84c0.31,0.18,0.58,0.41,0.8,0.68c0.36,0.45,0.59,1.01,0.59,1.64
			v9.45l1.05-0.43v-9.02C87.37,25.48,86.98,24.6,86.38,23.94z M86.32,64.51v8.24H8.69v-46.3c0-1.45,1.17-2.63,2.63-2.63h4.95v-1.06
			h-4.95c-2.03,0-3.68,1.65-3.68,3.68V73.8h79.74v-9.29H86.32z"/>
	</g>
	<g>
		<path d="M83.74,64.51v5.07H11.26v-41c0-1.44,1.18-2.63,2.64-2.63h2.37v-1.05H13.9c-2.03,0-3.68,1.64-3.68,3.67v42.06h74.57v-6.13
			C84.78,64.51,83.74,64.51,83.74,64.51z M84.29,26.74c-0.18-0.32-0.42-0.6-0.68-0.84l-0.63,0.84c0.27,0.27,0.47,0.6,0.6,0.96
			c0.11,0.28,0.16,0.58,0.16,0.89v8.37l1.05-0.44v-7.93C84.78,27.91,84.61,27.28,84.29,26.74z"/>
	</g>
	<g>
		<path d="M93.9,28.81v35.71H16.27V56.8l-1.05,0.47v8.29h79.73V29.6L93.9,28.81z M91.27,14.53H18.89c-2.03,0-3.67,1.65-3.67,3.68
			v33.93h1.05V18.21c0-1.45,1.18-2.63,2.63-2.63h72.38c1.44,0,2.63,1.17,2.63,2.63v4.34L94.74,22l0.2-0.13v-3.66
			C94.95,16.18,93.3,14.53,91.27,14.53z"/>
	</g>
	<g>
		<path d="M0.01,72.76v4.03c0,2.03,1.65,3.68,3.68,3.68h87.62c2.03,0,3.68-1.65,3.68-3.68v-4.03H0.01z M93.94,76.79
			c0,1.45-1.17,2.64-2.63,2.64H3.69c-1.45,0-2.63-1.18-2.63-2.64V73.8h92.88V76.79z"/>
	</g>
	<g>
		<g>
			<path d="M55.08,77.14H42.16c-0.29,0-0.52-0.23-0.52-0.52s0.23-0.52,0.52-0.52h12.92c0.29,0,0.52,0.23,0.52,0.52
				S55.37,77.14,55.08,77.14z"/>
		</g>
		<g>
			<ellipse cx="58.6" cy="76.61" rx="0.63" ry="0.51"/>
		</g>
	</g>
	<g>
		<path d="M94.18,21.15l-0.28,0.18l-2.18,1.41l-5.1-0.88l-1.06,1.42l-0.63,0.84l-1.32,1.77l-0.63,0.84l-3.68,4.94L66.03,29.4
			l-8.3,10.87l-28.9-0.75L18.09,51.1h-2.87v1.05h3.33l10.73-11.56l28.95,0.75l8.25-10.79l13.28,2.29l3.82-5.13l0.72-0.96l1.44-1.93
			l0.64-0.86l0.69-0.93l4.87,0.83h0.02l1.25-0.81l0.69-0.46v-0.02L94.74,22L94.18,21.15z M93.9,28.81v-0.03l-2.26-1.67l-3.05,6.71
			l-1.22,0.5l-1.05,0.43l-1.54,0.62l-1.05,0.44l-8.05,3.29l-6.49,8.16l-20.87,0.51l-5.19,8.13l-15.67-3.61l-10.9,4.37l-0.09,0.04
			l-0.22,0.09v0.01l-1.05,0.47v1.08l1.05-0.42l11.3-4.54l16.05,3.7l5.29-8.29l20.8-0.51l6.62-8.32l7.4-3.02l1.05-0.44l1.54-0.62
			l1.05-0.43l2.01-0.82l2.68-5.92l1.85,1.37l1.05,0.77V29.6L93.9,28.81z"/>
		<path class="st0" d="M93.9,18.21v3.12l-2.18,1.41l-5.1-0.88l-1.06,1.42l-0.63,0.84l-1.32,1.77l-0.63,0.84l-3.68,4.94L66.03,29.4
			l-8.3,10.87l-28.9-0.75L18.09,51.1h-1.83V18.21c0-1.45,1.18-2.63,2.63-2.63h72.38C92.72,15.58,93.9,16.76,93.9,18.21z"/>
		<polygon class="st0" points="93.9,30.09 93.9,64.51 16.27,64.51 16.27,57.93 27.57,53.39 43.62,57.1 48.92,48.8 69.72,48.29 
			76.34,39.97 83.74,36.95 84.78,36.52 86.32,35.9 87.37,35.47 89.37,34.65 92.05,28.72 		"/>
	</g>
	<polygon points="16.49,56.7 16.27,56.8 16.27,56.79 	"/>
	<polygon points="91.64,27.11 93.9,28.78 93.9,28.81 	"/>
	<polygon points="91.93,23.85 93.9,22.55 93.9,22.58 93.21,23.03 91.96,23.85 	"/>
</g>
</svg>
