<?xml version="1.0" encoding="utf-8"?>
<!-- Generator: Adobe Illustrator 27.3.1, SVG Export Plug-In . SVG Version: 6.00 Build 0)  -->
<svg version="1.1" id="Layer_1" xmlns="http://www.w3.org/2000/svg" xmlns:xlink="http://www.w3.org/1999/xlink" x="0px" y="0px"
	 viewBox="0 0 95 95" style="enable-background:new 0 0 95 95;" xml:space="preserve">
<style type="text/css">
	.st0{fill:#FF0000;}
</style>
<g>
	<path d="M83.69,15.12H11.31c-2.08,0-3.77,1.7-3.77,3.78v47.45h79.92V18.9C87.46,16.82,85.78,15.12,83.69,15.12z M8.77,18.9
		c0-1.41,1.14-2.54,2.54-2.54h72.39c1.4,0,2.54,1.13,2.54,2.54v46.22H8.77V18.9z"/>
	<g>
		<path d="M81.12,17.32H13.88c-2.05,0-3.72,1.67-3.72,3.72v42.1h74.67v-42.1C84.84,18.98,83.17,17.32,81.12,17.32z M83.71,62.01
			H11.29V21.03c0-1.43,1.16-2.59,2.59-2.59h67.24c1.43,0,2.59,1.16,2.59,2.59V62.01z"/>
	</g>
	<g>
		<g>
			<path d="M0,72.15v4.05c0,2.03,1.64,3.68,3.68,3.68h87.63c2.04,0,3.68-1.65,3.68-3.68v-4.05H0z M93.95,76.2
				c0,1.45-1.19,2.63-2.64,2.63H3.68c-1.45,0-2.64-1.17-2.64-2.63v-2.99h92.91C93.95,73.21,93.95,76.2,93.95,76.2z"/>
			<path class="st0" d="M1.05,73.21v2.99c0,1.45,1.19,2.63,2.64,2.63h87.63c1.45,0,2.64-1.17,2.64-2.63v-2.99H1.05z M55.08,76.57
				H42.16c-0.3,0-0.56-0.25-0.56-0.56c0-0.31,0.26-0.56,0.56-0.56h12.92c0.31,0,0.56,0.25,0.56,0.56
				C55.64,76.33,55.39,76.57,55.08,76.57z M58.6,76.53c-0.34,0-0.63-0.22-0.63-0.51s0.29-0.51,0.63-0.51c0.35,0,0.64,0.22,0.64,0.51
				S58.96,76.53,58.6,76.53z"/>
		</g>
		<g>
			<g>
				<path d="M55.64,76.02c0,0.31-0.25,0.56-0.56,0.56H42.16c-0.3,0-0.56-0.25-0.56-0.56c0-0.31,0.26-0.56,0.56-0.56h12.92
					C55.39,75.46,55.64,75.71,55.64,76.02z"/>
			</g>
			<g>
				<path d="M59.24,76.02c0,0.29-0.29,0.51-0.64,0.51c-0.34,0-0.63-0.22-0.63-0.51s0.29-0.51,0.63-0.51
					C58.96,75.5,59.24,75.73,59.24,76.02z"/>
			</g>
		</g>
	</g>
</g>
</svg>
