<?xml version="1.0" encoding="utf-8"?>
<!-- Generator: Adobe Illustrator 27.3.1, SVG Export Plug-In . SVG Version: 6.00 Build 0)  -->
<svg version="1.1" id="Layer_1" xmlns="http://www.w3.org/2000/svg" xmlns:xlink="http://www.w3.org/1999/xlink" x="0px" y="0px"
	 viewBox="0 0 95 95" style="enable-background:new 0 0 95 95;" xml:space="preserve">
<style type="text/css">
	.st0{fill:#FF0000;}
</style>
<g>
	<g>
		<g>
			<path d="M54.74,40.71l-5.52,0.17l2.39-11.99L40.88,45.65h4.65l-5.28,12.77L54.74,40.71z M42.25,44.9l7.86-12.26l-1.8,9.03
				l4.82-0.15L42.87,54.05l3.77-9.14h-4.39V44.9z"/>
		</g>
		<g>
			<polygon class="st0" points="42.88,54.05 46.65,44.9 42.25,44.9 50.1,32.63 48.3,41.66 53.12,41.51 			"/>
		</g>
	</g>
	<g>
		<g>
			<path d="M87.45,69.78H7.54V22.33c0-2.08,1.69-3.78,3.78-3.78h72.36c2.08,0,3.78,1.69,3.78,3.78V69.78z M8.77,68.54h77.44V22.33
				c0-1.4-1.14-2.54-2.54-2.54H11.32c-1.4,0-2.54,1.14-2.54,2.54V68.54z"/>
		</g>
		<g>
			<path d="M84.82,66.55H10.17V24.47c0-2.05,1.67-3.72,3.72-3.72H81.1c2.05,0,3.72,1.67,3.72,3.72V66.55z M11.29,65.43H83.7V24.47
				c0-1.43-1.16-2.6-2.6-2.6H13.89c-1.43,0-2.6,1.16-2.6,2.6V65.43z"/>
		</g>
		<g>
			<path d="M91.32,76.36H3.69c-2.03,0-3.69-1.65-3.69-3.68v-4.04H95v4.04C95,74.7,93.35,76.36,91.32,76.36z M1.06,69.69v2.99
				c0,1.45,1.18,2.63,2.63,2.63h87.62c1.45,0,2.63-1.18,2.63-2.63v-2.99H1.06z"/>
		</g>
		<g>
			<g>
				<path d="M55.08,73.05H42.16c-0.31,0-0.56-0.25-0.56-0.56c0-0.31,0.25-0.56,0.56-0.56h12.91c0.31,0,0.56,0.25,0.56,0.56
					C55.63,72.8,55.38,73.05,55.08,73.05z"/>
			</g>
			<g>
				<ellipse cx="58.6" cy="72.49" rx="0.63" ry="0.51"/>
			</g>
		</g>
	</g>
</g>
</svg>
