<?xml version="1.0" encoding="utf-8"?>
<!-- Generator: Adobe Illustrator 27.3.1, SVG Export Plug-In . SVG Version: 6.00 Build 0)  -->
<svg version="1.1" id="Layer_1" xmlns="http://www.w3.org/2000/svg" xmlns:xlink="http://www.w3.org/1999/xlink" x="0px" y="0px"
	 viewBox="0 0 95 95" style="enable-background:new 0 0 95 95;" xml:space="preserve">
<style type="text/css">
	.st0{fill:#FF0000;}
	.st1{fill:none;stroke:#000000;stroke-width:1.1539;stroke-linecap:round;stroke-miterlimit:10;}
	.st2{fill:none;stroke:#000000;stroke-width:1.0546;stroke-linecap:round;stroke-miterlimit:10;}
	.st3{fill:none;stroke:#000000;stroke-width:0.9853;stroke-linecap:round;stroke-miterlimit:10;}
	.st4{fill:none;stroke:#000000;stroke-width:1.0412;stroke-linecap:round;stroke-miterlimit:10;}
</style>
<g>
	<g>
		<g>
			<g>
				<path d="M69.13,0H25.87c-2.22,0-4.01,1.8-4.01,4.01v86.97c0,2.22,1.8,4.01,4.01,4.01h43.25c2.22,0,4.01-1.8,4.01-4.01V4.01
					C73.14,1.8,71.34,0,69.13,0z M71.83,90.99c0,1.49-1.22,2.71-2.71,2.71H25.87c-1.49,0-2.71-1.22-2.71-2.71V4.01
					c0-1.49,1.22-2.71,2.71-2.71h43.25c1.49,0,2.71,1.22,2.71,2.71V90.99z"/>
			</g>
		</g>
		<g>
			<g>
				<path d="M54.38,5.93H40.62c-0.36,0-0.66-0.29-0.66-0.66c0-0.36,0.29-0.66,0.66-0.66h13.75c0.36,0,0.66,0.29,0.66,0.66
					C55.03,5.63,54.74,5.93,54.38,5.93z"/>
			</g>
		</g>
		<g>
			<g>
				<circle cx="58.13" cy="5.27" r="0.67"/>
			</g>
		</g>
	</g>
	<g>
		<g>
			<g>
				<path d="M36.64,48.86c-0.1-0.06-0.22-0.09-0.33-0.13c-0.18-0.06-0.38-0.08-0.58-0.08h-0.27c-0.15,0-0.3,0.01-0.43,0.05
					c-1.01,0.19-1.77,1.09-1.77,2.16v6.56c0,1.22,0.99,2.21,2.21,2.21h0.27c0.32,0,0.64-0.07,0.91-0.2c0.76-0.34,1.3-1.11,1.3-2
					v-6.56C37.93,49.97,37.4,49.2,36.64,48.86z M35.73,58.32h-0.27c-0.49,0-0.9-0.41-0.9-0.9v-6.56c0-0.49,0.41-0.9,0.9-0.9h0.27
					c0.49,0,0.9,0.41,0.9,0.9v6.56C36.63,57.91,36.22,58.32,35.73,58.32z"/>
			</g>
			<g>
				<path class="st0" d="M36.63,50.86v6.56c0,0.49-0.41,0.9-0.9,0.9h-0.27c-0.49,0-0.9-0.41-0.9-0.9v-6.56c0-0.49,0.41-0.9,0.9-0.9
					h0.27C36.22,49.96,36.63,50.37,36.63,50.86z"/>
			</g>
		</g>
		<g>
			<g>
				<path d="M39.1,46.85h-0.27c-1.15,0-2.1,0.89-2.19,2.01c-0.01,0.07-0.01,0.13-0.01,0.19v10.17c0,0.07,0,0.13,0.01,0.19
					c0.09,1.13,1.05,2.01,2.19,2.01h0.27c1.22,0,2.21-0.99,2.21-2.21V49.05C41.31,47.84,40.32,46.85,39.1,46.85z M40,59.23
					c0,0.49-0.41,0.9-0.9,0.9h-0.27c-0.5,0-0.9-0.41-0.9-0.9V49.05c0-0.49,0.4-0.9,0.9-0.9h0.27c0.49,0,0.9,0.41,0.9,0.9V59.23z"/>
			</g>
			<g>
				<path class="st0" d="M40,49.05v10.17c0,0.49-0.41,0.9-0.9,0.9h-0.27c-0.5,0-0.9-0.41-0.9-0.9V49.05c0-0.49,0.4-0.9,0.9-0.9h0.27
					C39.59,48.15,40,48.56,40,49.05z"/>
			</g>
		</g>
		<g>
			<g>
				<path d="M60,48.7c-0.15-0.03-0.3-0.05-0.45-0.05h-0.27c-0.2,0-0.41,0.02-0.59,0.08c-0.11,0.03-0.22,0.07-0.32,0.11
					c-0.76,0.34-1.3,1.11-1.3,2.01v6.56c0,0.9,0.53,1.67,1.3,2.01c0.28,0.13,0.58,0.19,0.91,0.19h0.27c1.22,0,2.21-0.99,2.21-2.21
					v-6.56C61.75,49.8,61,48.92,60,48.7z M60.44,57.42c0,0.49-0.4,0.9-0.9,0.9h-0.27c-0.49,0-0.9-0.41-0.9-0.9v-6.56
					c0-0.49,0.41-0.9,0.9-0.9h0.27c0.5,0,0.9,0.41,0.9,0.9V57.42z"/>
			</g>
			<g>
				<path class="st0" d="M60.44,50.86v6.56c0,0.49-0.4,0.9-0.9,0.9h-0.27c-0.49,0-0.9-0.41-0.9-0.9v-6.56c0-0.49,0.41-0.9,0.9-0.9
					h0.27C60.04,49.96,60.44,50.37,60.44,50.86z"/>
			</g>
		</g>
		<g>
			<g>
				<path d="M58.36,48.85c-0.1-1.13-1.05-2-2.19-2h-0.26c-1.23,0-2.22,0.99-2.22,2.21v10.17c0,1.22,0.99,2.21,2.22,2.21h0.26
					c1.15,0,2.09-0.88,2.19-2c0.01-0.07,0.01-0.14,0.01-0.2V49.05C58.37,48.98,58.37,48.92,58.36,48.85z M57.07,59.23
					c0,0.49-0.4,0.9-0.9,0.9h-0.26c-0.5,0-0.9-0.41-0.9-0.9V49.05c0-0.49,0.4-0.9,0.9-0.9h0.26c0.5,0,0.9,0.41,0.9,0.9V59.23z"/>
			</g>
			<g>
				<path class="st0" d="M57.07,49.05v10.17c0,0.49-0.4,0.9-0.9,0.9h-0.26c-0.5,0-0.9-0.41-0.9-0.9V49.05c0-0.49,0.4-0.9,0.9-0.9
					h0.26C56.67,48.15,57.07,48.56,57.07,49.05z"/>
			</g>
		</g>
		<g>
			<g>
				<path d="M59.34,49.53c-0.36,0-0.66-0.29-0.66-0.66v-2.82c0-6.17-5.02-11.18-11.18-11.18c-6.17,0-11.18,5.02-11.18,11.18v2.52
					c0,0.36-0.29,0.66-0.66,0.66c-0.36,0-0.66-0.29-0.66-0.66v-2.52c0-6.89,5.61-12.49,12.49-12.49s12.49,5.6,12.49,12.49v2.82
					C59.99,49.24,59.7,49.53,59.34,49.53z"/>
			</g>
		</g>
	</g>
</g>
</svg>
