<?xml version="1.0" encoding="utf-8"?>
<!-- Generator: Adobe Illustrator 27.3.1, SVG Export Plug-In . SVG Version: 6.00 Build 0)  -->
<svg version="1.1" id="Layer_1" xmlns="http://www.w3.org/2000/svg" xmlns:xlink="http://www.w3.org/1999/xlink" x="0px" y="0px"
	 viewBox="0 0 95 95" style="enable-background:new 0 0 95 95;" xml:space="preserve">
<style type="text/css">
	.st0{fill:#FF0000;}
	.st1{fill:none;stroke:#000000;stroke-width:1.1539;stroke-linecap:round;stroke-miterlimit:10;}
	.st2{fill:none;stroke:#000000;stroke-width:1.0546;stroke-linecap:round;stroke-miterlimit:10;}
	.st3{fill:none;stroke:#000000;stroke-width:0.9853;stroke-linecap:round;stroke-miterlimit:10;}
	.st4{fill:none;stroke:#000000;stroke-width:1.0412;stroke-linecap:round;stroke-miterlimit:10;}
</style>
<g>
	<g>
		<path d="M69.13,0H25.88c-2.22,0-4.02,1.8-4.02,4.01v86.96c0,2.22,1.81,4.02,4.02,4.02h43.25c2.21,0,4.01-1.81,4.01-4.02V4.01
			C73.14,1.8,71.34,0,69.13,0z M71.82,90.98c0,1.49-1.2,2.71-2.69,2.71H25.88c-1.49,0-2.71-1.22-2.71-2.71V4.01
			c0-1.49,1.22-2.71,2.71-2.71h43.25c1.49,0,2.69,1.22,2.69,2.71V90.98z"/>
	</g>
	<g>
		<path d="M40.63,5.93h13.75c0.36,0,0.66-0.29,0.66-0.66c0-0.36-0.29-0.66-0.66-0.66H40.63c-0.36,0-0.66,0.29-0.66,0.66
			C39.97,5.64,40.26,5.93,40.63,5.93z"/>
	</g>
	<g>
		<path d="M58.13,5.95c0.37,0,0.67-0.3,0.67-0.67c0-0.37-0.3-0.67-0.67-0.67c-0.37,0-0.67,0.3-0.67,0.67
			C57.46,5.65,57.76,5.95,58.13,5.95z"/>
	</g>
	<g>
		<path d="M53.01,36.4h-8.38c-0.09,0-0.18-0.01-0.27,0H30.39c-1.64,0-2.66,1.02-2.66,2.66v14.71c0,3.76,0,7.51,0.01,11.26
			c0,1.23,0.68,2.14,1.85,2.48c0.05,0.02,0.11,0,0.15,0.07h23.81c0.02,0,0.02-0.03,0.03-0.03c1.35-0.33,2.03-1.22,2.03-2.6V39.02
			C55.63,37.43,54.6,36.4,53.01,36.4z M54.42,64.98c0,0.88-0.51,1.39-1.38,1.39H30.33c-0.88,0-1.36-0.51-1.36-1.39V39
			c0-0.9,0.49-1.39,1.39-1.39h22.68c0.9,0,1.4,0.49,1.4,1.4V64.98z"/>
	</g>
	<g>
		<path class="st0" d="M53.02,37.61H30.35c-0.9,0-1.39,0.49-1.39,1.39v25.98c0,0.88,0.49,1.39,1.36,1.39h22.72
			c0.86,0,1.38-0.51,1.38-1.39V39.01C54.42,38.1,53.92,37.61,53.02,37.61z M40.66,60.39c0.48,0,0.74,0.23,0.73,0.63
			c0,0.38-0.26,0.59-0.7,0.59h-4.35c-0.43,0-0.73-0.24-0.73-0.59c0-0.38,0.28-0.63,0.74-0.63H40.66z M39.15,58.33
			c0-0.32,0.24-0.59,0.58-0.61c0.18-0.01,0.36,0,0.55,0c0.18,0,0.36-0.01,0.56,0c0.32,0.02,0.56,0.27,0.56,0.59
			c0.01,0.34-0.23,0.6-0.57,0.63h-1.09C39.4,58.91,39.15,58.65,39.15,58.33z M35.5,58.93h-3.94c-0.44,0-0.72-0.24-0.72-0.61
			c0-0.36,0.27-0.6,0.73-0.6h3.94c0.45,0,0.7,0.23,0.7,0.61C36.21,58.71,35.95,58.93,35.5,58.93z M31.45,60.39h1.34
			c0.38,0.01,0.63,0.27,0.61,0.61c0,0.35-0.24,0.59-0.61,0.6c-0.22,0.01-0.42,0-0.65,0c-0.23,0-0.47,0.01-0.69,0
			c-0.35-0.01-0.6-0.26-0.61-0.59C30.84,60.67,31.09,60.4,31.45,60.39z M40.83,64.29c-0.19,0.02-0.38,0.01-0.57,0.01h-8.54
			c-0.09,0-0.18,0-0.27-0.01c-0.36-0.02-0.63-0.27-0.61-0.63c0.01-0.33,0.26-0.57,0.61-0.58c0.4-0.02,0.8-0.01,1.19-0.01h3.47
			c1.52,0,3.05,0.01,4.57,0c0.26,0,0.48,0.07,0.63,0.3C41.54,63.75,41.29,64.25,40.83,64.29z M43.14,50.09
			c-0.06,0.99-0.07,1-1.02,1.05c-0.14,0-0.19,0.02-0.18,0.18c0.01,0.23,0.01,0.47,0,0.69c-0.02,0.36-0.28,0.63-0.61,0.63
			c-0.33,0-0.59-0.27-0.6-0.63c-0.01-0.23-0.01-0.45,0-0.68c0.01-0.15-0.03-0.2-0.2-0.19h-1.4c-0.18-0.01-0.22,0.06-0.2,0.23v1.76
			c-0.02,0.39-0.27,0.63-0.6,0.63c-0.34,0-0.6-0.25-0.61-0.63c-0.01-0.58-0.01-1.16,0-1.74c0-0.22-0.06-0.26-0.27-0.25
			c-0.42,0-0.84,0.01-1.27-0.01c-0.23-0.01-0.27,0.07-0.26,0.27c0.02,0.22,0.02,0.43,0,0.64c-0.01,0.35-0.28,0.6-0.6,0.6
			c-0.34,0-0.59-0.26-0.6-0.63c-0.01-0.23-0.01-0.45,0-0.67c0.01-0.16-0.02-0.24-0.2-0.2h-0.11c-0.73,0-0.91-0.17-0.89-0.9
			c0.01-0.27-0.07-0.36-0.33-0.32c-0.19,0.01-0.39,0-0.59,0c-0.33-0.02-0.6-0.28-0.6-0.6c0-0.32,0.25-0.59,0.59-0.61
			c0.25-0.01,0.49-0.01,0.73,0c0.14,0,0.2-0.02,0.19-0.18c-0.01-0.48-0.01-0.95,0-1.43c0.01-0.18-0.07-0.19-0.2-0.19
			c-0.56,0.01-1.13,0.01-1.68,0.01c-0.25,0-0.49-0.06-0.64-0.28c-0.26-0.41,0.01-0.91,0.51-0.93c0.58-0.02,1.16-0.02,1.74,0
			c0.24,0.01,0.28-0.07,0.27-0.28c-0.01-0.43-0.01-0.88,0-1.32c0.01-0.17-0.05-0.22-0.22-0.2c-0.23,0.01-0.45,0.01-0.67,0
			c-0.35-0.02-0.63-0.28-0.63-0.61c0-0.34,0.28-0.59,0.64-0.6c0.23-0.01,0.44-0.01,0.67,0c0.16,0.01,0.23-0.03,0.2-0.2
			c-0.01-0.09,0-0.2,0-0.3c0.01-0.48,0.23-0.7,0.72-0.72c0.5,0,0.49,0,0.5-0.5c0-0.14-0.01-0.27,0-0.41
			c0.02-0.34,0.27-0.59,0.59-0.6c0.32,0,0.59,0.24,0.61,0.57c0.02,0.26,0.02,0.51,0,0.76c0,0.15,0.05,0.19,0.19,0.19
			c0.48-0.01,0.95-0.01,1.43,0c0.16,0,0.18-0.06,0.18-0.19v-1.74c0-0.31,0.1-0.53,0.4-0.66c0.4-0.16,0.8,0.13,0.82,0.58
			c0.01,0.58,0,1.16,0,1.74c-0.01,0.2,0.05,0.27,0.26,0.27c0.44-0.02,0.9-0.01,1.33,0c0.16,0,0.23-0.03,0.22-0.2
			c-0.02-0.23-0.01-0.47,0-0.69c0.02-0.36,0.3-0.64,0.63-0.63c0.32,0.01,0.57,0.27,0.59,0.63c0.01,0.22,0.01,0.44-0.01,0.67
			c-0.01,0.19,0.07,0.24,0.25,0.23c0.1-0.02,0.19-0.01,0.3-0.01c0.42,0.01,0.66,0.25,0.68,0.67c0.01,0.55,0.01,0.55,0.58,0.55
			c0.1,0,0.22-0.01,0.33,0c0.33,0.02,0.58,0.27,0.59,0.58c0.01,0.32-0.23,0.6-0.58,0.64c-0.24,0.01-0.49,0.01-0.73,0
			c-0.16-0.01-0.2,0.05-0.2,0.19c0.01,0.47,0.02,0.92,0,1.38c-0.01,0.18,0.05,0.24,0.24,0.24c0.58-0.01,1.18-0.01,1.76,0
			c0.28,0,0.49,0.13,0.59,0.4c0.09,0.24,0.02,0.44-0.14,0.61c-0.16,0.18-0.38,0.2-0.59,0.2c-0.55,0-1.09,0-1.65-0.01
			c-0.16,0-0.22,0.03-0.22,0.23c0.01,0.47,0.01,0.93,0,1.4c0,0.14,0.05,0.18,0.19,0.18c0.23-0.01,0.47-0.01,0.69,0
			c0.36,0.01,0.64,0.28,0.63,0.61c0,0.34-0.27,0.59-0.65,0.6h-0.69C43.17,49.91,43.15,49.97,43.14,50.09z M47.65,63.53
			c0,0.55-0.2,0.76-0.75,0.77c-0.73,0-1.44,0-2.18-0.01c-0.48,0-0.72-0.23-0.72-0.7v-9.14c0-0.49,0.23-0.7,0.7-0.7
			c0.74-0.01,1.47-0.01,2.19,0c0.56,0,0.75,0.2,0.75,0.75V63.53z M52.52,63.53c0,0.55-0.2,0.76-0.75,0.77c-0.73,0-1.45,0-2.18-0.01
			c-0.49,0-0.72-0.23-0.72-0.7v-9.14c0-0.49,0.22-0.7,0.7-0.7c0.73-0.01,1.47-0.01,2.19,0c0.55,0,0.75,0.2,0.75,0.75V63.53z
			 M51.82,49.92H48.3c-0.43,0-0.69-0.23-0.7-0.6c0-0.36,0.27-0.61,0.7-0.61h3.53c0.43,0,0.7,0.25,0.69,0.63
			C52.51,49.69,52.25,49.92,51.82,49.92z M51.85,47h-3.6c-0.4-0.01-0.65-0.25-0.66-0.6c0-0.35,0.26-0.61,0.65-0.61
			c1.22-0.01,2.42-0.01,3.63,0c0.4,0,0.66,0.26,0.66,0.6C52.54,46.75,52.27,46.99,51.85,47z M51.82,44.08H48.3
			c-0.44,0-0.7-0.24-0.69-0.61c0-0.36,0.27-0.59,0.69-0.6h3.52c0.43,0.01,0.69,0.24,0.7,0.6C52.54,43.84,52.27,44.08,51.82,44.08z
			 M51.82,41.16c-0.58,0.01-1.17,0-1.76,0c-0.59,0-1.17,0.01-1.76,0c-0.44,0-0.7-0.24-0.69-0.63c0-0.35,0.27-0.59,0.69-0.59h3.52
			c0.44,0,0.72,0.26,0.7,0.64C52.51,40.93,52.26,41.16,51.82,41.16z"/>
	</g>
	<g>
		<path d="M45.73,46.09c-0.1-0.27-0.31-0.4-0.59-0.4c-0.58-0.01-1.18-0.01-1.76,0c-0.19,0-0.25-0.06-0.24-0.24
			c0.02-0.45,0.01-0.91,0-1.38c0-0.15,0.05-0.2,0.2-0.19c0.24,0.01,0.49,0.01,0.73,0c0.35-0.03,0.59-0.32,0.58-0.64
			c-0.01-0.31-0.26-0.56-0.59-0.58c-0.11-0.01-0.23,0-0.33,0c-0.57,0-0.57,0-0.58-0.55c-0.02-0.42-0.26-0.66-0.68-0.67
			c-0.1,0-0.19-0.01-0.3,0.01c-0.18,0.01-0.26-0.03-0.25-0.23c0.02-0.23,0.02-0.45,0.01-0.67c-0.02-0.35-0.27-0.61-0.59-0.63
			c-0.33-0.01-0.6,0.26-0.63,0.63c-0.01,0.23-0.02,0.47,0,0.69c0.01,0.17-0.06,0.2-0.22,0.2c-0.43-0.01-0.89-0.02-1.33,0
			c-0.22,0-0.27-0.07-0.26-0.27c0-0.58,0.01-1.16,0-1.74c-0.02-0.45-0.42-0.74-0.82-0.58c-0.3,0.13-0.4,0.35-0.4,0.66v1.74
			c0,0.14-0.02,0.19-0.18,0.19c-0.48-0.01-0.95-0.01-1.43,0c-0.15,0-0.19-0.05-0.19-0.19c0.02-0.25,0.02-0.5,0-0.76
			c-0.02-0.33-0.3-0.57-0.61-0.57c-0.32,0.01-0.57,0.26-0.59,0.6c-0.01,0.14,0,0.27,0,0.41c-0.01,0.5,0,0.5-0.5,0.5
			c-0.49,0.01-0.7,0.24-0.72,0.72c0,0.09-0.01,0.2,0,0.3c0.02,0.17-0.05,0.22-0.2,0.2c-0.23-0.01-0.44-0.01-0.67,0
			c-0.35,0.01-0.64,0.26-0.64,0.6c0,0.33,0.27,0.59,0.63,0.61c0.22,0.01,0.44,0.01,0.67,0c0.17-0.01,0.23,0.03,0.22,0.2
			c-0.01,0.44-0.01,0.89,0,1.32c0.01,0.22-0.03,0.3-0.27,0.28c-0.58-0.02-1.16-0.02-1.74,0c-0.5,0.02-0.77,0.52-0.51,0.93
			c0.15,0.23,0.39,0.28,0.64,0.28c0.56,0,1.13,0,1.68-0.01c0.14,0,0.22,0.01,0.2,0.19c-0.01,0.48-0.01,0.95,0,1.43
			c0.01,0.16-0.06,0.18-0.19,0.18c-0.24-0.01-0.48-0.01-0.73,0c-0.34,0.02-0.59,0.3-0.59,0.61c0,0.32,0.27,0.58,0.6,0.6
			c0.2,0,0.4,0.01,0.59,0c0.26-0.05,0.34,0.05,0.33,0.32c-0.02,0.73,0.16,0.9,0.89,0.9h0.11c0.18-0.03,0.22,0.05,0.2,0.2
			c-0.01,0.22-0.01,0.44,0,0.67c0.01,0.36,0.26,0.63,0.6,0.63c0.32,0,0.59-0.25,0.6-0.6c0.02-0.2,0.02-0.42,0-0.64
			c-0.01-0.2,0.03-0.28,0.26-0.27c0.43,0.02,0.85,0.01,1.27,0.01c0.22-0.01,0.27,0.03,0.27,0.25c-0.01,0.58-0.01,1.16,0,1.74
			c0.01,0.38,0.27,0.63,0.61,0.63c0.33,0,0.58-0.24,0.6-0.63v-1.76c-0.01-0.17,0.02-0.24,0.2-0.23h1.4c0.17-0.01,0.22,0.05,0.2,0.19
			c-0.01,0.23-0.01,0.45,0,0.68c0.01,0.35,0.27,0.63,0.6,0.63c0.33,0,0.59-0.26,0.61-0.63c0.01-0.23,0.01-0.47,0-0.69
			c-0.01-0.16,0.05-0.18,0.18-0.18c0.95-0.05,0.97-0.06,1.02-1.05c0.01-0.13,0.03-0.18,0.17-0.17H44c0.38-0.01,0.65-0.26,0.65-0.6
			c0.01-0.33-0.26-0.6-0.63-0.61c-0.23-0.01-0.47-0.01-0.69,0c-0.15,0-0.19-0.05-0.19-0.18c0.01-0.47,0.01-0.93,0-1.4
			c0-0.19,0.06-0.23,0.22-0.23c0.56,0.01,1.1,0.01,1.65,0.01c0.22,0,0.43-0.02,0.59-0.2C45.75,46.53,45.82,46.33,45.73,46.09z
			 M41.93,49.66c0,0.23-0.08,0.26-0.27,0.26c-1.14-0.01-2.26,0-3.39,0c-1.11,0-2.23-0.01-3.34,0c-0.2,0-0.25-0.06-0.25-0.25
			c0-2.25,0.01-4.51,0-6.75c-0.01-0.22,0.08-0.25,0.26-0.25c2.24,0.01,4.48,0.01,6.73,0c0.2,0,0.26,0.06,0.26,0.26
			C41.92,45.18,41.92,47.42,41.93,49.66z"/>
	</g>
	<g>
		<path d="M46.9,53.74c-0.73-0.01-1.45-0.01-2.19,0c-0.48,0-0.7,0.22-0.7,0.7v9.14c0,0.48,0.24,0.7,0.72,0.7
			c0.74,0.01,1.45,0.01,2.18,0.01c0.55-0.01,0.75-0.23,0.75-0.77v-9.04C47.65,53.94,47.45,53.74,46.9,53.74z M46.44,62.83
			c0,0.2-0.06,0.26-0.25,0.25c-0.32-0.02-0.73,0.1-0.92-0.06c-0.19-0.17-0.06-0.59-0.06-0.91v-6.87c0-0.25,0.06-0.33,0.3-0.31
			c0.23,0.02,0.47,0.02,0.7,0c0.19-0.01,0.23,0.07,0.23,0.25c-0.01,1.26-0.01,2.52-0.01,3.8C46.43,60.28,46.43,61.55,46.44,62.83z"
			/>
	</g>
	<g>
		<path d="M51.77,53.74c-0.73-0.01-1.47-0.01-2.19,0c-0.49,0-0.7,0.22-0.7,0.7v9.14c0,0.48,0.23,0.7,0.72,0.7
			c0.73,0.01,1.45,0.01,2.18,0.01c0.55-0.01,0.75-0.23,0.75-0.77v-9.04C52.52,53.94,52.32,53.74,51.77,53.74z M51.32,62.83
			c0,0.19-0.06,0.26-0.26,0.25c-0.31-0.03-0.72,0.1-0.9-0.06c-0.2-0.17-0.07-0.59-0.07-0.9c0-2.3,0-4.59-0.01-6.88
			c0-0.24,0.07-0.33,0.31-0.31c0.23,0.02,0.47,0.02,0.69,0c0.2-0.01,0.24,0.07,0.24,0.24c-0.01,1.27-0.01,2.53-0.01,3.81
			C51.31,60.28,51.31,61.55,51.32,62.83z"/>
	</g>
	<g>
		<path d="M40.83,64.29c-0.19,0.02-0.38,0.01-0.57,0.01h-8.54c-0.09,0-0.18,0-0.27-0.01c-0.36-0.02-0.63-0.27-0.61-0.63
			c0.01-0.33,0.26-0.57,0.61-0.58c0.4-0.02,0.8-0.01,1.19-0.01h3.47c1.52,0,3.05,0.01,4.57,0c0.26,0,0.48,0.07,0.63,0.3
			C41.54,63.75,41.29,64.25,40.83,64.29z"/>
	</g>
	<g>
		<path d="M41.38,61.01c0,0.38-0.26,0.59-0.7,0.59h-4.35c-0.43,0-0.73-0.24-0.73-0.59c0-0.38,0.28-0.63,0.74-0.63h4.32
			C41.13,60.39,41.4,60.62,41.38,61.01z"/>
	</g>
	<g>
		<path d="M36.21,58.33c0,0.38-0.26,0.6-0.72,0.6h-3.94c-0.44,0-0.72-0.24-0.72-0.61c0-0.36,0.27-0.6,0.73-0.6h3.94
			C35.96,57.72,36.21,57.95,36.21,58.33z"/>
	</g>
	<g>
		<path d="M52.52,40.58c-0.01,0.35-0.26,0.58-0.7,0.58c-0.58,0.01-1.17,0-1.76,0c-0.59,0-1.17,0.01-1.76,0
			c-0.44,0-0.7-0.24-0.69-0.63c0-0.35,0.27-0.59,0.69-0.59h3.52C52.26,39.94,52.54,40.2,52.52,40.58z"/>
	</g>
	<g>
		<path d="M52.52,43.46c0.01,0.38-0.25,0.61-0.7,0.61H48.3c-0.44,0-0.7-0.24-0.69-0.61c0-0.36,0.27-0.59,0.69-0.6h3.52
			C52.25,42.87,52.51,43.1,52.52,43.46z"/>
	</g>
	<g>
		<path d="M52.52,46.39c0.01,0.36-0.25,0.6-0.67,0.61h-3.6c-0.4-0.01-0.65-0.25-0.66-0.6c0-0.35,0.26-0.61,0.65-0.61
			c1.22-0.01,2.42-0.01,3.63,0C52.26,45.78,52.52,46.05,52.52,46.39z"/>
	</g>
	<g>
		<path d="M52.52,49.33c-0.01,0.36-0.27,0.59-0.7,0.59H48.3c-0.43,0-0.69-0.23-0.7-0.6c0-0.36,0.27-0.61,0.7-0.61h3.53
			C52.26,48.7,52.54,48.95,52.52,49.33z"/>
	</g>
	<g>
		<path d="M33.41,61c0,0.35-0.24,0.59-0.61,0.6c-0.22,0.01-0.42,0-0.65,0c-0.23,0-0.47,0.01-0.69,0c-0.35-0.01-0.6-0.26-0.61-0.59
			c0-0.34,0.25-0.61,0.61-0.63h1.34C33.17,60.4,33.42,60.66,33.41,61z"/>
	</g>
	<g>
		<path d="M41.38,58.31c0.01,0.34-0.23,0.6-0.57,0.63h-1.09c-0.33-0.02-0.58-0.28-0.58-0.6c0-0.32,0.24-0.59,0.58-0.61
			c0.18-0.01,0.36,0,0.55,0c0.18,0,0.36-0.01,0.56,0C41.15,57.74,41.38,57.99,41.38,58.31z"/>
	</g>
	<g>
		<path d="M39.5,44.41c-0.39-0.01-0.79-0.01-1.19-0.01c-0.39,0-0.79,0-1.18,0.01c-0.49,0-0.71,0.22-0.72,0.69v2.38
			c0.01,0.47,0.23,0.69,0.69,0.69c0.8,0.01,1.6,0.01,2.4,0c0.45,0,0.68-0.23,0.68-0.68c0.01-0.8,0.01-1.62,0-2.43
			C40.17,44.62,39.95,44.41,39.5,44.41z M38.33,46.96c-0.7,0-0.7,0-0.7-0.7c0-0.63,0-0.63,0.63-0.63h0.04c0.68,0,0.68,0,0.68,0.69
			C38.97,46.96,38.97,46.96,38.33,46.96z"/>
	</g>
	<g>
		<path d="M56.52,23.04l-3.33,4.47l2.28,2.34l-1.97,2.97c-0.2,0.3-0.12,0.71,0.18,0.91c0.11,0.07,0.24,0.11,0.36,0.11
			c0.21,0,0.42-0.1,0.55-0.29l2.56-3.85l-2.24-2.29l2.66-3.57c0.22-0.29,0.16-0.7-0.13-0.92C57.14,22.69,56.73,22.75,56.52,23.04z"
			/>
	</g>
	<g>
		<path d="M65.64,26.73L60.55,29l0.85,3.15l-3.17,1.63c-0.32,0.17-0.45,0.56-0.28,0.88c0.12,0.23,0.35,0.36,0.58,0.36
			c0.1,0,0.2-0.02,0.3-0.07l4.11-2.11l-0.84-3.1l4.06-1.82c0.33-0.15,0.48-0.54,0.33-0.87C66.36,26.73,65.97,26.58,65.64,26.73z"/>
	</g>
</g>
</svg>
