<?xml version="1.0" encoding="utf-8"?>
<!-- Generator: Adobe Illustrator 27.3.1, SVG Export Plug-In . SVG Version: 6.00 Build 0)  -->
<svg version="1.1" id="Layer_1" xmlns="http://www.w3.org/2000/svg" xmlns:xlink="http://www.w3.org/1999/xlink" x="0px" y="0px"
	 viewBox="0 0 95 95" style="enable-background:new 0 0 95 95;" xml:space="preserve">
<style type="text/css">
	.st0{fill:#FF0000;}
	.st1{fill:none;stroke:#000000;stroke-width:1.1539;stroke-linecap:round;stroke-miterlimit:10;}
	.st2{fill:none;stroke:#000000;stroke-width:1.0546;stroke-linecap:round;stroke-miterlimit:10;}
	.st3{fill:none;stroke:#000000;stroke-width:0.9853;stroke-linecap:round;stroke-miterlimit:10;}
	.st4{fill:none;stroke:#000000;stroke-width:1.0412;stroke-linecap:round;stroke-miterlimit:10;}
</style>
<g>
	<g>
		<path d="M68.54,32.03l1.06-4.46l4.77-0.44l1.18-0.12v-13.5c0-1.98-1.62-3.6-3.59-3.6h-6.59V3.6c0-1.99-1.62-3.6-3.59-3.6H23.04
			c-1.99,0-3.6,1.62-3.6,3.6v77.9c0,1.98,1.62,3.59,3.6,3.59h6.58v6.3c0,1.99,1.62,3.6,3.6,3.6h38.74c1.98,0,3.59-1.62,3.59-3.6
			V38.68l-1.18,1.4l-5.52,6.58l-2.33-2.08l-1.18,1.38V33.34L68.54,32.03z M29.62,68.19v15.72h-6.58c-1.33,0-2.42-1.08-2.42-2.41V3.6
			c0-1.34,1.09-2.42,2.42-2.42h38.74c1.33,0,2.41,1.08,2.41,2.42v6.3H33.23c-1.99,0-3.6,1.63-3.6,3.6v36.52l1.18,0.33l9.71,2.82
			l3.94-13.06l10.64,1.62l-1.7-3.5l10.78-4.41v13.52L52.56,60.98l-6.53-6.72l-7.71,9.94l-4.06-1.6l-3.46,4.16L29.62,68.19z
			 M66.64,46.25l2.33,2.09l5.41-6.43V91.4c0,1.34-1.08,2.42-2.41,2.42H33.23c-1.33,0-2.42-1.08-2.42-2.42V68.62l3.83-4.61l4.08,1.62
			l7.41-9.57l6.5,6.67l11.56-13.58l1.17-1.37L66.64,46.25z M64.18,32.55l-12.39,5.08l1.27,2.61l-9.43-1.44l-3.91,12.92l-8.92-2.58
			V13.51c0-1.33,1.09-2.42,2.42-2.42h38.74c1.33,0,2.41,1.09,2.41,2.42v12.43l-5.72,0.53l-1.11,4.7l-2.2,0.9L64.18,32.55z"/>
	</g>
	<g>
		<path class="st0" d="M74.38,13.51v12.43l-5.72,0.53l-1.11,4.7l-2.2,0.9l-1.17,0.48l-12.39,5.08l1.27,2.61l-9.43-1.44l-3.91,12.92
			l-8.92-2.58V13.51c0-1.33,1.09-2.42,2.42-2.42h38.74C73.3,11.09,74.38,12.18,74.38,13.51z"/>
	</g>
	<g>
		<path class="st0" d="M74.38,41.91V91.4c0,1.34-1.08,2.42-2.41,2.42H33.23c-1.33,0-2.42-1.08-2.42-2.42V68.62l3.83-4.61l4.08,1.62
			l7.41-9.57l6.5,6.67l11.56-13.58l1.17-1.37l1.29-1.52l2.33,2.09L74.38,41.91z"/>
	</g>
</g>
</svg>
