<?xml version="1.0" encoding="utf-8"?>
<!-- Generator: Adobe Illustrator 27.3.1, SVG Export Plug-In . SVG Version: 6.00 Build 0)  -->
<svg version="1.1" id="Layer_1" xmlns="http://www.w3.org/2000/svg" xmlns:xlink="http://www.w3.org/1999/xlink" x="0px" y="0px"
	 viewBox="0 0 95 95" style="enable-background:new 0 0 95 95;" xml:space="preserve">
<style type="text/css">
	.st0{fill:#FF0000;}
	.st1{fill:none;stroke:#000000;stroke-width:1.1539;stroke-linecap:round;stroke-miterlimit:10;}
	.st2{fill:none;stroke:#000000;stroke-width:1.0546;stroke-linecap:round;stroke-miterlimit:10;}
	.st3{fill:none;stroke:#000000;stroke-width:0.9853;stroke-linecap:round;stroke-miterlimit:10;}
	.st4{fill:none;stroke:#000000;stroke-width:1.0412;stroke-linecap:round;stroke-miterlimit:10;}
</style>
<g>
	<g>
		<g>
			<g>
				<path d="M69.12,95H25.88c-2.21,0-4.02-1.8-4.02-4.02V4.02c0-2.21,1.8-4.02,4.02-4.02h43.25c2.21,0,4.02,1.8,4.02,4.02v86.97
					C73.14,93.2,71.34,95,69.12,95z M25.88,1.31c-1.49,0-2.7,1.21-2.7,2.7v86.97c0,1.49,1.21,2.7,2.7,2.7h43.25
					c1.49,0,2.7-1.21,2.7-2.7V4.02c0-1.49-1.21-2.7-2.7-2.7H25.88z"/>
			</g>
		</g>
		<g>
			<g>
				<path d="M54.38,5.93H40.62c-0.36,0-0.66-0.29-0.66-0.66c0-0.36,0.29-0.66,0.66-0.66h13.75c0.36,0,0.66,0.29,0.66,0.66
					C55.03,5.64,54.74,5.93,54.38,5.93z"/>
			</g>
		</g>
		<g>
			<g>
				<circle cx="58.13" cy="5.28" r="0.67"/>
			</g>
		</g>
	</g>
	<g>
		<g>
			<g>
				<g>
					<path d="M61.85,56.04c-2.22-2.22-4.38-1.88-5.17-1.64l-5.69-5.69l-0.67-0.67l-0.67,0.67l0.66,0.67l5.91,5.91l0.24,0.23
						l0.3-0.14c0.09-0.03,2.19-0.92,4.43,1.33c1.47,1.45,1.69,2.91,1.66,3.8l-1.5-1.5c-0.68-0.68-1.26-1.02-1.74-1.02
						c-0.24,0-0.45,0.09-0.61,0.25l-2.69,2.69c-0.3,0.3-0.59,1,0.76,2.35l1.51,1.5c-0.89,0.05-2.34-0.19-3.81-1.65
						c-2.24-2.25-1.35-4.35-1.32-4.43l0.14-0.31L38.84,43.65l-0.24-0.23l-0.3,0.13c-0.09,0.05-2.19,0.93-4.43-1.32
						c-1.47-1.47-1.69-2.92-1.66-3.8l1.5,1.5c0.44,0.44,0.85,0.74,1.2,0.9c0.63,0.26,0.99,0.03,1.15-0.14L38.76,38
						c0.16-0.16,0.25-0.38,0.25-0.61c0-0.48-0.33-1.05-1.01-1.73l-1.5-1.5c0.85-0.05,2.33,0.18,3.8,1.65
						c2.24,2.25,1.35,4.35,1.32,4.43l-0.14,0.3l6.82,6.82l0.67-0.67l-0.67-0.67l-5.71-5.71c0.24-0.8,0.58-2.96-1.63-5.17
						c-2.72-2.71-5.5-1.8-5.62-1.75l-0.72,0.25l2.69,2.69c0.69,0.69,0.73,1.01,0.76,1.01L35.45,40c-0.03,0-0.35-0.02-1.07-0.74
						l-2.69-2.69l-0.24,0.72c-0.05,0.13-0.95,2.91,1.75,5.62c2.21,2.22,4.38,1.86,5.17,1.63l14.09,14.09
						c-0.24,0.81-0.58,2.97,1.63,5.18c1.6,1.59,3.22,1.93,4.31,1.93c0.76,0,1.26-0.17,1.31-0.18l0.72-0.25l-2.69-2.69
						c-0.69-0.69-0.73-1.01-0.76-1.01l2.64-2.66c0.03,0,0.35,0.02,1.07,0.74l2.69,2.68l0.24-0.72
						C63.65,61.53,64.56,58.74,61.85,56.04z"/>
				</g>
			</g>
		</g>
		<g>
			<g>
				<g>
					<g>
						<path d="M60.77,33.68l-5.88,3.4l-0.99,3.32l-5.62,5.62l-1.45,1.45c-0.45-0.3-0.86-0.42-1.15-0.42
							c-0.49,0.01-0.78,0.32-0.97,0.52l-0.98,0.99l-0.22,0.2c-0.19-0.14-0.38-0.25-0.53-0.34c-0.27-0.16-0.63-0.31-1-0.27
							c-0.26,0.01-0.55,0.13-0.81,0.39l-8.8,8.81c-2.35,2.35-0.63,5.37,0.61,6.64h0.01c0.81,0.8,2.33,1.78,3.93,1.78
							c0.91,0,1.85-0.31,2.71-1.16l8.8-8.81c0.25-0.25,0.39-0.5,0.4-0.8c0.03-0.43-0.17-0.92-0.63-1.55l0.22-0.2l0.98-0.98
							c0.2-0.19,0.52-0.48,0.52-0.98c0.01-0.32-0.13-0.69-0.42-1.14l0.78-0.78l0.68-0.67l5.6-5.62l3.32-1l3.4-5.88L60.77,33.68z
							 M47.78,55.14l-8.8,8.8c-2.26,2.26-5.14-0.47-5.31-0.63c-0.16-0.17-2.89-3.03-0.61-5.3l8.8-8.81
							c0.11-0.11,0.22-0.22,0.67,0.05c0.57,0.31,1.45,1.08,2.8,2.41C48.05,54.4,48.02,54.89,47.78,55.14z M48.78,51.57l-1.01,1.01
							l-0.1,0.09L46,51l-1.68-1.68l0.1-0.09l1-1.01c0.16-0.17,0.22-0.23,0.3-0.23c0.09,0,0.34,0.06,0.86,0.47l1.02,0.93l0.93,1.02
							c0.41,0.52,0.47,0.77,0.47,0.88C49,51.35,48.94,51.42,48.78,51.57z M59.27,41.29l-3.07,0.92l-5.89,5.82l-0.67,0.67l-0.72,0.7
							c-0.19-0.22-0.41-0.44-0.66-0.69c-0.24-0.25-0.48-0.47-0.68-0.66l0.7-0.7l0.67-0.67l5.69-5.69l1.05-3.27l4.92-2.85l1.5,1.51
							L59.27,41.29z"/>
					</g>
				</g>
				<g>
					<g>
						<path class="st0" d="M45.33,51.66c-1.34-1.33-2.23-2.1-2.8-2.41c-0.45-0.26-0.56-0.16-0.67-0.05l-8.8,8.81
							c-2.27,2.26,0.45,5.13,0.61,5.3c0.17,0.16,3.05,2.89,5.31,0.63l8.8-8.8C48.02,54.89,48.05,54.4,45.33,51.66z M35.1,58.95
							c-0.12,0-0.24-0.05-0.34-0.15c-0.18-0.18-0.18-0.48,0-0.67l6.68-6.67c0.18-0.18,0.48-0.18,0.67,0c0.18,0.18,0.18,0.49,0,0.67
							l-6.68,6.67C35.33,58.9,35.22,58.95,35.1,58.95z M36.81,60.65c-0.12,0-0.25-0.05-0.34-0.14c-0.18-0.18-0.18-0.49,0-0.67
							l6.68-6.67c0.18-0.18,0.48-0.18,0.67,0c0.18,0.18,0.18,0.48,0,0.67l-6.68,6.67C37.05,60.61,36.93,60.65,36.81,60.65z
							 M45.53,55.55l-6.67,6.68c-0.09,0.09-0.22,0.14-0.34,0.14c-0.11,0-0.24-0.05-0.33-0.14c-0.18-0.18-0.18-0.49,0-0.67l6.67-6.68
							c0.19-0.18,0.49-0.18,0.67,0C45.72,55.07,45.72,55.37,45.53,55.55z"/>
					</g>
				</g>
			</g>
			<g>
				<g>
					<g>
						<g>
							<path d="M42.11,52.13l-6.68,6.67c-0.09,0.1-0.2,0.15-0.33,0.15c-0.12,0-0.24-0.05-0.34-0.15c-0.18-0.18-0.18-0.48,0-0.67
								l6.68-6.67c0.18-0.18,0.48-0.18,0.67,0C42.29,51.64,42.29,51.94,42.11,52.13z"/>
						</g>
					</g>
				</g>
				<g>
					<g>
						<g>
							<path d="M43.83,53.84l-6.68,6.67c-0.09,0.09-0.22,0.14-0.33,0.14c-0.12,0-0.25-0.05-0.34-0.14c-0.18-0.18-0.18-0.49,0-0.67
								l6.68-6.67c0.18-0.18,0.48-0.18,0.67,0C44.01,53.35,44.01,53.65,43.83,53.84z"/>
						</g>
					</g>
				</g>
				<g>
					<g>
						<g>
							<path d="M45.53,55.55l-6.67,6.68c-0.09,0.09-0.22,0.14-0.34,0.14c-0.11,0-0.24-0.05-0.33-0.14c-0.18-0.18-0.18-0.49,0-0.67
								l6.67-6.68c0.19-0.18,0.49-0.18,0.67,0C45.72,55.07,45.72,55.37,45.53,55.55z"/>
						</g>
					</g>
				</g>
			</g>
		</g>
	</g>
</g>
</svg>
