<?xml version="1.0" encoding="utf-8"?>
<!-- Generator: Adobe Illustrator 27.3.1, SVG Export Plug-In . SVG Version: 6.00 Build 0)  -->
<svg version="1.1" id="Layer_1" xmlns="http://www.w3.org/2000/svg" xmlns:xlink="http://www.w3.org/1999/xlink" x="0px" y="0px"
	 viewBox="0 0 95 95" style="enable-background:new 0 0 95 95;" xml:space="preserve">
<style type="text/css">
	.st0{fill:#FF0000;}
	.st1{fill:none;stroke:#000000;stroke-width:1.1539;stroke-linecap:round;stroke-miterlimit:10;}
	.st2{fill:none;stroke:#000000;stroke-width:1.0546;stroke-linecap:round;stroke-miterlimit:10;}
	.st3{fill:none;stroke:#000000;stroke-width:0.9853;stroke-linecap:round;stroke-miterlimit:10;}
	.st4{fill:none;stroke:#000000;stroke-width:1.0412;stroke-linecap:round;stroke-miterlimit:10;}
</style>
<g>
	<g>
		<g>
			<path d="M69.12,0H25.88c-2.22,0-4.01,1.81-4.01,4.01v86.96c0,2.22,1.8,4.02,4.01,4.02h43.25c2.22,0,4.01-1.81,4.01-4.02V4.01
				C73.14,1.81,71.34,0,69.12,0z M71.83,90.98c0,1.5-1.22,2.71-2.71,2.71H25.88c-1.49,0-2.71-1.2-2.71-2.71V4.01
				c0-1.49,1.22-2.71,2.71-2.71h43.25c1.49,0,2.71,1.22,2.71,2.71V90.98z"/>
		</g>
	</g>
	<g>
		<g>
			<path d="M54.38,5.93H40.62c-0.36,0-0.66-0.29-0.66-0.66c0-0.36,0.29-0.66,0.66-0.66h13.75c0.36,0,0.66,0.29,0.66,0.66
				C55.03,5.64,54.74,5.93,54.38,5.93z"/>
		</g>
	</g>
	<g>
		<g>
			<circle cx="58.13" cy="5.28" r="0.67"/>
		</g>
	</g>
	<g>
		<g>
			<path d="M54.58,56.38c-0.13,0-0.26-0.04-0.37-0.12c-0.3-0.21-0.37-0.61-0.17-0.91c6.31-9.14,0.34-15.25,0.08-15.51
				c-0.26-0.26-0.26-0.67,0-0.93c0.25-0.26,0.67-0.26,0.93-0.01c0.07,0.07,7.03,7.12,0.08,17.19
				C54.99,56.28,54.79,56.38,54.58,56.38z"/>
		</g>
	</g>
	<g>
		<g>
			<path d="M57.56,59.69c-0.14,0-0.28-0.04-0.4-0.13c-0.29-0.22-0.35-0.63-0.13-0.92c9.15-12.05,0.42-21.81,0.04-22.22
				c-0.24-0.27-0.23-0.68,0.04-0.93c0.27-0.24,0.68-0.23,0.93,0.04c0.1,0.11,9.86,10.97,0.04,23.9
				C57.96,59.6,57.76,59.69,57.56,59.69z"/>
		</g>
	</g>
	<g>
		<g>
			<path d="M41.89,40.67h-9.38v13.08h9.13l9.99,6.49V34.8L41.89,40.67z M50.32,57.82l-7.59-4.93l-0.7-0.45h-8.2V41.98h8.42
				l0.48-0.28l7.59-4.57V57.82z"/>
		</g>
		<g>
			<rect x="33.83" y="41.98" class="st0" width="7.59" height="10.46"/>
		</g>
		<g>
			<polygon class="st0" points="50.32,37.12 50.32,57.82 42.73,52.89 42.73,41.69 			"/>
		</g>
	</g>
	<g>
		<g>
			<path d="M42.73,41.32v11.78c0,0.36-0.3,0.66-0.66,0.66c-0.36,0-0.65-0.3-0.65-0.66V41.32c0-0.36,0.28-0.65,0.65-0.65
				C42.44,40.67,42.73,40.95,42.73,41.32z"/>
		</g>
	</g>
</g>
</svg>
