<?xml version="1.0" encoding="utf-8"?>
<!-- Generator: Adobe Illustrator 27.3.1, SVG Export Plug-In . SVG Version: 6.00 Build 0)  -->
<svg version="1.1" id="Layer_1" xmlns="http://www.w3.org/2000/svg" xmlns:xlink="http://www.w3.org/1999/xlink" x="0px" y="0px"
	 viewBox="0 0 95 95" style="enable-background:new 0 0 95 95;" xml:space="preserve">
<style type="text/css">
	.st0{fill:#FF0000;}
</style>
<g>
	<g>
		<path d="M62.26,76.53H30.92c-4.76,0-8.63-3.87-8.63-8.63V27.11c0-4.76,3.87-8.63,8.63-8.63h31.35c4.76,0,8.63,3.87,8.63,8.63V67.9
			C70.89,72.66,67.02,76.53,62.26,76.53z M30.92,19.59c-4.14,0-7.51,3.37-7.51,7.51v40.78c0,4.14,3.37,7.51,7.51,7.51h31.35
			c4.14,0,7.51-3.37,7.51-7.51V27.11c0-4.14-3.37-7.51-7.51-7.51H30.92V19.59z"/>
	</g>
	<g>
		<path d="M62.04,73.95H31.13c-3.68,0-6.67-3-6.67-6.67V27.73c0-3.68,3-6.67,6.67-6.67h30.91c3.68,0,6.67,3,6.67,6.67v39.55
			C68.72,70.95,65.72,73.95,62.04,73.95z M31.13,21.82c-3.26,0-5.91,2.65-5.91,5.91v39.55c0,3.26,2.65,5.91,5.91,5.91h30.91
			c3.26,0,5.91-2.65,5.91-5.91V27.73c0-3.26-2.65-5.91-5.91-5.91H31.13z"/>
	</g>
	<g>
		<path d="M63.29,19.59c-0.09,0-0.18-0.02-0.27-0.07c-2.92-1.59-2.7-6.87-2.52-11.12c0.04-0.95,0.08-1.84,0.08-2.63
			c0-3.29-7.91-4.66-12.16-4.66h-3.69c-4.24,0-12.16,1.37-12.16,4.66c0,0.78,0.03,1.68,0.08,2.63c0.18,4.24,0.4,9.53-2.52,11.12
			c-0.27,0.15-0.62,0.04-0.76-0.22c-0.15-0.27-0.04-0.62,0.22-0.76c2.31-1.25,2.09-6.16,1.94-10.09c-0.04-0.96-0.08-1.87-0.08-2.68
			C31.45,1.06,41.28,0,44.73,0h3.69C51.87,0,61.7,1.06,61.7,5.78c0,0.79-0.03,1.71-0.08,2.68c-0.17,3.93-0.37,8.83,1.94,10.09
			c0.27,0.15,0.37,0.49,0.22,0.76C63.68,19.49,63.48,19.59,63.29,19.59z"/>
	</g>
	<g>
		<path d="M48.42,94.99h-3.69c-3.45,0-13.28-1.06-13.28-5.78c0-0.79,0.03-1.71,0.08-2.68c0.17-3.93,0.37-8.83-1.94-10.09
			c-0.27-0.15-0.37-0.49-0.22-0.76c0.15-0.27,0.49-0.37,0.76-0.22c2.92,1.59,2.7,6.87,2.52,11.12c-0.04,0.94-0.08,1.84-0.08,2.62
			c0,3.29,7.91,4.66,12.16,4.66h3.69c4.24,0,12.16-1.37,12.16-4.66c0-0.78-0.03-1.68-0.08-2.62c-0.18-4.24-0.4-9.53,2.52-11.12
			c0.27-0.15,0.62-0.04,0.76,0.22c0.15,0.27,0.04,0.62-0.22,0.76c-2.31,1.25-2.09,6.15-1.94,10.09c0.04,0.96,0.08,1.87,0.08,2.68
			C61.7,93.94,51.87,94.99,48.42,94.99z"/>
	</g>
	<path class="st0" d="M72.69,43.18L72.69,43.18c-0.68,0-1.23-0.55-1.23-1.23v-7.14c0-0.68,0.55-1.23,1.23-1.23l0,0
		c0.68,0,1.23,0.55,1.23,1.23v7.14C73.92,42.63,73.37,43.18,72.69,43.18z"/>
	<path class="st0" d="M72.69,61.34L72.69,61.34c-0.68,0-1.23-0.55-1.23-1.23v-7.14c0-0.68,0.55-1.23,1.23-1.23l0,0
		c0.68,0,1.23,0.55,1.23,1.23v7.14C73.92,60.79,73.37,61.34,72.69,61.34z"/>
</g>
</svg>
