<?xml version="1.0" encoding="utf-8"?>
<!-- Generator: Adobe Illustrator 27.3.1, SVG Export Plug-In . SVG Version: 6.00 Build 0)  -->
<svg version="1.1" id="Layer_1" xmlns="http://www.w3.org/2000/svg" xmlns:xlink="http://www.w3.org/1999/xlink" x="0px" y="0px"
	 viewBox="0 0 95 95" style="enable-background:new 0 0 95 95;" xml:space="preserve">
<style type="text/css">
	.st0{fill:#FF0000;}
</style>
<g>
	<g>
		<g>
			<g>
				<path d="M51.33,35.96h-9.89c-1.32,0-2.38,1.06-2.38,2.38v19.67c0,1.31,1.06,2.38,2.38,2.38h9.89c1.31,0,2.38-1.06,2.38-2.38
					V38.34C53.71,37.03,52.64,35.96,51.33,35.96z M53.02,58.01c0,0.93-0.76,1.69-1.69,1.69h-9.89c-0.93,0-1.7-0.76-1.7-1.69V38.34
					c0-0.93,0.76-1.7,1.7-1.7h9.89c0.93,0,1.69,0.76,1.69,1.7C53.02,38.34,53.02,58.01,53.02,58.01z"/>
			</g>
			<g>
				<path class="st0" d="M51.33,36.65h-9.89c-0.93,0-1.7,0.76-1.7,1.7v19.67c0,0.93,0.76,1.69,1.7,1.69h9.89
					c0.93,0,1.69-0.76,1.69-1.69V38.34C53.02,37.41,52.26,36.65,51.33,36.65z M51.43,57.44H41.34v-3.49h10.09
					C51.43,53.95,51.43,57.44,51.43,57.44z M51.43,52.58H41.34v-3.49h10.09C51.43,49.09,51.43,52.58,51.43,52.58z M51.43,47.72
					H41.34v-3.49h10.09C51.43,44.23,51.43,47.72,51.43,47.72z"/>
			</g>
		</g>
		<g>
			<g>
				<path d="M41.34,53.95v3.49h10.09v-3.49H41.34z M50.73,56.75h-8.7v-2.12h8.7V56.75z"/>
			</g>
		</g>
		<g>
			<g>
				<path d="M41.34,49.09v3.49h10.09v-3.49H41.34z M50.73,51.89h-8.7v-2.12h8.7V51.89z"/>
			</g>
		</g>
		<g>
			<g>
				<path d="M41.34,44.23v3.49h10.09v-3.49H41.34z M50.73,47.03h-8.7v-2.12h8.7V47.03z"/>
			</g>
		</g>
		<g>
			<g>
				<path d="M49.18,35.3h-5.59c-0.19,0-0.35-0.16-0.35-0.35c0-0.19,0.16-0.35,0.35-0.35h5.59c0.19,0,0.35,0.16,0.35,0.35
					C49.51,35.14,49.37,35.3,49.18,35.3z"/>
			</g>
		</g>
	</g>
	<g>
		<g>
			<path d="M62.33,76.53H30.99c-4.76,0-8.63-3.87-8.63-8.63V27.11c0-4.76,3.87-8.63,8.63-8.63h31.35c4.76,0,8.63,3.87,8.63,8.63
				V67.9C70.96,72.66,67.09,76.53,62.33,76.53z M30.99,19.59c-4.14,0-7.51,3.37-7.51,7.51v40.78c0,4.14,3.37,7.51,7.51,7.51h31.35
				c4.14,0,7.51-3.37,7.51-7.51V27.11c0-4.14-3.37-7.51-7.51-7.51H30.99V19.59z"/>
		</g>
		<g>
			<path d="M62.11,73.95H31.2c-3.68,0-6.67-3-6.67-6.67V27.73c0-3.68,3-6.67,6.67-6.67h30.91c3.68,0,6.67,3,6.67,6.67v39.55
				C68.79,70.95,65.79,73.95,62.11,73.95z M31.2,21.82c-3.26,0-5.91,2.65-5.91,5.91v39.55c0,3.26,2.65,5.91,5.91,5.91h30.91
				c3.26,0,5.91-2.65,5.91-5.91V27.73c0-3.26-2.65-5.91-5.91-5.91H31.2z"/>
		</g>
		<g>
			<path d="M63.36,19.59c-0.09,0-0.18-0.02-0.27-0.07c-2.92-1.59-2.7-6.87-2.52-11.12c0.04-0.95,0.08-1.84,0.08-2.63
				c0-3.29-7.91-4.66-12.16-4.66H44.8c-4.24,0-12.16,1.37-12.16,4.66c0,0.78,0.03,1.68,0.08,2.63c0.18,4.24,0.4,9.53-2.52,11.12
				c-0.27,0.15-0.62,0.04-0.76-0.22c-0.15-0.27-0.04-0.62,0.22-0.76c2.31-1.25,2.09-6.16,1.94-10.09c-0.04-0.96-0.08-1.87-0.08-2.68
				C31.52,1.06,41.35,0,44.8,0h3.69c3.45,0,13.28,1.06,13.28,5.78c0,0.79-0.03,1.71-0.08,2.68c-0.17,3.93-0.37,8.83,1.94,10.09
				c0.27,0.15,0.37,0.49,0.22,0.76C63.75,19.49,63.55,19.59,63.36,19.59z"/>
		</g>
		<g>
			<path d="M48.5,94.99H44.8c-3.45,0-13.28-1.06-13.28-5.78c0-0.79,0.03-1.71,0.08-2.68c0.17-3.93,0.37-8.83-1.94-10.09
				c-0.27-0.15-0.37-0.49-0.22-0.76c0.15-0.27,0.49-0.37,0.76-0.22c2.92,1.59,2.7,6.87,2.52,11.12c-0.04,0.95-0.08,1.84-0.08,2.63
				c0,3.29,7.91,4.66,12.16,4.66h3.69c4.24,0,12.16-1.37,12.16-4.66c0-0.78-0.03-1.68-0.08-2.63c-0.18-4.24-0.4-9.53,2.52-11.12
				c0.27-0.15,0.62-0.04,0.76,0.22c0.15,0.27,0.04,0.62-0.22,0.76c-2.31,1.25-2.09,6.16-1.94,10.09c0.04,0.96,0.08,1.87,0.08,2.68
				C61.77,93.94,51.94,94.99,48.5,94.99z"/>
		</g>
		<g>
			<path d="M72.09,40.94c-0.31,0-0.56-0.25-0.56-0.56v-8.47c0-0.31,0.25-0.56,0.56-0.56c0.31,0,0.56,0.25,0.56,0.56v8.47
				C72.65,40.69,72.4,40.94,72.09,40.94z"/>
		</g>
		<g>
			<path d="M72.09,60.22c-0.31,0-0.56-0.25-0.56-0.56V48.94c0-0.31,0.25-0.56,0.56-0.56c0.31,0,0.56,0.25,0.56,0.56v10.71
				C72.65,59.96,72.4,60.22,72.09,60.22z"/>
		</g>
	</g>
</g>
</svg>
