<?xml version="1.0" encoding="utf-8"?>
<!-- Generator: Adobe Illustrator 27.3.1, SVG Export Plug-In . SVG Version: 6.00 Build 0)  -->
<svg version="1.1" id="Layer_1" xmlns="http://www.w3.org/2000/svg" xmlns:xlink="http://www.w3.org/1999/xlink" x="0px" y="0px"
	 viewBox="0 0 95 95" style="enable-background:new 0 0 95 95;" xml:space="preserve">
<style type="text/css">
	.st0{fill:#FF0000;}
</style>
<g>
	<g>
		<g>
			<g>
				<path d="M59.97,25.61H29.06c-1.25,0-2.43,0.35-3.43,0.95c-0.41,0.25-0.79,0.54-1.14,0.87c-1.3,1.21-2.1,2.93-2.1,4.85v39.55
					c0,3.68,2.99,6.68,6.67,6.68h30.91c1.29,0,2.51-0.37,3.53-1.02c0.45-0.27,0.87-0.6,1.23-0.99c0.34-0.34,0.63-0.71,0.87-1.1
					c0.03-0.03,0.06-0.08,0.08-0.11c0.62-1.01,0.97-2.19,0.97-3.47V32.29C66.65,28.59,63.65,25.61,59.97,25.61z M65.88,71.83
					c0,1.33-0.45,2.57-1.21,3.56c-0.31,0.44-0.69,0.82-1.12,1.13c-0.99,0.77-2.23,1.22-3.58,1.22H29.06c-3.26,0-5.9-2.65-5.9-5.91
					V32.29c0-1.42,0.5-2.73,1.33-3.75c0.32-0.39,0.71-0.74,1.12-1.04c0.97-0.71,2.16-1.12,3.45-1.12h30.91
					c3.26,0,5.91,2.65,5.91,5.91V71.83z"/>
			</g>
		</g>
	</g>
	<g>
		<g>
			<path d="M65.85,18.58h-0.01c-0.01-0.02-0.03-0.03-0.06-0.04c-2.31-1.25-2.1-6.16-1.94-10.09c0.04-0.96,0.08-1.88,0.08-2.68
				C63.92,1.06,54.09,0,50.66,0h-3.69c-3.45,0-13.28,1.06-13.28,5.78c0,0.79,0.04,1.71,0.08,2.68c0.17,3.93,0.38,8.83-1.93,10.09
				c-0.02,0.01-0.04,0.02-0.06,0.04h-0.01c-3.03,0.47-5.53,2.53-6.64,5.28c-2.91,1.39-4.93,4.35-4.93,7.79v40.78
				c0,4.76,3.87,8.64,8.64,8.64h4.95c0.12,1.74,0.04,3.69-0.03,5.45c-0.03,0.96-0.08,1.87-0.08,2.68c0,4.71,9.83,5.78,13.28,5.78
				h3.69c3.44,0,13.27-1.06,13.27-5.78c0-0.81-0.03-1.71-0.08-2.68c-0.09-2.06-0.19-4.39,0.08-6.31c1.93-0.92,3.47-2.55,4.27-4.55
				c2.91-1.39,4.93-4.35,4.93-7.79V27.11C73.11,22.82,69.97,19.26,65.85,18.58z M34.88,8.42c-0.03-0.95-0.08-1.85-0.08-2.63
				c0-3.29,7.91-4.66,12.16-4.66h3.69c4.23,0,12.15,1.37,12.15,4.66c0,0.78-0.03,1.68-0.08,2.63c-0.15,3.55-0.34,7.83,1.33,10.06
				h-30.5C35.22,16.26,35.03,11.97,34.88,8.42z M50.66,93.87h-3.69c-4.24,0-12.16-1.37-12.16-4.66c0-0.78,0.04-1.68,0.08-2.63
				c0.08-1.77,0.16-3.72,0.01-5.5h25.3c0.88,0,1.75-0.13,2.55-0.39c-0.19,1.89-0.1,4-0.02,5.89c0.04,0.95,0.08,1.85,0.08,2.63
				C62.8,92.52,54.89,93.87,50.66,93.87z M67.71,72.45c0,0.84-0.13,1.65-0.4,2.4c-0.16,0.49-0.37,0.96-0.64,1.4
				c-0.59,1.04-1.44,1.91-2.45,2.55c-0.4,0.26-0.83,0.48-1.29,0.65c-0.84,0.35-1.77,0.53-2.73,0.53H28.85
				c-4.14,0-7.52-3.38-7.52-7.52V31.66c0-2.6,1.32-4.88,3.34-6.24c0.41-0.28,0.86-0.53,1.34-0.72c0.87-0.36,1.84-0.56,2.84-0.56
				H60.2c4.14,0,7.51,3.37,7.51,7.51V72.45z M71.99,67.9c0,2.6-1.32,4.89-3.34,6.24c0.11-0.55,0.17-1.11,0.17-1.68V31.66
				c0-4.76-3.87-8.63-8.63-8.63H28.85c-0.76,0-1.49,0.1-2.19,0.28c1.3-2.23,3.73-3.72,6.48-3.72h31.35c4.14,0,7.51,3.37,7.51,7.51
				V67.9z"/>
		</g>
		<g>
			<path class="st0" d="M60.2,24.16H28.85c-1.01,0-1.97,0.2-2.84,0.56c-0.48,0.19-0.93,0.44-1.34,0.72
				c-2.02,1.35-3.34,3.64-3.34,6.24v40.78c0,4.14,3.38,7.52,7.52,7.52H60.2c0.96,0,1.89-0.18,2.73-0.53
				c0.46-0.17,0.88-0.39,1.29-0.65c1.01-0.64,1.86-1.51,2.45-2.55c0.27-0.44,0.48-0.91,0.64-1.4c0.27-0.75,0.4-1.56,0.4-2.4V31.66
				C67.71,27.53,64.34,24.16,60.2,24.16z M66.65,71.83c0,1.28-0.36,2.46-0.97,3.47c-0.02,0.03-0.04,0.08-0.08,0.11
				c-0.25,0.39-0.54,0.76-0.87,1.1c-0.36,0.38-0.78,0.72-1.23,0.99c-1.02,0.65-2.24,1.02-3.53,1.02H29.06c-3.68,0-6.67-3-6.67-6.68
				V32.29c0-1.91,0.81-3.64,2.1-4.85c0.35-0.34,0.73-0.63,1.14-0.87c1-0.6,2.17-0.95,3.43-0.95h30.91c3.68,0,6.68,2.99,6.68,6.67
				V71.83z"/>
		</g>
	</g>
	<g>
		<g>
			<path d="M74.23,40.94c-0.31,0-0.56-0.25-0.56-0.56v-8.47c0-0.31,0.25-0.56,0.56-0.56c0.31,0,0.56,0.25,0.56,0.56v8.47
				C74.79,40.69,74.55,40.94,74.23,40.94z"/>
		</g>
	</g>
	<g>
		<g>
			<path d="M74.23,60.22c-0.31,0-0.56-0.25-0.56-0.56V48.94c0-0.31,0.25-0.56,0.56-0.56c0.31,0,0.56,0.25,0.56,0.56v10.71
				C74.79,59.96,74.55,60.22,74.23,60.22z"/>
		</g>
	</g>
</g>
</svg>
