<?xml version="1.0" encoding="utf-8"?>
<!-- Generator: Adobe Illustrator 27.3.1, SVG Export Plug-In . SVG Version: 6.00 Build 0)  -->
<svg version="1.1" id="Layer_1" xmlns="http://www.w3.org/2000/svg" xmlns:xlink="http://www.w3.org/1999/xlink" x="0px" y="0px"
	 viewBox="0 0 95 95" style="enable-background:new 0 0 95 95;" xml:space="preserve">
<style type="text/css">
	.st0{fill:#FF0000;}
</style>
<g>
	<g>
		<path d="M63.67,18.57c-0.43-0.07-0.87-0.1-1.33-0.1H30.99c-0.45,0-0.9,0.03-1.33,0.1c-4.14,0.64-7.31,4.22-7.31,8.54V67.9
			c0,4.3,3.16,7.87,7.29,8.52c0.44,0.08,0.9,0.11,1.35,0.11h31.35c0.46,0,0.92-0.03,1.35-0.11c4.12-0.65,7.28-4.22,7.28-8.52V27.11
			C70.96,22.8,67.8,19.22,63.67,18.57z M69.85,67.9c0,4.14-3.37,7.51-7.51,7.51H30.99c-4.15,0-7.52-3.37-7.52-7.51V27.11
			c0-4.14,3.37-7.52,7.52-7.52h31.35c4.14,0,7.51,3.38,7.51,7.52V67.9z"/>
	</g>
	<g>
		<path d="M62.11,21.05H31.2c-3.68,0-6.67,3-6.67,6.68v39.55c0,3.68,2.99,6.67,6.67,6.67h30.91c3.68,0,6.68-2.99,6.68-6.67V27.73
			C68.79,24.05,65.79,21.05,62.11,21.05z M68.02,67.28c0,3.26-2.65,5.9-5.91,5.9H31.2c-3.26,0-5.91-2.64-5.91-5.9V27.73
			c0-3.26,2.65-5.91,5.91-5.91h30.91c3.26,0,5.91,2.65,5.91,5.91V67.28z"/>
		<path class="st0" d="M68.02,27.73v39.55c0,3.26-2.65,5.9-5.91,5.9H31.2c-3.26,0-5.91-2.64-5.91-5.9V27.73
			c0-3.26,2.65-5.91,5.91-5.91h30.91C65.37,21.82,68.02,24.47,68.02,27.73z"/>
	</g>
	<g>
		<path d="M63.36,19.59c-0.09,0-0.18-0.02-0.27-0.07c-2.92-1.59-2.7-6.87-2.52-11.12c0.04-0.95,0.08-1.84,0.08-2.63
			c0-3.29-7.91-4.66-12.16-4.66H44.8c-4.24,0-12.16,1.37-12.16,4.66c0,0.78,0.03,1.68,0.08,2.63c0.18,4.24,0.4,9.53-2.52,11.12
			c-0.27,0.15-0.62,0.04-0.76-0.22c-0.15-0.27-0.04-0.62,0.22-0.76c2.31-1.25,2.09-6.16,1.94-10.09c-0.04-0.96-0.08-1.87-0.08-2.68
			C31.52,1.06,41.35,0,44.8,0h3.69c3.45,0,13.28,1.06,13.28,5.78c0,0.79-0.03,1.71-0.08,2.68c-0.17,3.93-0.37,8.83,1.94,10.09
			c0.27,0.15,0.37,0.49,0.22,0.76C63.76,19.49,63.55,19.59,63.36,19.59z"/>
	</g>
	<g>
		<path d="M48.5,94.99H44.8c-3.45,0-13.28-1.06-13.28-5.78c0-0.79,0.03-1.71,0.08-2.68c0.17-3.93,0.37-8.83-1.94-10.09
			c-0.27-0.15-0.37-0.49-0.22-0.76c0.15-0.27,0.49-0.37,0.76-0.22c2.92,1.59,2.7,6.87,2.52,11.12c-0.04,0.94-0.08,1.84-0.08,2.62
			c0,3.29,7.91,4.66,12.16,4.66h3.69c4.24,0,12.16-1.37,12.16-4.66c0-0.78-0.03-1.68-0.08-2.62c-0.18-4.24-0.4-9.53,2.52-11.12
			c0.27-0.15,0.62-0.04,0.76,0.22c0.15,0.27,0.04,0.62-0.22,0.76c-2.31,1.25-2.09,6.15-1.94,10.09c0.04,0.96,0.08,1.87,0.08,2.68
			C61.77,93.94,51.94,94.99,48.5,94.99z"/>
	</g>
	<g>
		<path d="M72.1,40.94c-0.31,0-0.56-0.25-0.56-0.56v-8.47c0-0.31,0.25-0.56,0.56-0.56s0.56,0.25,0.56,0.56v8.47
			C72.66,40.69,72.4,40.94,72.1,40.94z"/>
	</g>
	<g>
		<path d="M72.1,60.22c-0.31,0-0.56-0.25-0.56-0.56V48.94c0-0.31,0.25-0.56,0.56-0.56s0.56,0.25,0.56,0.56v10.71
			C72.66,59.96,72.4,60.22,72.1,60.22z"/>
	</g>
</g>
</svg>
