<?xml version="1.0" encoding="utf-8"?>
<!-- Generator: Adobe Illustrator 27.3.1, SVG Export Plug-In . SVG Version: 6.00 Build 0)  -->
<svg version="1.1" id="Layer_1" xmlns="http://www.w3.org/2000/svg" xmlns:xlink="http://www.w3.org/1999/xlink" x="0px" y="0px"
	 viewBox="0 0 95 95" style="enable-background:new 0 0 95 95;" xml:space="preserve">
<style type="text/css">
	.st0{fill:#FF0000;}
</style>
<g>
	<g>
		<path d="M62.33,76.53H30.99c-4.76,0-8.63-3.87-8.63-8.63V27.11c0-4.76,3.87-8.63,8.63-8.63h31.35c4.76,0,8.63,3.87,8.63,8.63V67.9
			C70.96,72.66,67.09,76.53,62.33,76.53z M30.99,19.59c-4.14,0-7.51,3.37-7.51,7.51v40.78c0,4.14,3.37,7.51,7.51,7.51h31.35
			c4.14,0,7.51-3.37,7.51-7.51V27.11c0-4.14-3.37-7.51-7.51-7.51H30.99V19.59z"/>
	</g>
	<g>
		<path d="M62.11,73.95H31.2c-3.68,0-6.67-3-6.67-6.67V27.73c0-3.68,3-6.67,6.67-6.67h30.91c3.68,0,6.67,3,6.67,6.67v39.55
			C68.79,70.95,65.79,73.95,62.11,73.95z M31.2,21.82c-3.26,0-5.91,2.65-5.91,5.91v39.55c0,3.26,2.65,5.91,5.91,5.91h30.91
			c3.26,0,5.91-2.65,5.91-5.91V27.73c0-3.26-2.65-5.91-5.91-5.91H31.2z"/>
	</g>
	<g>
		<path d="M63.36,19.59c-0.09,0-0.18-0.02-0.27-0.07c-2.92-1.59-2.7-6.87-2.52-11.12c0.04-0.95,0.08-1.84,0.08-2.63
			c0-3.29-7.91-4.66-12.16-4.66H44.8c-4.24,0-12.16,1.37-12.16,4.66c0,0.78,0.03,1.68,0.08,2.63c0.18,4.24,0.4,9.53-2.52,11.12
			c-0.27,0.15-0.62,0.04-0.76-0.22c-0.15-0.27-0.04-0.62,0.22-0.76c2.31-1.25,2.09-6.16,1.94-10.09c-0.04-0.96-0.08-1.87-0.08-2.68
			C31.52,1.06,41.35,0,44.8,0h3.69c3.45,0,13.28,1.06,13.28,5.78c0,0.79-0.03,1.71-0.08,2.68c-0.17,3.93-0.37,8.83,1.94,10.09
			c0.27,0.15,0.37,0.49,0.22,0.76C63.75,19.49,63.55,19.59,63.36,19.59z"/>
	</g>
	<g>
		<path d="M48.5,94.99h-3.7c-3.45,0-13.28-1.06-13.28-5.78c0-0.79,0.03-1.71,0.08-2.68c0.17-3.93,0.37-8.83-1.94-10.09
			c-0.27-0.15-0.37-0.49-0.22-0.76c0.15-0.27,0.49-0.37,0.76-0.22c2.92,1.59,2.7,6.87,2.52,11.12c-0.04,0.95-0.08,1.84-0.08,2.63
			c0,3.29,7.91,4.66,12.16,4.66h3.69c4.24,0,12.16-1.37,12.16-4.66c0-0.78-0.03-1.68-0.08-2.63c-0.18-4.24-0.4-9.53,2.52-11.12
			c0.27-0.15,0.62-0.04,0.76,0.22c0.15,0.27,0.04,0.62-0.22,0.76c-2.31,1.25-2.09,6.16-1.94,10.09c0.04,0.96,0.08,1.87,0.08,2.68
			C61.77,93.94,51.94,94.99,48.5,94.99z"/>
	</g>
	<g>
		<path d="M72.09,40.94c-0.31,0-0.56-0.25-0.56-0.56v-8.47c0-0.31,0.25-0.56,0.56-0.56s0.56,0.25,0.56,0.56v8.47
			C72.65,40.69,72.4,40.94,72.09,40.94z"/>
	</g>
	<g>
		<path d="M72.09,60.22c-0.31,0-0.56-0.25-0.56-0.56V48.94c0-0.31,0.25-0.56,0.56-0.56s0.56,0.25,0.56,0.56v10.71
			C72.65,59.96,72.4,60.22,72.09,60.22z"/>
	</g>
</g>
<g>
	<g>
		<path d="M54.28,44.75l-5.17,0.16l2.24-11.23L41.3,49.37h4.36l-4.95,11.96L54.28,44.75z M42.58,48.67l7.36-11.49l-1.69,8.46
			l4.52-0.14l-9.61,11.74l3.53-8.56H42.58z"/>
	</g>
	<g>
		<polygon class="st0" points="43.17,57.23 46.7,48.67 42.58,48.67 49.94,37.18 48.25,45.63 52.77,45.5 		"/>
	</g>
</g>
</svg>
