<?xml version="1.0" encoding="utf-8"?>
<!-- Generator: Adobe Illustrator 27.3.1, SVG Export Plug-In . SVG Version: 6.00 Build 0)  -->
<svg version="1.1" id="Layer_1" xmlns="http://www.w3.org/2000/svg" xmlns:xlink="http://www.w3.org/1999/xlink" x="0px" y="0px"
	 viewBox="0 0 95 95" style="enable-background:new 0 0 95 95;" xml:space="preserve">
<style type="text/css">
	.st0{fill:#FF0000;}
</style>
<g>
	<g>
		<path d="M62.33,76.53H30.99c-4.76,0-8.63-3.87-8.63-8.63V27.11c0-4.76,3.87-8.63,8.63-8.63h31.35c4.76,0,8.63,3.87,8.63,8.63V67.9
			C70.96,72.66,67.09,76.53,62.33,76.53z M30.99,19.59c-4.14,0-7.51,3.37-7.51,7.51v40.78c0,4.14,3.37,7.51,7.51,7.51h31.35
			c4.14,0,7.51-3.37,7.51-7.51V27.11c0-4.14-3.37-7.51-7.51-7.51H30.99V19.59z"/>
	</g>
	<g>
		<path d="M62.11,73.95H31.2c-3.68,0-6.67-3-6.67-6.67V27.73c0-3.68,3-6.67,6.67-6.67h30.91c3.68,0,6.67,3,6.67,6.67v39.55
			C68.79,70.95,65.79,73.95,62.11,73.95z M31.2,21.82c-3.26,0-5.91,2.65-5.91,5.91v39.55c0,3.26,2.65,5.91,5.91,5.91h30.91
			c3.26,0,5.91-2.65,5.91-5.91V27.73c0-3.26-2.65-5.91-5.91-5.91H31.2z"/>
	</g>
	<g>
		<path d="M63.36,19.59c-0.09,0-0.18-0.02-0.27-0.07c-2.92-1.59-2.7-6.87-2.52-11.12c0.04-0.95,0.08-1.84,0.08-2.63
			c0-3.29-7.91-4.66-12.16-4.66H44.8c-4.24,0-12.16,1.37-12.16,4.66c0,0.78,0.03,1.68,0.08,2.63c0.18,4.24,0.4,9.53-2.52,11.12
			c-0.27,0.15-0.62,0.04-0.76-0.22c-0.15-0.27-0.04-0.62,0.22-0.76c2.31-1.25,2.09-6.16,1.94-10.09c-0.04-0.96-0.08-1.87-0.08-2.68
			C31.52,1.06,41.35,0,44.8,0h3.69c3.45,0,13.28,1.06,13.28,5.78c0,0.79-0.03,1.71-0.08,2.68c-0.17,3.93-0.37,8.83,1.94,10.09
			c0.27,0.15,0.37,0.49,0.22,0.76C63.75,19.49,63.55,19.59,63.36,19.59z"/>
	</g>
	<g>
		<path d="M48.5,94.99H44.8c-3.45,0-13.28-1.06-13.28-5.78c0-0.79,0.03-1.71,0.08-2.68c0.17-3.93,0.37-8.83-1.94-10.09
			c-0.27-0.15-0.37-0.49-0.22-0.76c0.15-0.27,0.49-0.37,0.76-0.22c2.92,1.59,2.7,6.87,2.52,11.12c-0.04,0.94-0.08,1.84-0.08,2.62
			c0,3.29,7.91,4.66,12.16,4.66h3.69c4.24,0,12.16-1.37,12.16-4.66c0-0.78-0.03-1.68-0.08-2.62c-0.18-4.24-0.4-9.53,2.52-11.12
			c0.27-0.15,0.62-0.04,0.76,0.22c0.15,0.27,0.04,0.62-0.22,0.76c-2.31,1.25-2.09,6.15-1.94,10.09c0.04,0.96,0.08,1.87,0.08,2.68
			C61.77,93.94,51.94,94.99,48.5,94.99z"/>
	</g>
	<g>
		<path d="M72.09,40.94c-0.31,0-0.56-0.25-0.56-0.56v-8.47c0-0.31,0.25-0.56,0.56-0.56c0.31,0,0.56,0.25,0.56,0.56v8.47
			C72.65,40.69,72.4,40.94,72.09,40.94z"/>
	</g>
	<g>
		<path d="M72.09,60.22c-0.31,0-0.56-0.25-0.56-0.56V48.94c0-0.31,0.25-0.56,0.56-0.56c0.31,0,0.56,0.25,0.56,0.56v10.71
			C72.65,59.96,72.4,60.22,72.09,60.22z"/>
	</g>
</g>
<g>
	<path d="M56.85,44.22c-0.15-1.57-0.68-2.99-1.6-4.28c-0.27-0.38-0.57-0.73-0.9-1.05c-0.19-0.19-0.41-0.28-0.68-0.19
		c-0.26,0.09-0.41,0.28-0.44,0.55c-0.03,0.26,0.11,0.44,0.27,0.6c1.61,1.71,2.29,3.74,2.04,6.08c-0.11,1.04-0.45,2.02-1,2.91
		c-0.32,0.53-0.71,1.01-1.13,1.46c-0.27,0.28-0.26,0.67,0,0.92c0.27,0.26,0.66,0.25,0.93-0.03c1.1-1.12,1.86-2.43,2.26-3.95
		c0.12-0.48,0.19-0.97,0.26-1.47c0-0.49,0-0.97,0-1.47C56.86,44.29,56.85,44.25,56.85,44.22z"/>
	<path d="M49.38,36.84c-0.06-0.44-0.51-0.68-0.91-0.48c-0.1,0.04-0.21,0.13-0.3,0.2c-1.9,1.52-3.81,3.05-5.71,4.57
		c-0.11,0.1-0.22,0.13-0.37,0.13c-0.87-0.01-1.74-0.01-2.6-0.01c-0.77,0.01-1.35,0.53-1.35,1.24c-0.01,1.69,0,3.37-0.01,5.06
		c0,0.19,0.04,0.37,0.15,0.55c0.26,0.48,0.68,0.68,1.21,0.69h2.62c0.13,0,0.24,0.03,0.34,0.11c1.9,1.52,3.81,3.05,5.71,4.57
		c0.1,0.08,0.2,0.17,0.32,0.22c0.39,0.19,0.84-0.04,0.91-0.47c0.01-0.11,0.02-0.25,0.02-0.36V37.23
		C49.4,37.1,49.4,36.97,49.38,36.84z M41.87,45.05c0,0.75-0.01,1.5,0,2.25c0,0.16-0.03,0.22-0.21,0.22c-0.67-0.01-1.35-0.01-2.03,0
		c-0.17,0.01-0.21-0.04-0.21-0.21c0.01-1.51,0.01-3.01,0-4.53c0-0.16,0.04-0.21,0.21-0.21c0.67,0.01,1.37,0.01,2.05,0
		c0.16,0,0.19,0.06,0.19,0.2C41.87,43.53,41.87,44.3,41.87,45.05z M48.12,51.53c0,0.04-0.01,0.1,0,0.15c0,0.11-0.04,0.11-0.12,0.04
		c-0.17-0.13-0.34-0.26-0.49-0.4c-1.39-1.11-2.78-2.23-4.18-3.34c-0.11-0.09-0.17-0.18-0.17-0.34c0.01-1.75,0.01-3.48,0-5.23
		c0-0.13,0.04-0.24,0.16-0.32c1.53-1.21,3.06-2.44,4.59-3.66c0.03-0.03,0.08-0.06,0.11-0.09c0.08-0.07,0.1-0.03,0.1,0.06
		C48.12,38.4,48.12,51.53,48.12,51.53z"/>
	<path class="st0" d="M48.12,38.41v13.12c0,0.04-0.01,0.1,0,0.15c0,0.11-0.04,0.11-0.12,0.04c-0.17-0.13-0.34-0.26-0.49-0.4
		c-1.39-1.11-2.78-2.23-4.18-3.34c-0.11-0.09-0.17-0.18-0.17-0.34c0.01-1.75,0.01-3.48,0-5.23c0-0.13,0.04-0.24,0.16-0.32
		c1.53-1.21,3.06-2.44,4.59-3.66c0.03-0.03,0.08-0.06,0.11-0.09C48.09,38.29,48.12,38.32,48.12,38.41z"/>
	<path d="M54.37,44.59c-0.01-0.16-0.03-0.31-0.06-0.47c-0.2-1.37-0.79-2.53-1.78-3.5c-0.36-0.35-0.93-0.18-1.06,0.3
		c-0.08,0.29,0.06,0.5,0.25,0.71c1.2,1.3,1.6,2.82,1.24,4.55c-0.19,0.93-0.66,1.7-1.31,2.38c-0.28,0.29-0.27,0.67,0,0.93
		c0.27,0.26,0.65,0.24,0.93-0.06c1.2-1.22,1.77-2.69,1.8-4.41C54.38,44.89,54.38,44.75,54.37,44.59z"/>
</g>
</svg>
