<?xml version="1.0" encoding="utf-8"?>
<!-- Generator: Adobe Illustrator 27.3.1, SVG Export Plug-In . SVG Version: 6.00 Build 0)  -->
<svg version="1.1" id="Layer_1" xmlns="http://www.w3.org/2000/svg" xmlns:xlink="http://www.w3.org/1999/xlink" x="0px" y="0px"
	 viewBox="0 0 95 95" style="enable-background:new 0 0 95 95;" xml:space="preserve">
<style type="text/css">
	.st0{fill:#FF0000;}
	.st1{fill:none;stroke:#000000;stroke-width:1.1539;stroke-linecap:round;stroke-miterlimit:10;}
	.st2{fill:none;stroke:#000000;stroke-width:1.0546;stroke-linecap:round;stroke-miterlimit:10;}
	.st3{fill:none;stroke:#000000;stroke-width:0.9853;stroke-linecap:round;stroke-miterlimit:10;}
	.st4{fill:none;stroke:#000000;stroke-width:1.0412;stroke-linecap:round;stroke-miterlimit:10;}
</style>
<g>
	<g>
		<path d="M41.07,5.54h12.84c0.34,0,0.61-0.27,0.61-0.61s-0.27-0.61-0.61-0.61H41.07c-0.34,0-0.61,0.27-0.61,0.61
			S40.74,5.54,41.07,5.54z"/>
	</g>
	<g>
		<path d="M77.08,87.57V50.81c0-0.34,0-0.66,0.01-0.97c0.02-1.61,0.03-2.78-0.65-3.47c-0.34-0.35-0.83-0.54-1.42-0.51
			c-1.77,0.03-2.76,1.04-3.58,2.03V3.75c0-2.07-1.69-3.75-3.76-3.75H27.31c-2.07,0-3.76,1.68-3.76,3.75v44.14
			c-0.37-0.45-0.77-0.9-1.26-1.26c-0.62-0.45-1.37-0.76-2.37-0.76c-0.57,0-1.04,0.17-1.37,0.51c-0.68,0.69-0.67,1.86-0.65,3.47
			c0.01,0.31,0.01,0.63,0.01,0.97l0.01,36.68c-0.02,0.13-0.41,3.16,1.51,5.37c1.23,1.42,3.13,2.14,5.61,2.14h44.89
			c2.48,0,4.38-0.72,5.61-2.14C77.48,90.65,77.09,87.61,77.08,87.57z M24.79,3.75c0-1.39,1.13-2.53,2.53-2.53h40.37
			c1.39,0,2.53,1.14,2.53,2.53v45.54c-0.53,0.49-1.14,0.82-2.01,0.82c-1.44,0-2.15-0.88-2.98-1.9c-0.9-1.09-1.91-2.35-3.93-2.35
			c-2.02,0-3.04,1.25-3.93,2.35c-0.83,1.02-1.54,1.9-2.98,1.9c-1.43,0-2.14-0.88-2.97-1.9c-0.89-1.09-1.91-2.35-3.92-2.35
			c-2.02,0-3.04,1.25-3.93,2.35c-0.83,1.02-1.55,1.9-2.98,1.9c-1.43,0-2.14-0.88-2.97-1.9c-0.89-1.09-1.91-2.35-3.93-2.35
			c-2.02,0-3.02,1.25-3.92,2.35c-0.83,1.02-1.54,1.9-2.98,1.9c-0.87,0-1.48-0.33-2.01-0.81V3.75z M74.64,92.05
			c-1,1.15-2.57,1.72-4.69,1.72H25.05c-2.11,0-3.69-0.57-4.69-1.72c-1.55-1.77-1.22-4.37-1.21-4.48V50.81
			c0-0.34-0.01-0.67-0.01-0.99c-0.02-1.16-0.03-2.26,0.29-2.59c0.03-0.03,0.14-0.14,0.47-0.15c1.44,0,2.15,0.88,2.98,1.9
			c0.21,0.27,0.44,0.54,0.68,0.8c0.35,0.39,0.75,0.75,1.23,1.04c0.55,0.31,1.2,0.51,2.01,0.51c2.02,0,3.04-1.24,3.93-2.35
			c0.83-1.02,1.54-1.9,2.97-1.9c1.43,0,2.15,0.88,2.98,1.9c0.89,1.1,1.9,2.35,3.92,2.35c2.02,0,3.04-1.24,3.93-2.35
			c0.83-1.02,1.54-1.9,2.98-1.9c1.43,0,2.14,0.88,2.97,1.9c0.89,1.1,1.9,2.35,3.92,2.35c2.02,0,3.04-1.24,3.93-2.35
			c0.83-1.02,1.55-1.9,2.98-1.9c1.43,0,2.14,0.88,2.97,1.9c0.9,1.1,1.91,2.35,3.94,2.35c0.82,0,1.46-0.2,2.01-0.51
			c0.48-0.28,0.87-0.64,1.23-1.03c0.24-0.27,0.48-0.54,0.69-0.81c0.83-1.02,1.57-1.87,2.99-1.9c0.31,0.01,0.41,0.12,0.45,0.15
			c0.32,0.33,0.31,1.43,0.29,2.59c0,0.32-0.01,0.65-0.01,0.99v10.24l0.01,0.02v26.59C75.86,87.68,76.2,90.27,74.64,92.05z"/>
	</g>
	<g>
		<g>
			<g>
				<path d="M52.05,32.5c-0.66-2.57-3.96-7.96-4.1-8.19l-0.46-0.74l-0.45,0.74c-0.14,0.22-3.44,5.61-4.1,8.19
					c-0.42,1.62-0.06,3.4,0.9,4.65c0.61,0.78,1.74,1.71,3.66,1.71c1.93,0,3.06-0.94,3.67-1.71C52.12,35.9,52.47,34.12,52.05,32.5z
					 M50.3,36.49c-0.66,0.85-1.64,1.31-2.82,1.31c-1.18,0-2.15-0.45-2.82-1.31c-0.77-0.99-1.04-2.42-0.7-3.72
					c0.47-1.88,2.58-5.56,3.52-7.14c0.94,1.58,3.06,5.26,3.53,7.14C51.35,34.07,51.08,35.5,50.3,36.49z"/>
			</g>
		</g>
		<g>
			<path class="st0" d="M50.3,36.49c-0.66,0.85-1.64,1.31-2.82,1.31c-1.18,0-2.15-0.45-2.82-1.31c-0.77-0.99-1.04-2.42-0.7-3.72
				c0.47-1.88,2.58-5.56,3.52-7.14c0.94,1.58,3.06,5.26,3.53,7.14C51.35,34.07,51.08,35.5,50.3,36.49z"/>
		</g>
	</g>
	<g>
		<g>
			<path d="M49.19,65.74c-0.35-0.38-0.83-0.61-1.33-0.69c-0.36-0.06-0.73-0.03-1.07,0.07c-0.37,0.11-0.7,0.31-0.97,0.6
				c-0.44,0.46-0.66,1.1-0.62,1.74l0.62,8.36c0.04,0.62,0.44,1.15,0.97,1.39c0.2,0.09,0.44,0.15,0.69,0.15
				c0.14,0,0.26-0.02,0.39-0.06c0.68-0.17,1.2-0.75,1.26-1.47l0.68-8.35C49.85,66.86,49.63,66.22,49.19,65.74z M48.05,75.76
				c-0.02,0.16-0.08,0.29-0.19,0.39c-0.1,0.1-0.25,0.16-0.39,0.16c-0.31,0-0.57-0.24-0.6-0.56l-0.08-1.14l-0.53-7.21
				c-0.02-0.35,0.09-0.69,0.32-0.94c0.06-0.06,0.13-0.12,0.2-0.18c0.2-0.14,0.45-0.21,0.7-0.21c0.14,0,0.25,0.02,0.37,0.06
				c0.21,0.06,0.4,0.17,0.55,0.33c0.24,0.26,0.36,0.59,0.32,0.94L48.05,75.76z"/>
		</g>
		<g>
			<path d="M47.86,77.83c-0.12-0.03-0.23-0.04-0.37-0.04c-0.25,0-0.48,0.05-0.7,0.14c-0.69,0.28-1.19,0.96-1.19,1.76
				c0,0.29,0.06,0.56,0.19,0.81c0.19,0.43,0.56,0.76,0.99,0.94c0.19,0.07,0.39,0.12,0.61,0.13h0.04c0.02,0.01,0.04,0.01,0.06,0.01
				c0.14,0,0.25-0.01,0.37-0.04c0.87-0.18,1.53-0.94,1.53-1.85C49.39,78.77,48.73,78.01,47.86,77.83z M47.86,80.41
				c-0.11,0.06-0.23,0.09-0.37,0.09c-0.29,0-0.56-0.17-0.7-0.42c-0.07-0.12-0.1-0.25-0.1-0.4c0-0.15,0.03-0.29,0.1-0.41
				c0.15-0.25,0.42-0.42,0.7-0.42c0.14,0,0.26,0.03,0.37,0.09c0.27,0.13,0.46,0.41,0.46,0.73C48.32,80.01,48.13,80.28,47.86,80.41z"
				/>
		</g>
		<g>
			<g>
				<path d="M61.88,78.24l-9.1-14.15l-1.07-1.67l-0.97-1.52c-0.65-1.01-1.7-1.64-2.87-1.75c-0.12-0.01-0.23-0.02-0.36-0.02
					c-0.01,0-0.01,0-0.01,0c-0.24,0-0.47,0.02-0.7,0.07c-1.03,0.18-1.94,0.79-2.53,1.69L33.12,78.24c-0.46,0.69-0.67,1.49-0.63,2.27
					c0.02,0.36,0.09,0.72,0.22,1.07c0.06,0.2,0.15,0.4,0.25,0.58c0.69,1.26,1.95,2,3.38,2h22.31c1.43,0,2.69-0.74,3.37-2
					C62.71,80.9,62.66,79.44,61.88,78.24z M61.09,81.65c-0.5,0.91-1.42,1.44-2.44,1.44H36.34c-1.02,0-1.94-0.54-2.44-1.44
					c-0.01-0.03-0.03-0.05-0.04-0.07c-0.17-0.34-0.28-0.7-0.31-1.07c-0.05-0.58,0.1-1.17,0.44-1.69l11.15-17.35
					c0.39-0.59,0.96-1.01,1.63-1.19c0.23-0.06,0.46-0.08,0.7-0.08c0.14,0,0.25,0.01,0.37,0.02c0.81,0.11,1.52,0.56,1.97,1.25
					l1.87,2.92l1.07,1.67l8.21,12.76C61.54,79.68,61.59,80.75,61.09,81.65z"/>
			</g>
			<g>
				<path class="st0" d="M60.98,78.82l-8.21-12.76l-1.07-1.67l-1.87-2.92c-0.45-0.69-1.17-1.14-1.97-1.25
					c-0.12-0.01-0.23-0.02-0.37-0.02c-0.24,0-0.47,0.03-0.7,0.08c-0.67,0.18-1.24,0.59-1.63,1.19L34,78.82
					c-0.34,0.52-0.49,1.1-0.44,1.69c0.03,0.37,0.14,0.73,0.31,1.07c0.01,0.03,0.03,0.05,0.04,0.07c0.49,0.91,1.42,1.44,2.44,1.44
					h22.31c1.03,0,1.94-0.54,2.44-1.44C61.59,80.75,61.54,79.68,60.98,78.82z M47.86,81.54c-0.12,0.03-0.23,0.04-0.37,0.04
					c-0.02,0-0.04,0-0.06-0.01H47.4c-0.22-0.01-0.43-0.06-0.61-0.13c-0.44-0.18-0.8-0.51-0.99-0.94c-0.13-0.25-0.19-0.53-0.19-0.81
					c0-0.8,0.49-1.48,1.19-1.76c0.22-0.09,0.45-0.14,0.7-0.14c0.14,0,0.25,0.01,0.37,0.04c0.87,0.18,1.53,0.94,1.53,1.86
					C49.39,80.6,48.73,81.37,47.86,81.54z M49.12,75.85c-0.06,0.72-0.58,1.31-1.26,1.47c-0.13,0.04-0.25,0.06-0.39,0.06
					c-0.25,0-0.48-0.06-0.69-0.15c-0.54-0.24-0.94-0.77-0.97-1.39l-0.62-8.36c-0.04-0.64,0.18-1.28,0.62-1.74
					c0.27-0.3,0.6-0.49,0.97-0.6c0.34-0.1,0.71-0.13,1.07-0.07c0.5,0.07,0.98,0.31,1.33,0.69c0.44,0.47,0.66,1.11,0.6,1.75
					L49.12,75.85z"/>
			</g>
		</g>
	</g>
</g>
</svg>
