<?xml version="1.0" encoding="UTF-8"?>
<svg id="Layer_1" data-name="Layer 1" xmlns="http://www.w3.org/2000/svg" viewBox="0 0 95 95">
  <defs>
    <style>
      .cls-1 {
        fill: red;
      }
    </style>
  </defs>
  <g>
    <path d="m77.7,0H17.29C15.12,0,13.36,1.77,13.36,3.94v87.13c0,2.16,1.77,3.93,3.93,3.93h60.41c2.18,0,3.94-1.77,3.94-3.93V3.94C81.64,1.77,79.88,0,77.7,0Zm2.8,91.07c0,1.54-1.25,2.79-2.8,2.79H17.29c-1.54,0-2.79-1.25-2.79-2.79V3.94c0-1.55,1.25-2.8,2.79-2.8h60.41c1.55,0,2.8,1.25,2.8,2.8v87.13Z"/>
    <path d="m52.53,5.2c0,.23-.19.42-.42.42h-9.22c-.24,0-.43-.19-.43-.42,0-.24.19-.43.43-.43h9.22c.23,0,.42.19.42.43Z"/>
    <path d="m17.17,8.68v77.97h60.64V8.68H17.17Zm59.79,77.12H18.03V9.53h58.93v76.27Z"/>
    <path d="m47.5,88.03c-1.24,0-2.25,1-2.25,2.24s1.01,2.24,2.25,2.24,2.24-1,2.24-2.24-1-2.24-2.24-2.24Zm0,3.92c-.92,0-1.69-.75-1.69-1.67s.76-1.67,1.69-1.67,1.67.75,1.67,1.67-.75,1.67-1.67,1.67Z"/>
  </g>
  <g>
    <path d="m52.95,33.75h-10.9c-.36,0-.66-.29-.66-.66s.29-.66.66-.66h10.9c.36,0,.66.29.66.66s-.29.66-.66.66Z"/>
    <g>
      <path d="m58.54,35.39h-22.07c-3,0-5.44,2.44-5.44,5.44v16.29c0,3,2.44,5.44,5.44,5.44h22.07c3,0,5.44-2.44,5.44-5.44v-16.29c0-3-2.44-5.44-5.44-5.44Zm4.13,21.73c0,2.27-1.85,4.14-4.13,4.14h-22.07c-2.28,0-4.14-1.86-4.14-4.14v-16.29c0-2.27,1.85-4.13,4.14-4.13h22.07c2.27,0,4.13,1.85,4.13,4.13v16.29Z"/>
      <path class="cls-1" d="m58.54,36.71h-22.07c-2.28,0-4.14,1.85-4.14,4.13v16.29c0,2.27,1.85,4.14,4.14,4.14h22.07c2.27,0,4.13-1.86,4.13-4.14v-16.29c0-2.27-1.85-4.13-4.13-4.13Zm-11.04,19.56c-4.02,0-7.3-3.27-7.3-7.29s3.27-7.3,7.3-7.3,7.29,3.27,7.29,7.3-3.27,7.29-7.29,7.29Z"/>
    </g>
    <path d="m47.5,41.69c-4.02,0-7.3,3.27-7.3,7.3s3.27,7.29,7.3,7.29,7.29-3.27,7.29-7.29-3.27-7.3-7.29-7.3Zm0,13.28c-3.3,0-5.98-2.68-5.98-5.98s2.68-5.98,5.98-5.98,5.98,2.68,5.98,5.98-2.68,5.98-5.98,5.98Z"/>
  </g>
</svg>