<?xml version="1.0" encoding="UTF-8"?>
<svg id="Layer_1" data-name="Layer 1" xmlns="http://www.w3.org/2000/svg" viewBox="0 0 95 95">
  <defs>
    <style>
      .cls-1 {
        fill: red;
      }
    </style>
  </defs>
  <g>
    <g>
      <path d="m70.21,50.12l-.75.49-18.87,12.42-7.83-6.95-10.07,12.87-6.39-5.77-4.86,5.22v7.17h1v-6.78l3.92-4.21,6.46,5.83,10.07-12.88,7.61,6.76,18.96-12.49.75-.49,2.11-1.39.24.86v-2.21l-2.35,1.55Zm0,0l-.75.49-18.87,12.42-7.83-6.95-10.07,12.87-6.39-5.77-4.86,5.22v7.17h1v-6.78l3.92-4.21,6.46,5.83,10.07-12.88,7.61,6.76,18.96-12.49.75-.49,2.11-1.39.24.86v-2.21l-2.35,1.55Zm3.71,1.83l-.36-1.29-.65-2.32-.35.23-2.35,1.55-.75.49-18.87,12.42-7.83-6.95-10.07,12.87-6.39-5.77-4.86,5.22v22.91c0,1.9,1.55,3.45,3.45,3.45h53.05c1.91,0,3.46-1.55,3.46-3.45v-47.5l-7.48,8.14Zm6.48,39.36c0,1.35-1.1,2.45-2.46,2.45H24.89c-1.35,0-2.45-1.1-2.45-2.45v-22.52l3.92-4.21,6.46,5.83,10.07-12.88,7.61,6.76,18.96-12.49.75-.49,2.11-1.39.24.86.88,3.17.12-.13,6.84-7.44v44.93Zm-10.19-41.19l-.75.49-18.87,12.42-7.83-6.95-10.07,12.87-6.39-5.77-4.86,5.22v7.17h1v-6.78l3.92-4.21,6.46,5.83,10.07-12.88,7.61,6.76,18.96-12.49.75-.49,2.11-1.39.24.86v-2.21l-2.35,1.55Zm0,0l-.75.49v1.19l.75-.49,2.11-1.39.24.86v-2.21l-2.35,1.55Z"/>
      <path class="cls-1" d="m80.4,46.38v44.93c0,1.35-1.1,2.45-2.46,2.45H24.89c-1.35,0-2.45-1.1-2.45-2.45v-22.52l3.92-4.21,6.46,5.83,10.07-12.88,7.61,6.76,18.96-12.49.75-.49,2.11-1.39.24.86.88,3.17.12-.13,6.84-7.44Z"/>
    </g>
    <g>
      <path d="m24.89,11.34c-1.9,0-3.45,1.55-3.45,3.46v37.55l4.25-2.64,10.49,6.08,7.56-15.53,11.75,3.25-2.31-5.25,16.28-2.86v-1.02l-17.7,3.12,1.97,4.48-10.53-2.91-7.44,15.32-10.08-5.84-3.24,2V14.8c0-1.36,1.1-2.46,2.45-2.46h47.67v-1H24.89Zm53.05,0H24.89c-1.9,0-3.45,1.55-3.45,3.46v37.55l4.25-2.64,10.49,6.08,7.56-15.53,11.75,3.25-2.31-5.25,16.28-2.86.75-.13,1.74-.31.61-2.44.67-2.68.33-.04,7.84-.83v-14.17c0-1.91-1.55-3.46-3.46-3.46Zm2.46,16.73l-6.84.73-1,.11h-.13s-1.29,5.17-1.29,5.17l-.93.16-.75.14-17.7,3.12,1.97,4.48-10.53-2.91-7.44,15.32-10.08-5.84-3.24,2V14.8c0-1.36,1.1-2.46,2.45-2.46h53.05c1.36,0,2.46,1.1,2.46,2.46v13.27Zm-10.94-16.73v1h3.1v-1h-3.1Z"/>
      <path class="cls-1" d="m80.4,14.8v13.27l-6.84.73-1,.11h-.13s-1.29,5.17-1.29,5.17l-.93.16-.75.14-17.7,3.12,1.97,4.48-10.53-2.91-7.44,15.32-10.08-5.84-3.24,2V14.8c0-1.36,1.1-2.46,2.45-2.46h53.05c1.36,0,2.46,1.1,2.46,2.46Z"/>
    </g>
  </g>
  <path d="m70.1.24H17.06c-1.91,0-3.46,1.55-3.46,3.45v76.51c0,1.91,1.55,3.46,3.46,3.46h5.38v-1h-5.38c-1.36,0-2.46-1.1-2.46-2.46V3.69c0-1.35,1.1-2.45,2.46-2.45h53.04c1.36,0,2.46,1.1,2.46,2.45v8.65h1V3.69c0-1.9-1.55-3.45-3.46-3.45Zm2.46,28.67v21.87l.88,3.17.12-.13v-25.02l-1,.11Z"/>
  <path d="m47.63,5.18h-8.1c-.21,0-.38-.17-.38-.38s.17-.38.38-.38h8.1c.21,0,.38.17.38.38s-.17.38-.38.38Z"/>
  <path d="m69.46,34.38v17.42l.75-.49v-17.07l-.75.14ZM16.96,7.86v68.46h5.48v-.75h-4.73V8.61h51.75v3.73h.75v-4.48H16.96Z"/>
</svg>