<?xml version="1.0" encoding="UTF-8"?>
<svg id="Layer_1" data-name="Layer 1" xmlns="http://www.w3.org/2000/svg" viewBox="0 0 95 95">
  <defs>
    <style>
      .cls-1 {
        fill: red;
      }
    </style>
  </defs>
  <g>
    <path d="m51.11,45.73c-.1-.27-.31-.4-.59-.4-.58-.01-1.18-.01-1.76,0-.19,0-.25-.06-.24-.24.02-.45.01-.91,0-1.38,0-.15.05-.2.2-.19.24.01.49.01.73,0,.35-.03.59-.32.58-.64-.01-.31-.26-.56-.59-.58-.11-.01-.23,0-.33,0q-.57,0-.58-.55c-.02-.42-.26-.66-.68-.67-.1,0-.19-.01-.3.01-.18.01-.26-.03-.25-.23.02-.23.02-.45.01-.67-.02-.35-.27-.61-.59-.63-.33-.01-.6.26-.63.63-.01.23-.02.47,0,.69.01.17-.06.2-.22.2-.43-.01-.89-.02-1.33,0-.22,0-.27-.07-.26-.27,0-.58.01-1.16,0-1.74-.02-.45-.42-.74-.82-.58-.3.13-.4.35-.4.66v1.74c0,.14-.02.19-.18.19-.48-.01-.95-.01-1.43,0-.15,0-.19-.05-.19-.19.02-.25.02-.5,0-.76-.02-.33-.3-.57-.61-.57-.32.01-.57.26-.59.6-.01.14,0,.27,0,.41-.01.5,0,.5-.5.5-.49.01-.7.24-.72.72,0,.09-.01.2,0,.3.02.17-.05.22-.2.2-.23-.01-.44-.01-.67,0-.35.01-.64.26-.64.6s.27.59.63.61c.22.01.44.01.67,0,.17-.01.23.03.22.2-.01.44-.01.89,0,1.32.01.22-.03.3-.27.28-.58-.02-1.16-.02-1.74,0-.5.02-.77.52-.51.93.15.23.39.28.64.28.56,0,1.13,0,1.68-.01.14,0,.22.01.2.19-.01.48-.01.95,0,1.43.01.16-.06.18-.19.18-.24-.01-.48-.01-.73,0-.34.02-.59.3-.59.61s.27.58.6.6c.2,0,.4.01.59,0,.26-.05.34.05.33.32-.02.73.16.9.89.9h.11c.18-.03.22.05.2.2-.01.22-.01.44,0,.67.01.36.26.63.6.63.32,0,.59-.25.6-.6.02-.2.02-.42,0-.64-.01-.2.03-.28.26-.27.43.02.85.01,1.27.01.22-.01.27.03.27.25-.01.58-.01,1.16,0,1.74.01.38.27.63.61.63s.58-.24.6-.63v-1.76c-.01-.17.02-.24.2-.23h1.4c.17-.01.22.05.2.19-.01.23-.01.45,0,.68.01.35.27.63.6.63s.59-.26.61-.63c.01-.23.01-.47,0-.69-.01-.16.05-.18.18-.18.95-.05.97-.06,1.02-1.05.01-.13.03-.18.17-.17h.69c.38-.01.65-.26.65-.6.01-.33-.26-.6-.63-.61-.23-.01-.47-.01-.69,0-.15,0-.19-.05-.19-.18.01-.47.01-.93,0-1.4,0-.19.06-.23.22-.23.56.01,1.1.01,1.65.01.22,0,.43-.02.59-.2.16-.17.23-.38.14-.61Zm-3.8,3.57c0,.23-.08.26-.27.26-1.14-.01-2.26,0-3.39,0s-2.23-.01-3.34,0c-.2,0-.25-.06-.25-.25,0-2.25.01-4.51,0-6.75-.01-.22.08-.25.26-.25,2.24.01,4.48.01,6.73,0,.2,0,.26.06.26.26-.01,2.25-.01,4.49,0,6.73Z"/>
    <path d="m52.28,53.38c-.73-.01-1.45-.01-2.19,0-.48,0-.7.22-.7.7v9.14c0,.48.24.7.72.7.74.01,1.45.01,2.18.01.55-.01.75-.23.75-.77v-9.04c0-.55-.19-.75-.75-.75Zm-.45,9.09c0,.2-.06.26-.25.25-.32-.02-.73.1-.92-.06-.19-.17-.06-.59-.06-.91v-6.87c0-.25.06-.33.3-.31.23.02.47.02.7,0,.19-.01.23.07.23.25-.01,1.26-.01,2.52-.01,3.8s0,2.56.01,3.84Z"/>
    <path d="m57.16,53.38c-.73-.01-1.47-.01-2.19,0-.49,0-.7.22-.7.7v9.14c0,.48.23.7.72.7.73.01,1.45.01,2.18.01.55-.01.75-.23.75-.77v-9.04c0-.55-.2-.75-.75-.75Zm-.45,9.09c0,.19-.06.26-.26.25-.31-.03-.72.1-.9-.06-.2-.17-.07-.59-.07-.9,0-2.3,0-4.59-.01-6.88,0-.24.07-.33.31-.31.23.02.47.02.69,0,.2-.01.24.07.24.24-.01,1.27-.01,2.53-.01,3.81s0,2.56.01,3.84Z"/>
    <path d="m46.21,63.92c-.19.02-.38.01-.57.01h-8.54c-.09,0-.18,0-.27-.01-.36-.02-.63-.27-.61-.63.01-.33.26-.57.61-.58.4-.02.8-.01,1.19-.01h3.47c1.52,0,3.05.01,4.57,0,.26,0,.48.07.63.3.24.39-.01.89-.48.92Z"/>
    <path d="m46.77,60.65c0,.38-.26.59-.7.59h-4.35c-.43,0-.73-.24-.73-.59,0-.38.28-.63.74-.63h4.32c.48,0,.74.23.73.63Z"/>
    <path d="m41.6,57.97c0,.38-.26.6-.72.6h-3.94c-.44,0-.72-.24-.72-.61s.27-.6.73-.6h3.94c.45,0,.7.23.7.61Z"/>
    <path d="m57.91,43.1c.01.38-.25.61-.7.61h-3.52c-.44,0-.7-.24-.69-.61,0-.36.27-.59.69-.6h3.52c.43.01.69.24.7.6Z"/>
    <path d="m57.91,46.02c.01.36-.25.6-.67.61h-3.6c-.4-.01-.65-.25-.66-.6,0-.35.26-.61.65-.61,1.22-.01,2.42-.01,3.63,0,.4,0,.66.26.66.6Z"/>
    <path d="m57.91,48.97c-.01.36-.27.59-.7.59h-3.52c-.43,0-.69-.23-.7-.6,0-.36.27-.61.7-.61h3.53c.43,0,.7.25.69.63Z"/>
    <path d="m38.79,60.64c0,.35-.24.59-.61.6-.22.01-.42,0-.65,0s-.47.01-.69,0c-.35-.01-.6-.26-.61-.59,0-.34.25-.61.61-.63h1.34c.38.01.63.27.61.61Z"/>
    <path d="m46.77,57.95c.01.34-.23.6-.57.63h-1.09c-.33-.02-.58-.28-.58-.6s.24-.59.58-.61c.18-.01.36,0,.55,0s.36-.01.56,0c.32.02.56.27.56.59Z"/>
    <path d="m44.88,44.05c-.39,0-.79,0-1.19,0s-.79,0-1.18,0c-.49,0-.71.22-.72.69v2.38c0,.47.23.69.69.69.8,0,1.6,0,2.4,0,.45,0,.68-.23.68-.68,0-.8,0-1.62,0-2.43,0-.45-.23-.66-.69-.66Zm-1.17,2.55q-.7,0-.7-.7t.63-.63h.04q.68,0,.68.69,0,.64-.64.64Z"/>
    <g>
      <path d="m58.4,36.03h-8.38c-.09,0-.18-.01-.27,0h-13.97c-1.64,0-2.66,1.02-2.66,2.66v14.71c0,3.76,0,7.51.01,11.26,0,1.23.68,2.14,1.85,2.48.05.02.11,0,.15.07h23.81s.02-.03.03-.03c1.35-.33,2.03-1.22,2.03-2.6v-25.92c0-1.59-1.02-2.63-2.61-2.63Zm1.41,28.59c0,.88-.51,1.39-1.38,1.39h-22.72c-.88,0-1.36-.51-1.36-1.39v-25.98c0-.9.49-1.39,1.39-1.39h22.68c.9,0,1.4.49,1.4,1.4v25.97Z"/>
      <path class="cls-1" d="m58.41,37.25h-22.68c-.9,0-1.39.49-1.39,1.39v25.98c0,.88.49,1.39,1.36,1.39h22.72c.86,0,1.38-.51,1.38-1.39v-25.97c0-.91-.5-1.4-1.4-1.4Zm-12.37,22.78c.48,0,.74.23.73.63,0,.38-.26.59-.7.59h-4.35c-.43,0-.73-.24-.73-.59,0-.38.28-.63.74-.63h4.32Zm-1.51-2.06c0-.32.24-.59.58-.61.18-.01.36,0,.55,0s.36-.01.56,0c.32.02.56.27.56.59.01.34-.23.6-.57.63h-1.09c-.33-.02-.58-.28-.58-.6Zm-3.65.6h-3.94c-.44,0-.72-.24-.72-.61s.27-.6.73-.6h3.94c.45,0,.7.23.7.61s-.26.6-.72.6Zm-4.05,1.45h1.34c.38.01.63.27.61.61,0,.35-.24.59-.61.6-.22.01-.42,0-.65,0s-.47.01-.69,0c-.35-.01-.6-.26-.61-.59,0-.34.25-.61.61-.63Zm9.38,3.9c-.19.02-.38.01-.57.01h-8.54c-.09,0-.18,0-.27-.01-.36-.02-.63-.27-.61-.63.01-.33.26-.57.61-.58.4-.02.8-.01,1.19-.01h3.47c1.52,0,3.05.01,4.57,0,.26,0,.48.07.63.3.24.39-.01.89-.48.92Zm2.31-14.2c-.06.99-.07,1-1.02,1.05-.14,0-.19.02-.18.18.01.23.01.47,0,.69-.02.36-.28.63-.61.63s-.59-.27-.6-.63c-.01-.23-.01-.45,0-.68.01-.15-.03-.2-.2-.19h-1.4c-.18-.01-.22.06-.2.23v1.76c-.02.39-.27.63-.6.63s-.6-.25-.61-.63c-.01-.58-.01-1.16,0-1.74,0-.22-.06-.26-.27-.25-.42,0-.84.01-1.27-.01-.23-.01-.27.07-.26.27.02.22.02.43,0,.64-.01.35-.28.6-.6.6-.34,0-.59-.26-.6-.63-.01-.23-.01-.45,0-.67.01-.16-.02-.24-.2-.2h-.11c-.73,0-.91-.17-.89-.9.01-.27-.07-.36-.33-.32-.19.01-.39,0-.59,0-.33-.02-.6-.28-.6-.6s.25-.59.59-.61c.25-.01.49-.01.73,0,.14,0,.2-.02.19-.18-.01-.48-.01-.95,0-1.43.01-.18-.07-.19-.2-.19-.56.01-1.13.01-1.68.01-.25,0-.49-.06-.64-.28-.26-.41.01-.91.51-.93.58-.02,1.16-.02,1.74,0,.24.01.28-.07.27-.28-.01-.43-.01-.88,0-1.32.01-.17-.05-.22-.22-.2-.23.01-.45.01-.67,0-.35-.02-.63-.28-.63-.61s.28-.59.64-.6c.23-.01.44-.01.67,0,.16.01.23-.03.2-.2-.01-.09,0-.2,0-.3.01-.48.23-.7.72-.72.5,0,.49,0,.5-.5,0-.14-.01-.27,0-.41.02-.34.27-.59.59-.6.32,0,.59.24.61.57.02.26.02.51,0,.76,0,.15.05.19.19.19.48-.01.95-.01,1.43,0,.16,0,.18-.06.18-.19v-1.74c0-.31.1-.53.4-.66.4-.16.8.13.82.58.01.58,0,1.16,0,1.74-.01.2.05.27.26.27.44-.02.9-.01,1.33,0,.16,0,.23-.03.22-.2-.02-.23-.01-.47,0-.69.02-.36.3-.64.63-.63.32.01.57.27.59.63.01.22.01.44-.01.67-.01.19.07.24.25.23.1-.02.19-.01.3-.01.42.01.66.25.68.67q.01.55.58.55c.1,0,.22-.01.33,0,.33.02.58.27.59.58.01.32-.23.6-.58.64-.24.01-.49.01-.73,0-.16-.01-.2.05-.2.19.01.47.02.92,0,1.38-.01.18.05.24.24.24.58-.01,1.18-.01,1.76,0,.28,0,.49.13.59.4.09.24.02.44-.14.61-.16.18-.38.2-.59.2-.55,0-1.09,0-1.65-.01-.16,0-.22.03-.22.23.01.47.01.93,0,1.4,0,.14.05.18.19.18.23-.01.47-.01.69,0,.36.01.64.28.63.61,0,.34-.27.59-.65.6h-.69c-.14-.01-.16.05-.17.17Zm4.51,13.44c0,.55-.2.76-.75.77-.73,0-1.44,0-2.18-.01-.48,0-.72-.23-.72-.7v-9.14c0-.49.23-.7.7-.7.74-.01,1.47-.01,2.19,0,.56,0,.75.2.75.75v9.04Zm4.88,0c0,.55-.2.76-.75.77-.73,0-1.45,0-2.18-.01-.49,0-.72-.23-.72-.7v-9.14c0-.49.22-.7.7-.7.73-.01,1.47-.01,2.19,0,.55,0,.75.2.75.75v9.04Zm-.7-13.61h-3.52c-.43,0-.69-.23-.7-.6,0-.36.27-.61.7-.61h3.53c.43,0,.7.25.69.63-.01.36-.27.59-.7.59Zm.03-2.92h-3.6c-.4-.01-.65-.25-.66-.6,0-.35.26-.61.65-.61,1.22-.01,2.42-.01,3.63,0,.4,0,.66.26.66.6.01.36-.25.6-.67.61Zm-.03-2.92h-3.52c-.44,0-.7-.24-.69-.61,0-.36.27-.59.69-.6h3.52c.43.01.69.24.7.6.01.38-.25.61-.7.61Zm0-2.92c-.58.01-1.17,0-1.76,0s-1.17.01-1.76,0c-.44,0-.7-.24-.69-.63,0-.35.27-.59.69-.59h3.52c.44,0,.72.26.7.64-.01.35-.26.58-.7.58Z"/>
      <path d="m57.91,40.21c-.01.35-.26.58-.7.58-.58.01-1.17,0-1.76,0s-1.17.01-1.76,0c-.44,0-.7-.24-.69-.63,0-.35.27-.59.69-.59h3.52c.44,0,.72.26.7.64Z"/>
      <path d="m61.9,22.67l-3.33,4.47,2.28,2.34-1.97,2.97c-.2.3-.12.71.18.91.11.07.24.11.36.11.21,0,.42-.1.55-.29l2.56-3.85-2.24-2.29,2.66-3.57c.22-.29.16-.7-.13-.92-.29-.21-.7-.15-.92.13Z"/>
      <path d="m71.02,26.36l-5.09,2.28.85,3.15-3.17,1.63c-.32.17-.45.56-.28.88.12.23.35.36.58.36.1,0,.2-.02.3-.07l4.11-2.11-.84-3.1,4.06-1.82c.33-.15.48-.54.33-.87-.15-.33-.54-.48-.87-.33Z"/>
    </g>
  </g>
  <g>
    <path d="m77.7,0H17.29C15.12,0,13.36,1.77,13.36,3.94v87.13c0,2.16,1.77,3.93,3.93,3.93h60.41c2.18,0,3.94-1.77,3.94-3.93V3.94C81.64,1.77,79.88,0,77.7,0Zm2.8,91.07c0,1.54-1.25,2.79-2.8,2.79H17.29c-1.54,0-2.79-1.25-2.79-2.79V3.94c0-1.55,1.25-2.8,2.79-2.8h60.41c1.55,0,2.8,1.25,2.8,2.8v87.13Z"/>
    <path d="m52.53,5.2c0,.23-.19.42-.42.42h-9.22c-.24,0-.43-.19-.43-.42,0-.24.19-.43.43-.43h9.22c.23,0,.42.19.42.43Z"/>
    <path d="m17.17,8.68v77.97h60.64V8.68H17.17Zm59.79,77.12H18.03V9.53h58.93v76.27Z"/>
    <path d="m47.5,88.03c-1.24,0-2.25,1-2.25,2.24s1.01,2.24,2.25,2.24,2.24-1,2.24-2.24-1-2.24-2.24-2.24Zm0,3.92c-.92,0-1.69-.75-1.69-1.67s.76-1.67,1.69-1.67,1.67.75,1.67,1.67-.75,1.67-1.67,1.67Z"/>
  </g>
</svg>