<?xml version="1.0" encoding="UTF-8"?>
<svg id="Layer_1" data-name="Layer 1" xmlns="http://www.w3.org/2000/svg" viewBox="0 0 95 95">
  <defs>
    <style>
      .cls-1 {
        fill: red;
      }
    </style>
  </defs>
  <path d="m77.7,0H17.29C15.12,0,13.36,1.77,13.36,3.94v87.13c0,2.16,1.76,3.93,3.93,3.93h60.41c2.18,0,3.94-1.77,3.94-3.93V3.94C81.64,1.77,79.88,0,77.7,0Zm2.8,91.07c0,1.54-1.25,2.79-2.8,2.79H17.29c-1.54,0-2.79-1.25-2.79-2.79V3.94c0-1.55,1.25-2.8,2.79-2.8h60.41c1.55,0,2.8,1.25,2.8,2.8v87.13Z"/>
  <path d="m52.53,5.2c0,.23-.19.42-.42.42h-9.22c-.24,0-.43-.19-.43-.42,0-.24.19-.43.43-.43h9.22c.23,0,.42.19.42.43Z"/>
  <path d="m17.17,8.68v77.97h60.64V8.68H17.17Zm59.79,77.12H18.03V9.53h58.93v76.27Z"/>
  <g>
    <path d="m47.5,88.03c-1.24,0-2.26,1-2.26,2.24s1.02,2.25,2.26,2.25,2.24-1,2.24-2.25-1-2.24-2.24-2.24Zm0,3.92c-.92,0-1.69-.75-1.69-1.68s.77-1.67,1.69-1.67,1.67.75,1.67,1.67-.75,1.68-1.67,1.68Z"/>
    <path class="cls-1" d="m49.17,90.27c0,.93-.75,1.68-1.67,1.68s-1.69-.75-1.69-1.68.77-1.67,1.69-1.67,1.67.75,1.67,1.67Z"/>
  </g>
</svg>