<?xml version="1.0" encoding="UTF-8"?>
<svg id="Layer_1" data-name="Layer 1" xmlns="http://www.w3.org/2000/svg" viewBox="0 0 95 95">
  <defs>
    <style>
      .cls-1 {
        fill: red;
      }
    </style>
  </defs>
  <g>
    <path d="m61.85,54.05c-2.22-2.22-4.38-1.88-5.17-1.64l-5.69-5.69-.67-.67-.67.67.66.67,5.91,5.91.24.23.3-.14c.09-.03,2.19-.92,4.43,1.33,1.47,1.45,1.69,2.91,1.66,3.8l-1.5-1.5c-.68-.68-1.26-1.02-1.74-1.02-.24,0-.45.09-.61.25l-2.69,2.69c-.3.3-.59,1,.76,2.35l1.51,1.5c-.89.05-2.34-.19-3.81-1.65-2.24-2.25-1.35-4.35-1.32-4.43l.14-.31-14.74-14.74-.24-.23-.3.13c-.09.05-2.19.93-4.43-1.32-1.47-1.47-1.69-2.92-1.66-3.8l1.5,1.5c.44.44.85.74,1.2.9.63.26.99.03,1.15-.14l2.69-2.69c.16-.16.25-.38.25-.61,0-.48-.33-1.05-1.01-1.73l-1.5-1.5c.85-.05,2.33.18,3.8,1.65,2.24,2.25,1.35,4.35,1.32,4.43l-.14.3,6.82,6.82.67-.67-.67-.67-5.71-5.71c.24-.8.58-2.96-1.63-5.17-2.72-2.71-5.5-1.8-5.62-1.75l-.72.25,2.69,2.69c.69.69.73,1.01.76,1.01l-2.64,2.66s-.35-.02-1.07-.74l-2.69-2.69-.24.72c-.05.13-.95,2.91,1.75,5.62,2.21,2.22,4.38,1.86,5.17,1.63l14.09,14.09c-.24.81-.58,2.97,1.63,5.18,1.6,1.59,3.22,1.93,4.31,1.93.76,0,1.26-.17,1.31-.18l.72-.25-2.69-2.69c-.69-.69-.73-1.01-.76-1.01l2.64-2.66s.35.02,1.07.74l2.69,2.68.24-.72c.05-.11.95-2.9-1.75-5.6Z"/>
    <g>
      <g>
        <path d="m60.77,31.69l-5.88,3.4-.99,3.32-5.62,5.62-1.45,1.45c-.45-.3-.86-.42-1.15-.42-.49.01-.78.32-.97.52l-.98.99-.22.2c-.19-.14-.38-.25-.53-.34-.27-.16-.63-.31-1-.27-.26.01-.55.13-.81.39l-8.8,8.81c-2.35,2.35-.63,5.37.61,6.64h.01c.81.8,2.33,1.78,3.93,1.78.91,0,1.85-.31,2.71-1.16l8.8-8.81c.25-.25.39-.5.4-.8.03-.43-.17-.92-.63-1.55l.22-.2.98-.98c.2-.19.52-.48.52-.98.01-.32-.13-.69-.42-1.14l.78-.78.68-.67,5.6-5.62,3.32-1,3.4-5.88-2.53-2.53Zm-12.99,21.46l-8.8,8.8c-2.26,2.26-5.14-.47-5.31-.63-.16-.17-2.89-3.03-.61-5.3l8.8-8.81c.11-.11.22-.22.67.05.57.31,1.45,1.08,2.8,2.41,2.73,2.74,2.69,3.23,2.46,3.48Zm1-3.57l-1.01,1.01-.1.09-1.67-1.67-1.68-1.68.1-.09,1-1.01c.16-.17.22-.23.3-.23.09,0,.34.06.86.47l1.02.93.93,1.02c.41.52.47.77.47.88,0,.07-.06.14-.22.28Zm10.49-10.28l-3.07.92-5.89,5.82-.67.67-.72.7c-.19-.22-.41-.44-.66-.69-.24-.25-.48-.47-.68-.66l.7-.7.67-.67,5.69-5.69,1.05-3.27,4.92-2.85,1.5,1.51-2.85,4.92Z"/>
        <path class="cls-1" d="m45.32,49.68c-1.34-1.33-2.23-2.1-2.8-2.41-.45-.26-.56-.16-.67-.05l-8.8,8.81c-2.27,2.26.45,5.13.61,5.3.17.16,3.05,2.89,5.31.63l8.8-8.8c.24-.25.27-.74-2.46-3.48Zm-10.23,7.29c-.12,0-.24-.05-.34-.15-.18-.18-.18-.48,0-.67l6.68-6.67c.18-.18.48-.18.67,0,.18.18.18.49,0,.67l-6.68,6.67c-.09.1-.2.15-.33.15Zm1.72,1.71c-.12,0-.25-.05-.34-.14-.18-.18-.18-.49,0-.67l6.68-6.67c.18-.18.48-.18.67,0,.18.18.18.48,0,.67l-6.68,6.67c-.09.09-.22.14-.33.14Zm8.72-5.1l-6.67,6.68c-.09.09-.22.14-.34.14-.11,0-.24-.05-.33-.14-.18-.18-.18-.49,0-.67l6.67-6.68c.19-.18.49-.18.67,0,.19.19.19.49,0,.67Z"/>
      </g>
      <g>
        <path d="m42.1,50.14l-6.68,6.67c-.09.1-.2.15-.33.15s-.24-.05-.34-.15c-.18-.18-.18-.48,0-.67l6.68-6.67c.18-.18.48-.18.67,0,.18.18.18.49,0,.67Z"/>
        <path d="m43.82,51.86l-6.68,6.67c-.09.09-.22.14-.33.14-.12,0-.25-.05-.34-.14-.18-.18-.18-.49,0-.67l6.68-6.67c.18-.18.48-.18.67,0,.18.18.18.48,0,.67Z"/>
        <path d="m45.53,53.56l-6.67,6.68c-.09.09-.22.14-.34.14-.11,0-.24-.05-.33-.14-.18-.18-.18-.49,0-.67l6.67-6.68c.19-.18.49-.18.67,0,.19.19.19.49,0,.67Z"/>
      </g>
    </g>
  </g>
  <g>
    <path d="m77.7,0H17.29C15.12,0,13.36,1.77,13.36,3.94v87.13c0,2.16,1.77,3.93,3.93,3.93h60.41c2.18,0,3.94-1.77,3.94-3.93V3.94C81.64,1.77,79.88,0,77.7,0Zm2.8,91.07c0,1.54-1.25,2.79-2.8,2.79H17.29c-1.54,0-2.79-1.25-2.79-2.79V3.94c0-1.55,1.25-2.8,2.79-2.8h60.41c1.55,0,2.8,1.25,2.8,2.8v87.13Z"/>
    <path d="m52.53,5.2c0,.23-.19.42-.42.42h-9.22c-.24,0-.43-.19-.43-.42,0-.24.19-.43.43-.43h9.22c.23,0,.42.19.42.43Z"/>
    <path d="m17.17,8.68v77.97h60.64V8.68H17.17Zm59.79,77.12H18.03V9.53h58.93v76.27Z"/>
    <path d="m47.5,88.03c-1.24,0-2.25,1-2.25,2.24s1.01,2.24,2.25,2.24,2.24-1,2.24-2.24-1-2.24-2.24-2.24Zm0,3.92c-.92,0-1.69-.75-1.69-1.67s.76-1.67,1.69-1.67,1.67.75,1.67,1.67-.75,1.67-1.67,1.67Z"/>
  </g>
</svg>