<?xml version="1.0" encoding="UTF-8"?>
<svg id="Layer_1" data-name="Layer 1" xmlns="http://www.w3.org/2000/svg" viewBox="0 0 95 95">
  <defs>
    <style>
      .cls-1 {
        fill: red;
      }
    </style>
  </defs>
  <g>
    <path d="m54.59,56.35c-.13,0-.26-.04-.37-.12-.3-.21-.37-.61-.17-.91,6.31-9.14.34-15.25.08-15.51-.26-.26-.26-.67,0-.93.25-.26.67-.26.93,0,.07.07,7.03,7.12.08,17.19-.13.18-.33.28-.54.28Z"/>
    <path d="m57.58,59.66c-.14,0-.28-.04-.4-.13-.29-.22-.35-.63-.13-.92,9.15-12.05.42-21.81.04-22.22-.24-.27-.23-.68.04-.93.27-.24.68-.23.93.04.1.11,9.86,10.97.04,23.9-.13.17-.33.26-.52.26Z"/>
    <g>
      <path d="m41.9,40.65h-9.38v13.08h9.13l9.99,6.49v-25.44l-9.74,5.87Zm8.43,17.15l-7.59-4.93-.7-.45h-8.2v-10.46h8.42l.48-.28,7.59-4.57v20.7Z"/>
      <rect class="cls-1" x="33.84" y="41.95" width="7.59" height="10.46"/>
      <polygon class="cls-1" points="50.34 37.1 50.34 57.8 42.74 52.86 42.74 41.67 50.34 37.1"/>
    </g>
    <path d="m42.74,41.29v11.78c0,.36-.3.66-.66.66s-.65-.3-.65-.66v-11.78c0-.36.28-.65.65-.65s.66.28.66.65Z"/>
  </g>
  <g>
    <path d="m77.7,0H17.29C15.12,0,13.36,1.77,13.36,3.94v87.13c0,2.16,1.77,3.93,3.93,3.93h60.41c2.18,0,3.94-1.77,3.94-3.93V3.94C81.64,1.77,79.88,0,77.7,0Zm2.8,91.07c0,1.54-1.25,2.79-2.8,2.79H17.29c-1.54,0-2.79-1.25-2.79-2.79V3.94c0-1.55,1.25-2.8,2.79-2.8h60.41c1.55,0,2.8,1.25,2.8,2.8v87.13Z"/>
    <path d="m52.53,5.2c0,.23-.19.42-.42.42h-9.22c-.24,0-.43-.19-.43-.42,0-.24.19-.43.43-.43h9.22c.23,0,.42.19.42.43Z"/>
    <path d="m17.17,8.68v77.97h60.64V8.68H17.17Zm59.79,77.12H18.03V9.53h58.93v76.27Z"/>
    <path d="m47.5,88.03c-1.24,0-2.25,1-2.25,2.24s1.01,2.24,2.25,2.24,2.24-1,2.24-2.24-1-2.24-2.24-2.24Zm0,3.92c-.92,0-1.69-.75-1.69-1.67s.76-1.67,1.69-1.67,1.67.75,1.67,1.67-.75,1.67-1.67,1.67Z"/>
  </g>
</svg>