<?xml version="1.0" encoding="UTF-8"?>
<svg id="Layer_1" data-name="Layer 1" xmlns="http://www.w3.org/2000/svg" viewBox="0 0 95 95">
  <defs>
    <style>
      .cls-1 {
        fill: red;
      }
    </style>
  </defs>
  <g>
    <path d="m52.06,39.39c-.66-2.57-3.96-7.96-4.1-8.19l-.46-.74-.45.74c-.14.22-3.44,5.61-4.1,8.19-.42,1.62-.06,3.4.9,4.65.61.78,1.74,1.71,3.66,1.71s3.06-.94,3.67-1.71c.96-1.25,1.32-3.03.9-4.65Zm-1.75,3.99c-.66.85-1.64,1.31-2.82,1.31s-2.15-.45-2.82-1.31c-.77-.99-1.04-2.42-.7-3.72.47-1.88,2.58-5.56,3.52-7.14.94,1.58,3.06,5.26,3.53,7.14.33,1.31.06,2.73-.71,3.72Z"/>
    <path class="cls-1" d="m50.31,43.38c-.66.85-1.64,1.31-2.82,1.31s-2.15-.45-2.82-1.31c-.77-.99-1.04-2.42-.7-3.72.47-1.88,2.58-5.56,3.52-7.14.94,1.58,3.06,5.26,3.53,7.14.33,1.31.06,2.73-.71,3.72Z"/>
  </g>
  <g>
    <path d="m48.94,70.08c-.3-.32-.71-.52-1.13-.58-.31-.05-.62-.02-.91.06-.31.09-.6.26-.83.51-.38.39-.56.94-.53,1.48l.53,7.11c.03.53.37.98.83,1.18.17.08.37.13.58.13.12,0,.22-.02.33-.05.57-.14,1.02-.64,1.07-1.25l.57-7.1c.05-.54-.14-1.09-.51-1.49Zm-.97,8.51c-.02.13-.07.24-.17.33-.09.09-.21.13-.33.13-.26,0-.49-.2-.51-.47l-.07-.97-.45-6.13c-.02-.3.08-.58.28-.8.06-.06.11-.1.17-.15.17-.12.39-.18.6-.18.12,0,.21.02.31.06.18.05.34.14.46.28.2.22.31.5.28.79l-.57,7.11Z"/>
    <path d="m47.81,80.34c-.1-.02-.2-.03-.31-.03-.21,0-.41.04-.6.12-.59.24-1.01.82-1.01,1.49,0,.24.06.48.17.69.17.36.47.65.84.79.16.06.33.1.52.11h.03s.03,0,.05,0c.12,0,.21,0,.31-.03.74-.15,1.3-.8,1.3-1.57s-.56-1.43-1.3-1.58Zm0,2.2c-.09.06-.2.08-.31.08-.24,0-.47-.14-.6-.35-.06-.1-.09-.21-.09-.34s.02-.24.09-.35c.13-.21.35-.35.6-.35.12,0,.22.02.31.08.23.11.39.35.39.62s-.17.5-.39.61Z"/>
    <g>
      <path d="m59.72,80.69l-7.73-12.02-.91-1.42-.83-1.29c-.55-.86-1.45-1.39-2.44-1.49-.1,0-.2-.02-.31-.02h0c-.2,0-.4.02-.6.06-.87.15-1.64.67-2.15,1.44l-9.47,14.73c-.39.59-.57,1.27-.54,1.93.02.31.08.61.19.91.06.17.13.34.21.5.58,1.07,1.66,1.7,2.87,1.7h18.96c1.21,0,2.28-.63,2.86-1.7.59-1.07.54-2.31-.12-3.34Zm-.67,2.9c-.42.77-1.2,1.23-2.08,1.23h-18.96c-.87,0-1.65-.46-2.07-1.23,0-.02-.02-.04-.03-.06-.14-.29-.24-.6-.26-.91-.04-.5.09-.99.38-1.43l9.47-14.74c.33-.5.82-.86,1.38-1.01.2-.05.39-.07.6-.07.12,0,.21,0,.31.02.68.09,1.29.47,1.68,1.06l1.59,2.48.91,1.42,6.97,10.84c.47.73.52,1.64.09,2.41Z"/>
      <path class="cls-1" d="m58.96,81.19l-6.97-10.84-.91-1.42-1.59-2.48c-.39-.59-.99-.97-1.68-1.06-.1,0-.2-.02-.31-.02-.2,0-.4.02-.6.07-.57.15-1.05.5-1.38,1.01l-9.47,14.74c-.29.44-.42.94-.38,1.43.02.31.12.62.26.91,0,.02.02.04.03.06.42.77,1.2,1.23,2.07,1.23h18.96c.87,0,1.65-.46,2.08-1.23.42-.77.38-1.68-.09-2.41Zm-11.15,2.31c-.1.02-.2.03-.31.03-.02,0-.03,0-.05,0h-.03c-.19,0-.36-.05-.52-.11-.37-.15-.68-.43-.84-.79-.11-.21-.17-.45-.17-.69,0-.68.42-1.26,1.01-1.49.19-.08.39-.12.6-.12.12,0,.21,0,.31.03.74.15,1.3.8,1.3,1.58s-.56,1.42-1.3,1.57Zm1.07-4.84c-.05.61-.5,1.11-1.07,1.25-.11.03-.21.05-.33.05-.21,0-.41-.05-.58-.13-.46-.2-.79-.65-.83-1.18l-.53-7.11c-.03-.54.15-1.09.53-1.48.23-.25.51-.42.83-.51.29-.09.61-.11.91-.06.42.06.83.26,1.13.58.37.4.56.94.51,1.49l-.57,7.1Z"/>
    </g>
  </g>
  <g>
    <path d="m77.7,0H17.29c-2.17,0-3.93,1.77-3.93,3.94v52.77h.01c.37-.4.73-.77,1.13-1.07V3.94c0-1.55,1.25-2.8,2.79-2.8h60.41c1.55,0,2.8,1.25,2.8,2.8v51.71c.39.3.75.66,1.12,1.05t.02.02V3.94c0-2.17-1.76-3.94-3.94-3.94Zm0,93.86H17.29c-.19,0-.38-.02-.56-.06h-2.26c.72.74,1.72,1.2,2.82,1.2h60.41c1.11,0,2.11-.46,2.83-1.2h-2.27c-.18.04-.37.06-.56.06Z"/>
    <path d="m52.53,5.2c0,.23-.19.42-.42.42h-9.22c-.24,0-.43-.19-.43-.42,0-.24.19-.43.43-.43h9.22c.23,0,.42.19.42.43Z"/>
    <path d="m17.17,8.68v46.24c.32.01.6.07.86.18V9.53h58.93v45.55c.25-.08.53-.14.85-.17V8.68H17.17Z"/>
  </g>
  <path d="m93.58,53.69c-2.18,0-3.29,1.16-4.28,2.18-.93.98-1.74,1.82-3.41,1.82s-2.47-.84-3.41-1.82c-.26-.28-.54-.56-.84-.83-.34-.3-.71-.58-1.14-.81-.62-.32-1.36-.54-2.29-.54-.14,0-.27,0-.4.01-.3.02-.59.07-.85.14-1.4.34-2.25,1.23-3.03,2.03-.93.98-1.74,1.82-3.4,1.82s-2.48-.84-3.41-1.82c-.98-1.02-2.1-2.18-4.28-2.18s-3.29,1.16-4.27,2.18c-.93.98-1.74,1.82-3.41,1.82s-2.47-.84-3.4-1.82c-.98-1.02-2.1-2.18-4.27-2.18s-3.29,1.16-4.28,2.18c-.93.98-1.74,1.82-3.4,1.82s-2.47-.84-3.41-1.82c-.98-1.02-2.1-2.18-4.27-2.18s-3.29,1.16-4.27,2.18c-.94.98-1.74,1.82-3.41,1.82s-2.47-.84-3.4-1.82c-.78-.8-1.63-1.69-3.02-2.03-.27-.07-.55-.12-.86-.14-.13-.01-.26-.01-.39-.01-.93,0-1.66.21-2.28.54-.43.22-.8.5-1.14.8-.31.27-.59.56-.86.84-.93.98-1.74,1.82-3.4,1.82s-2.47-.84-3.41-1.82c-.98-1.02-2.1-2.18-4.27-2.18h-.6v32.6c0,4.8,3.91,8.71,8.71,8.71h75.94c4.8,0,8.71-3.91,8.71-8.71v-32.6h-.6Zm-.6,32.6c0,4.14-3.37,7.51-7.51,7.51H9.53c-4.14,0-7.51-3.37-7.51-7.51v-31.36c1.27.18,1.99.92,2.8,1.77.99,1.03,2.1,2.19,4.28,2.19s3.28-1.15,4.26-2.18h.01c.37-.4.73-.77,1.13-1.07.59-.45,1.28-.75,2.28-.75.14,0,.27,0,.39.03.32.01.6.07.86.18.89.29,1.49.91,2.15,1.6.99,1.03,2.1,2.19,4.27,2.19s3.29-1.16,4.28-2.19c.93-.97,1.74-1.81,3.4-1.81s2.47.84,3.41,1.81c.98,1.03,2.09,2.19,4.27,2.19s3.29-1.16,4.27-2.19c.93-.97,1.74-1.81,3.41-1.81s2.47.84,3.4,1.81c.98,1.03,2.1,2.19,4.27,2.19s3.29-1.16,4.28-2.19c.93-.97,1.74-1.81,3.4-1.81s2.48.84,3.41,1.81c.99,1.03,2.1,2.19,4.28,2.19s3.29-1.16,4.27-2.19c.67-.69,1.27-1.32,2.16-1.62.25-.08.53-.14.85-.17.12-.01.26-.02.4-.02,1,0,1.69.3,2.29.76.39.3.75.66,1.12,1.05t.02.02c.97,1.02,2.09,2.17,4.25,2.17s3.29-1.16,4.28-2.19c.81-.85,1.53-1.6,2.81-1.77v31.36Z"/>
</svg>