<?xml version="1.0" encoding="utf-8"?>
<!-- Generator: Adobe Illustrator 27.3.1, SVG Export Plug-In . SVG Version: 6.00 Build 0)  -->
<svg version="1.1" id="Layer_1" xmlns="http://www.w3.org/2000/svg" xmlns:xlink="http://www.w3.org/1999/xlink" x="0px" y="0px"
	 viewBox="0 0 95 95" style="enable-background:new 0 0 95 95;" xml:space="preserve">
<style type="text/css">
	.st0{fill:#FF0000;}
</style>
<g>
	<g>
		<g>
			<path d="M83.69,18.59H11.31c-2.08,0-3.77,1.7-3.77,3.78v47.44h79.91V22.37C87.45,20.29,85.77,18.59,83.69,18.59z M8.77,22.37
				c0-1.41,1.14-2.54,2.54-2.54h72.37c1.4,0,2.54,1.13,2.54,2.54v46.21H8.77V22.37z"/>
			<path class="st0" d="M83.69,19.83H11.31c-1.4,0-2.54,1.13-2.54,2.54v46.21h77.45V22.37C86.23,20.96,85.08,19.83,83.69,19.83z
				 M84.83,66.6H10.17V24.51c0-2.05,1.67-3.71,3.71-3.71h67.23c2.05,0,3.71,1.67,3.71,3.71V66.6z"/>
		</g>
		<g>
			<path d="M81.11,20.79H13.89c-2.05,0-3.71,1.67-3.71,3.71V66.6h74.66V24.51C84.83,22.46,83.16,20.79,81.11,20.79z M83.71,65.48
				H11.29V24.51c0-1.43,1.16-2.59,2.59-2.59h67.23c1.43,0,2.59,1.16,2.59,2.59V65.48z"/>
		</g>
		<g>
			<path d="M91.31,76.41H3.69c-2.03,0-3.68-1.65-3.68-3.68v-4.05H95v4.05C94.99,74.75,93.35,76.41,91.31,76.41z M1.06,69.72v2.99
				c0,1.45,1.17,2.63,2.63,2.63h87.62c1.45,0,2.63-1.17,2.63-2.63v-2.99H1.06z"/>
		</g>
		<g>
			<g>
				<path d="M55.08,73.1H42.16c-0.31,0-0.56-0.25-0.56-0.56c0-0.31,0.25-0.56,0.56-0.56h12.92c0.31,0,0.56,0.25,0.56,0.56
					C55.63,72.85,55.39,73.1,55.08,73.1z"/>
			</g>
			<g>
				<ellipse cx="58.6" cy="72.54" rx="0.63" ry="0.51"/>
			</g>
		</g>
	</g>
	<path d="M26.67,37.32c1.47,0.05,2.96,0.03,4.44,0.01c0.73-0.01,1.14-0.41,1.13-0.99c-0.01-0.59-0.43-0.95-1.16-0.95
		c-1.74-0.01-3.48-0.02-5.22,0.01c-1.11,0.02-1.85,0.76-1.85,1.86c-0.01,5.18,0,10.35,0,15.54c0,0.6,0.23,1.1,0.64,1.52
		c0.56,0.57,1.26,0.62,2,0.62c7.33,0,14.67,0,22,0c7.38,0,14.75,0,22.13,0c1.71,0,2.47-0.77,2.47-2.48c0-4.86,0-9.7,0-14.56
		c0-1.81-0.7-2.51-2.54-2.51c-11.42,0-22.84,0-34.27,0c-0.23,0-0.48,0-0.72,0.03c-0.51,0.06-0.78,0.41-0.81,0.88
		c-0.03,0.48,0.21,0.82,0.69,0.98c0.3,0.1,0.6,0.07,0.91,0.07c10.1,0,20.2,0,30.29,0c1.32,0,2.66,0.01,3.98,0.02
		c0.17,0,0.44-0.07,0.47,0.12c0.06,0.41,0.1,0.84,0,1.23c-0.07,0.3-0.46,0.16-0.7,0.16c-4.38,0.01-8.74,0.01-13.12,0.01
		c-10.25,0-20.49-0.01-30.74,0.02c-0.65,0-0.72-0.25-0.73-0.79C25.94,37.54,26.02,37.3,26.67,37.32z M28.31,52.54
		c-0.02,0.31-0.12,0.43-0.42,0.43c-0.5-0.01-0.99-0.01-1.49,0c-0.29,0-0.46-0.1-0.44-0.42c0-0.04,0-0.09,0-0.13
		c-0.04-1.21-0.04-1.21,1.16-1.21C28.41,51.21,28.4,51.21,28.31,52.54z M26.44,49.26c-0.37,0.01-0.51-0.11-0.48-0.48
		c0.02-0.21,0.02-0.44,0-0.65c-0.02-0.29,0.11-0.38,0.38-0.37c1.95,0.01,3.92,0,5.87,0c0.27,0,0.41,0.11,0.38,0.38
		c-0.01,0.21-0.02,0.44,0,0.65c0.04,0.39-0.15,0.47-0.5,0.47c-0.96-0.02-1.91-0.01-2.87-0.01C28.31,49.25,27.37,49.24,26.44,49.26z
		 M32.6,52.67c-0.03,0.18-0.11,0.28-0.29,0.29c-0.59,0-1.17,0-1.76,0c-0.22,0-0.31-0.12-0.3-0.33c0-0.04,0-0.09,0-0.13
		c-0.06-1.29-0.06-1.29,1.22-1.29C32.62,51.21,32.84,51.51,32.6,52.67z M36.9,52.66c-0.05,0.27-0.19,0.31-0.41,0.31
		c-0.48,0-0.95-0.02-1.43,0.01c-0.41,0.02-0.51-0.14-0.51-0.52c-0.02-1.24-0.03-1.24,1.22-1.24C36.93,51.21,37.12,51.47,36.9,52.66z
		 M34.56,48.04c0.04-0.22,0.15-0.29,0.34-0.29c0.28,0,0.57,0,0.84,0l0,0c0.06,0,0.13,0,0.19,0c0.93,0,1.18,0.35,0.95,1.26
		c-0.06,0.25-0.21,0.23-0.38,0.23c-0.32,0-0.65,0-0.97,0C34.54,49.25,34.37,49.04,34.56,48.04z M58.39,51.86
		c-0.03,1.11,0,1.11-1.1,1.11c-5.83,0-11.67,0-17.5,0c-1.06,0-0.89,0.12-0.95-0.94c-0.04-0.65,0.14-0.86,0.82-0.82
		c0.95,0.06,1.91,0.02,2.87,0.02c2.03,0,4.05,0,6.07,0c3.04,0,6.09,0.01,9.14-0.01C58.27,51.19,58.4,51.35,58.39,51.86z
		 M38.85,48.03c0.05-0.28,0.22-0.28,0.43-0.28c0.48,0,0.95,0.01,1.43-0.01c0.37-0.02,0.47,0.14,0.48,0.49
		c0.03,1.01,0.04,1.01-1.11,1.01c-0.09,0-0.17,0-0.26,0C38.84,49.25,38.65,48.99,38.85,48.03z M43.12,48.48
		c0.02-0.54,0.12-0.81,0.72-0.74c0.36,0.04,0.74,0.02,1.1,0c0.37-0.02,0.53,0.07,0.54,0.5c0.01,1,0.03,1-1.18,1
		c-0.13,0-0.27-0.02-0.39,0C43.27,49.37,43.1,49.11,43.12,48.48z M49.77,48.68c0.06,0.45-0.11,0.64-0.58,0.58
		c-0.19-0.02-0.39,0-0.59,0c-0.06,0-0.13,0-0.19,0c-1.08,0-1.07,0-0.99-1.08c0.02-0.3,0.12-0.44,0.43-0.43c0.5,0.01,1,0.01,1.49,0
		c0.3-0.01,0.45,0.09,0.43,0.41C49.75,48.33,49.75,48.51,49.77,48.68z M51.72,48.47c0.07-0.84-0.06-0.69,1.24-0.72
		c0.15,0,0.31,0.02,0.45,0c0.54-0.09,0.67,0.15,0.68,0.67c0.02,0.67-0.17,0.94-0.84,0.83c-0.23-0.03-0.48-0.03-0.72,0
		C51.9,49.36,51.65,49.15,51.72,48.47z M56.03,48c0.06-0.23,0.22-0.23,0.39-0.23c0.36-0.01,0.74,0,1.1,0c0.84,0,0.84,0,0.84,0.81
		c0,0.68,0,0.68-1.16,0.68c-0.09,0-0.17,0-0.26,0C56.06,49.25,55.78,48.88,56.03,48z M62.13,52.97c-0.38-0.03-0.78-0.03-1.16,0
		c-0.51,0.05-0.66-0.14-0.65-0.65c0.03-1.11,0-1.11,1.21-1.11c1.17,0,1.15,0,1.16,1.22C62.69,52.86,62.56,53.01,62.13,52.97z
		 M62.12,49.26c-0.21-0.02-0.44,0-0.65,0c-0.06,0-0.13,0-0.19,0c-0.96,0-1.15-0.26-0.96-1.23c0.05-0.29,0.23-0.27,0.43-0.27
		c0.48-0.01,0.96,0.02,1.43-0.01c0.42-0.03,0.54,0.15,0.49,0.53c-0.02,0.15-0.02,0.31,0,0.46C62.75,49.19,62.53,49.3,62.12,49.26z
		 M65.76,52.97c-1.15,0-1.13,0-1.14-1.17c-0.01-0.45,0.11-0.63,0.58-0.58c0.41,0.04,0.82,0.03,1.23,0c0.41-0.03,0.57,0.07,0.57,0.52
		C66.98,52.97,67.01,52.97,65.76,52.97z M71.28,51.73c-0.02,1.46,0.18,1.21-1.17,1.24c-1.21,0-1.4-0.26-1.17-1.48
		c0.04-0.23,0.16-0.27,0.35-0.27c0.54,0,1.09,0.01,1.63,0c0.3-0.01,0.39,0.12,0.36,0.39C71.28,51.64,71.28,51.68,71.28,51.73z
		 M70.33,49.25c-1.72,0.01-3.43-0.02-5.14,0.02c-0.56,0.01-0.61-0.23-0.56-0.65c0.04-0.37-0.23-0.91,0.54-0.86
		c0.93,0.05,1.87,0.01,2.8,0.01c0.91,0,1.83,0.01,2.73-0.01c0.39-0.01,0.6,0.06,0.58,0.53C71.25,49.49,71.4,49.24,70.33,49.25z
		 M70.76,45.8c-0.59-0.02-1.17-0.01-1.76-0.01c-0.46,0-0.91,0-1.37,0c-0.86,0-0.88,0-0.84-0.9c0.01-0.23-0.16-0.61,0.33-0.61
		c1.28,0,2.56,0,3.84,0c0.27,0,0.33,0.13,0.32,0.36c-0.01,0.21-0.02,0.44,0,0.65C71.34,45.72,71.13,45.81,70.76,45.8z M64.62,41.32
		c0-0.35,0.09-0.5,0.47-0.5c1.91,0.01,3.82,0.01,5.73,0c0.32,0,0.49,0.1,0.46,0.45c-0.02,0.19-0.02,0.39,0,0.59
		c0.04,0.37-0.11,0.49-0.47,0.48c-0.95-0.02-1.91-0.01-2.86-0.01c-0.8,0-1.6,0-2.41,0C64.6,42.33,64.61,42.33,64.62,41.32z
		 M64.04,44.29c0.62-0.11,0.81,0.13,0.8,0.77c-0.01,0.59-0.16,0.83-0.77,0.76c-0.34-0.04-0.69-0.03-1.04,0
		c-0.43,0.03-0.56-0.14-0.56-0.56c0-0.95-0.02-0.95,1.17-0.95C63.79,44.29,63.92,44.31,64.04,44.29z M60.33,41.07
		c0.06-0.23,0.21-0.25,0.38-0.25c0.52,0,1.05,0.01,1.57-0.01c0.32-0.01,0.39,0.13,0.41,0.43c0.05,1.08,0.06,1.08-1.16,1.08
		c-0.09,0-0.17,0-0.26,0C60.34,42.33,60.1,41.98,60.33,41.07z M59.66,44.3c0.29,0.02,0.7-0.18,0.82,0.14
		c0.13,0.34,0.04,0.77,0.02,1.16c-0.01,0.2-0.2,0.19-0.36,0.19c-0.26,0-0.52,0-0.78,0c-0.09,0-0.17,0-0.26,0
		c-0.86,0-1.16-0.45-0.91-1.3c0.06-0.2,0.19-0.2,0.34-0.2C58.91,44.29,59.28,44.27,59.66,44.3z M56.59,40.82
		c0.21,0.02,0.44,0,0.65,0c0.04,0,0.09,0,0.13,0c1,0,1.21,0.27,1,1.26c-0.05,0.26-0.19,0.25-0.37,0.25c-0.52,0-1.04-0.01-1.56,0
		c-0.3,0.01-0.45-0.07-0.42-0.39c0.02-0.17,0.02-0.35,0-0.52C55.96,40.97,56.14,40.76,56.59,40.82z M55.31,44.29
		c0.91,0,1.15,0.35,0.93,1.26c-0.07,0.28-0.26,0.25-0.45,0.25c-0.5,0-0.99-0.01-1.49,0.01c-0.32,0.01-0.38-0.14-0.41-0.43
		c-0.05-1.08-0.06-1.08,1.16-1.08C55.14,44.29,55.23,44.29,55.31,44.29z M52.94,40.83c0.11,0,0.21,0.01,0.32,0
		c0.64-0.11,0.86,0.13,0.83,0.8c-0.03,0.53-0.11,0.8-0.7,0.72c-0.38-0.05-0.78-0.03-1.16,0c-0.34,0.02-0.51-0.06-0.5-0.46
		C51.76,40.59,51.6,40.86,52.94,40.83z M50.29,44.28c0.3,0.04,0.61,0.04,0.91,0c0.57-0.06,0.81,0.1,0.76,0.73
		c-0.07,0.92,0.14,0.77-1.23,0.79c-0.11,0-0.22-0.01-0.32,0c-0.65,0.11-0.86-0.13-0.83-0.8C49.6,44.46,49.68,44.18,50.29,44.28z
		 M47.42,41.27c0.02-0.35,0.16-0.45,0.48-0.44c0.48,0.01,0.96,0.02,1.43,0c0.36-0.02,0.46,0.15,0.43,0.47
		c-0.01,0.15-0.02,0.31,0,0.46c0.06,0.44-0.09,0.65-0.57,0.59c-0.21-0.03-0.44,0-0.65,0c-0.04,0-0.09,0-0.13,0
		C47.35,42.33,47.37,42.33,47.42,41.27z M46.1,44.28c0.34,0.05,0.69,0.03,1.05,0c0.41-0.04,0.52,0.12,0.51,0.51
		c-0.04,1.2,0.17,0.97-1.14,1c-0.17,0-0.35-0.02-0.52,0c-0.6,0.1-0.69-0.17-0.72-0.72C45.25,44.42,45.45,44.19,46.1,44.28z
		 M43.14,41.07c0.06-0.23,0.21-0.25,0.38-0.25c0.5,0,1,0.01,1.49-0.01c0.34-0.01,0.44,0.13,0.45,0.46c0.04,1.05,0.05,1.05-1.21,1.05
		c-0.06,0-0.13,0-0.19,0C43.17,42.33,42.9,41.96,43.14,41.07z M42.53,44.29c0.69-0.13,0.85,0.18,0.83,0.84
		c-0.01,0.53-0.14,0.75-0.68,0.68c-0.28-0.03-0.57-0.03-0.84,0c-0.65,0.09-0.93-0.11-0.85-0.82c0.07-0.68,0.02-0.69,1.16-0.69
		C42.27,44.29,42.41,44.31,42.53,44.29z M38.85,41.08c0.06-0.23,0.2-0.25,0.38-0.25c0.46,0,0.91,0.02,1.37-0.01
		c0.46-0.03,0.6,0.14,0.59,0.59c-0.01,0.92,0.01,0.92-1.21,0.92c-0.06,0-0.13,0-0.19,0C38.87,42.33,38.63,41.98,38.85,41.08z
		 M37.38,44.28c0.28,0.04,0.57,0.04,0.84,0c0.64-0.1,0.89,0.12,0.82,0.8c-0.09,0.82,0.16,0.7-1.16,0.72c-0.13,0-0.27-0.02-0.39,0
		c-0.65,0.11-0.86-0.13-0.83-0.8C36.69,44.44,36.79,44.19,37.38,44.28z M34.56,41.1c0.05-0.23,0.18-0.27,0.37-0.27
		c0.33,0,0.65,0,0.98,0c1.06,0,1.11,0.07,0.99,1.15c-0.03,0.23-0.1,0.36-0.35,0.35c-0.28-0.01-0.57,0-0.84,0c-0.06,0-0.13,0-0.19,0
		C34.56,42.33,34.35,42.05,34.56,41.1z M33.16,44.28c0.36,0.04,0.74,0.02,1.11,0c0.31-0.01,0.46,0.05,0.47,0.42
		c0.03,1.1,0.05,1.09-1.17,1.09c-0.15,0-0.31-0.02-0.46,0c-0.62,0.11-0.73-0.18-0.75-0.76C32.34,44.39,32.56,44.2,33.16,44.28z
		 M31.04,40.82c0.34,0.04,0.69,0.02,1.04,0c0.37-0.02,0.53,0.09,0.54,0.5c0.01,1,0.03,1-1.18,1c-0.15,0-0.31-0.02-0.45,0
		c-0.62,0.11-0.73-0.18-0.74-0.74C30.22,40.96,30.41,40.73,31.04,40.82z M30.43,44.71c-0.01,0.19-0.02,0.39,0,0.59
		c0.05,0.42-0.15,0.52-0.53,0.5c-0.59-0.02-1.17-0.01-1.76-0.01c-0.57,0-1.13-0.01-1.7,0c-0.35,0.01-0.53-0.1-0.49-0.48
		c0.02-0.21,0.01-0.44,0-0.65c-0.02-0.27,0.06-0.39,0.36-0.38c1.24,0.01,2.48,0.01,3.71,0C30.38,44.28,30.45,44.43,30.43,44.71z
		 M25.96,41.24c0.01-0.3,0.1-0.43,0.41-0.42c0.45,0.01,0.91,0.03,1.37,0c0.45-0.03,0.6,0.14,0.59,0.59
		c-0.02,0.92,0.01,0.92-1.21,0.92c-0.04,0-0.09,0-0.13,0C25.88,42.33,25.91,42.33,25.96,41.24z"/>
</g>
</svg>
