<?xml version="1.0" encoding="utf-8"?>
<!-- Generator: Adobe Illustrator 27.3.1, SVG Export Plug-In . SVG Version: 6.00 Build 0)  -->
<svg version="1.1" id="Layer_1" xmlns="http://www.w3.org/2000/svg" xmlns:xlink="http://www.w3.org/1999/xlink" x="0px" y="0px"
	 viewBox="0 0 95 95" style="enable-background:new 0 0 95 95;" xml:space="preserve">
<style type="text/css">
	.st0{fill:#FF0000;}
</style>
<g>
	<g>
		<path d="M83.69,18.59H11.31c-2.08,0-3.77,1.7-3.77,3.78v47.44h79.91V22.37C87.45,20.29,85.77,18.59,83.69,18.59z M8.77,22.37
			c0-1.41,1.14-2.54,2.54-2.54h72.37c1.4,0,2.54,1.13,2.54,2.54v46.21H8.77V22.37z"/>
		<path class="st0" d="M83.69,19.83H11.31c-1.4,0-2.54,1.13-2.54,2.54v46.21h77.45V22.37C86.23,20.96,85.08,19.83,83.69,19.83z
			 M84.83,66.6H10.17V24.51c0-2.05,1.67-3.71,3.71-3.71h67.23c2.05,0,3.71,1.67,3.71,3.71V66.6z"/>
	</g>
	<g>
		<path d="M81.11,20.79H13.89c-2.05,0-3.71,1.67-3.71,3.71V66.6h74.66V24.51C84.83,22.46,83.16,20.79,81.11,20.79z M83.71,65.48
			H11.29V24.51c0-1.43,1.16-2.59,2.59-2.59h67.23c1.43,0,2.59,1.16,2.59,2.59V65.48z"/>
	</g>
	<g>
		<path d="M91.31,76.41H3.69c-2.03,0-3.68-1.65-3.68-3.68v-4.05H95v4.05C94.99,74.75,93.35,76.41,91.31,76.41z M1.06,69.72v2.99
			c0,1.45,1.17,2.63,2.63,2.63h87.62c1.45,0,2.63-1.17,2.63-2.63v-2.99H1.06z"/>
	</g>
	<g>
		<g>
			<path d="M55.08,73.1H42.16c-0.31,0-0.56-0.25-0.56-0.56c0-0.31,0.25-0.56,0.56-0.56h12.92c0.31,0,0.56,0.25,0.56,0.56
				C55.63,72.85,55.39,73.1,55.08,73.1z"/>
		</g>
		<g>
			<ellipse cx="58.6" cy="72.54" rx="0.63" ry="0.51"/>
		</g>
	</g>
</g>
<g>
	<path d="M57.39,38.82c0-0.46,0.03-0.92-0.34-1.29c-1.1-1.1-2.2-2.2-3.29-3.31c-0.33-0.34-0.74-0.35-1.16-0.35
		c-4.62,0-9.24,0.02-13.87-0.02c-0.91-0.01-1.14,0.32-1.14,1.17c0.02,5.84,0.03,11.68-0.01,17.52c-0.01,1.05,0.38,1.26,1.32,1.24
		c2.85-0.05,5.71-0.02,8.57-0.02c2.9,0,5.8-0.03,8.69,0.02c0.95,0.02,1.23-0.3,1.23-1.23C57.37,47.98,57.39,43.4,57.39,38.82z
		 M55.3,52.98c-5.21-0.04-10.42-0.04-15.63,0c-0.98,0.01-1.31-0.31-1.29-1.3c0.06-2.6,0.02-5.21,0.02-7.81
		c0-2.69,0.03-5.38-0.01-8.06c-0.01-0.89,0.31-1.17,1.17-1.16c4.19,0.03,8.4,0.02,12.6,0c0.6,0,1.02,0.21,1.44,0.61
		c2.98,2.84,2.99,2.84,2.99,7c0,3.11-0.03,6.21,0.02,9.33C56.64,52.59,56.38,52.99,55.3,52.98z"/>
	<path d="M60.78,39.97c-0.25,0-0.5,0-0.84,0c-0.34,0.2-1.21-0.41-1.23,0.38c-0.01,0.78,0.84,0.34,1.3,0.44
		c0.23,0.05,0.49,0.01,0.75-0.01c0.26-0.02,0.5-0.09,0.51-0.42C61.28,40.05,61.06,39.97,60.78,39.97z"/>
	<path d="M40.26,31.29c-0.05,0.19-0.01,0.42,0,0.62c0.01,0.29-0.02,0.62,0.39,0.65c0.52,0.03,0.45-0.37,0.46-0.69
		c0.01-0.2,0-0.42,0-0.69c-0.17-0.34,0.34-1.15-0.38-1.16C39.89,29.99,40.39,30.84,40.26,31.29z"/>
	<path d="M53.89,31.26c-0.04,0.2-0.01,0.42,0,0.63c0.01,0.29-0.03,0.63,0.39,0.66c0.43,0.03,0.44-0.3,0.45-0.6
		c0.01-0.21,0-0.42,0-0.72c-0.19-0.35,0.39-1.23-0.45-1.22C53.57,30.02,53.99,30.83,53.89,31.26z"/>
	<path d="M47.47,32.56c0.51,0.02,0.43-0.39,0.44-0.7c0.01-0.45,0-0.91,0-1.36c0-0.28-0.09-0.5-0.39-0.51
		c-0.31-0.01-0.43,0.19-0.44,0.47c0,0.25,0,0.49,0,0.75c0,0,0,0-0.01,0c0,0.2-0.01,0.42,0,0.62C47.1,32.1,46.97,32.52,47.47,32.56z"
		/>
	<path d="M35.01,46.82c-0.19-0.05-0.42-0.01-0.62,0c-0.28,0.01-0.64-0.03-0.66,0.37c-0.03,0.49,0.36,0.46,0.69,0.47
		c0.2,0.01,0.42,0,0.69,0c0.35-0.14,1.14,0.31,1.16-0.37C36.3,46.42,35.46,46.94,35.01,46.82z"/>
	<path d="M59.96,46.82c-0.19-0.05-0.42-0.02-0.62,0c-0.28,0.02-0.64-0.05-0.67,0.36c-0.04,0.51,0.35,0.46,0.68,0.48
		c0.2,0.01,0.42,0,0.77,0c0.26-0.23,1.09,0.35,1.11-0.36C61.26,46.43,60.4,46.93,59.96,46.82z"/>
	<path d="M40.76,55.11c-0.88-0.04-0.37,0.81-0.49,1.27c-0.06,0.23,0,0.5-0.01,0.75c-0.01,0.34,0.12,0.59,0.5,0.56
		c0.32-0.03,0.36-0.29,0.36-0.56c0-0.25,0-0.5,0-0.9C40.86,55.98,41.49,55.14,40.76,55.11z"/>
	<path d="M35.47,39.97c-0.41-0.04-0.82-0.01-1.24,0c-0.27,0-0.5,0.06-0.5,0.39c0,0.32,0.25,0.39,0.5,0.42c0.25,0.02,0.49,0,0.75,0
		v0.01c0.16,0,0.33,0.01,0.49,0c0.34-0.04,0.85,0.12,0.84-0.45C36.31,39.76,35.78,40.01,35.47,39.97z"/>
	<path d="M47.55,55.13c-0.86-0.02-0.33,0.89-0.47,1.38c-0.06,0.23-0.01,0.49,0,0.74c0.01,0.23,0.12,0.41,0.35,0.43
		c0.3,0.03,0.46-0.15,0.47-0.44c0.01-0.25,0-0.49,0-0.85C47.76,56.03,48.25,55.15,47.55,55.13z"/>
	<path d="M54.26,55.12c-0.66,0.02-0.29,0.8-0.37,1.25c-0.04,0.23,0,0.49,0,0.74c0,0.32,0.09,0.6,0.47,0.57
		c0.31-0.02,0.36-0.28,0.36-0.54c0-0.25,0-0.49,0-0.83C54.53,55.96,55.11,55.1,54.26,55.12z"/>
	<path d="M50.92,55.06c-0.52-0.02-0.36,0.45-0.38,0.75c-0.03,0.42-0.02,0.82,0,1.24c0.01,0.28-0.03,0.64,0.42,0.6
		c0.33-0.03,0.33-0.32,0.34-0.57c0.01-0.25,0-0.49,0-0.75l0,0c0-0.16,0.01-0.33,0-0.49C51.26,55.54,51.4,55.08,50.92,55.06z"/>
	<path d="M35.09,37.41c0.38-0.2,1.21,0.3,1.18-0.45c-0.02-0.63-0.81-0.38-1.26-0.37c-0.44,0-1.24-0.27-1.22,0.43
		C33.82,37.66,34.62,37.25,35.09,37.41z"/>
	<path d="M44.05,32.48c0.79,0.01,0.31-0.83,0.43-1.29c0.04-0.15,0.01-0.33,0-0.49c-0.02-0.28,0.05-0.66-0.34-0.68
		c-0.51-0.03-0.38,0.42-0.43,0.73c-0.02,0.16,0,0.33,0,0.58C43.83,31.66,43.46,32.47,44.05,32.48z"/>
	<path d="M59.66,37.37c0.12,0.02,0.25,0,0.5,0c0.23-0.27,1.08,0.38,1.05-0.42c-0.03-0.62-0.8-0.3-1.25-0.38
		c-0.07-0.01-0.17-0.01-0.25,0c-0.37,0.07-0.98-0.17-1.01,0.39C58.68,37.6,59.31,37.3,59.66,37.37z"/>
	<path d="M34.48,44.2c0.17,0.02,0.33,0,0.64,0c0.29-0.21,1.13,0.32,1.14-0.34c0.01-0.8-0.85-0.31-1.31-0.44
		c-0.16-0.04-0.34-0.02-0.5,0c-0.27,0.04-0.67-0.1-0.69,0.33C33.72,44.29,34.17,44.17,34.48,44.2z"/>
	<path d="M50.53,31.34c-0.05,0.19-0.01,0.42,0,0.62c0.02,0.23-0.01,0.54,0.32,0.58c0.44,0.04,0.41-0.31,0.43-0.59
		c0.02-0.2,0-0.42,0-0.73c-0.11-0.34,0.26-1.15-0.33-1.16C50.16,30.04,50.65,30.88,50.53,31.34z"/>
	<path d="M34.96,50.26c-0.19-0.05-0.42-0.01-0.63,0c-0.25,0.02-0.54,0-0.59,0.33c-0.05,0.45,0.32,0.41,0.6,0.44
		c0.2,0.02,0.42,0,0.73,0c0.34-0.11,1.16,0.25,1.18-0.33C36.27,49.88,35.42,50.39,34.96,50.26z"/>
	<path d="M59.9,50.26c-0.19-0.05-0.42-0.01-0.63,0c-0.23,0.02-0.54-0.02-0.59,0.32c-0.05,0.45,0.32,0.41,0.6,0.44
		c0.2,0.02,0.42,0,0.74,0c0.34-0.11,1.16,0.26,1.17-0.33C61.22,49.89,60.36,50.39,59.9,50.26z"/>
	<path d="M44.14,55.15c-0.77,0-0.29,0.85-0.42,1.31c-0.04,0.15-0.01,0.33,0,0.49c0.02,0.28-0.05,0.66,0.35,0.68
		c0.5,0.02,0.39-0.43,0.43-0.74c0.02-0.16,0-0.33,0-0.63C44.3,56,44.79,55.15,44.14,55.15z"/>
	<path d="M59.96,43.45c-0.44,0-1.24-0.29-1.23,0.37c0.01,0.66,0.81,0.25,1.31,0.43c0.34-0.27,1.17,0.28,1.16-0.46
		C61.19,43.17,60.39,43.45,59.96,43.45z"/>
	<path d="M54.3,45.78c-0.33,0.01-0.41,0.25-0.41,0.51c-0.01,0.84-0.09,1.69,0.01,2.52c0.14,1.22-0.39,1.48-1.51,1.46
		c-2.98-0.06-5.97-0.02-8.95-0.02c-2.08,0-2.08,0-2.33-2.1c0-0.04,0-0.09,0-0.13c-0.01-0.27-0.06-0.5-0.41-0.51
		c-0.32-0.01-0.44,0.2-0.45,0.48c-0.01,0.3-0.02,0.59-0.01,0.89c0.05,2.43-0.41,2.15,2.1,2.17c1.68,0.02,3.36,0,5.04,0
		c2.1,0,4.21,0.01,6.3-0.01c0.44,0,1,0.12,1.01-0.6c0.01-1.39,0.01-2.78,0-4.16C54.72,46.01,54.64,45.77,54.3,45.78z"/>
	<path d="M40.26,43.89c0,0.31-0.11,0.75,0.39,0.77c0.63,0.02,0.45-0.49,0.45-0.82c0.02-1.72,0.07-3.44-0.01-5.16
		c-0.05-1.08,0.35-1.39,1.37-1.32c1.09,0.07,2.18,0.02,3.27,0.02c1.26,0,2.52,0.01,3.77-0.01c0.31,0,0.77,0.13,0.79-0.36
		c0.02-0.49-0.44-0.43-0.76-0.43c-2.81-0.01-5.61,0-8.42-0.01c-0.64,0-0.88,0.27-0.88,0.91C40.27,39.62,40.25,41.76,40.26,43.89z"/>
	<path d="M54.32,41.18c-0.83-0.02-0.23,0.94-0.49,1.42c0.31,0.53-0.44,1.61,0.52,1.62c0.72,0.01,0.34-1.04,0.34-1.59
		C54.7,42.13,55.09,41.2,54.32,41.18z"/>
</g>
</svg>
